<svg width="16" height="16" viewBox="0 0 16 16" fill="none" xmlns="http://www.w3.org/2000/svg">
<path d="M1.85449 15.2812H11.8962V12.6146H16.0004V2.56104H1.85449V15.2812ZM10.0516 6.93176C9.92566 6.93176 9.83228 6.98865 9.77942 7.08618L9.30823 6.86267C9.42603 6.6311 9.69006 6.46057 10.1085 6.46057C10.5554 6.46057 10.8561 6.66772 10.8561 6.99683C10.8561 7.1593 10.7952 7.30151 10.531 7.53308L10.3076 7.724H10.9088V8.18713H9.42188V7.81738L10.0679 7.26489C10.1898 7.16333 10.2142 7.09827 10.2142 7.04553C10.2141 6.98059 10.1654 6.93176 10.0516 6.93176ZM9.04834 9.51562H8.1748L8.16675 8.2196L7.54919 9.25964H7.12671L6.50916 8.26428V9.51562H5.63562V6.67175H6.42383L7.3501 8.18713L8.25208 6.67175H9.04016L9.04834 9.51562Z" fill="currentColor"/>
<path d="M1.85449 0.6875H16.0004V1.625H1.85449V0.6875Z" fill="currentColor"/>
<path d="M0 2.56104H0.9375V15.2812H0V2.56104Z" fill="currentColor"/>
</svg>
