<svg width="24" height="24" viewBox="0 0 24 24" fill="none" xmlns="http://www.w3.org/2000/svg">
<path d="M18.9584 5.55844H13.812V0.41156L18.9584 5.55844Z" fill="currentColor"/>
<path d="M13.1091 6.96469C12.7209 6.96469 12.4059 6.64969 12.4059 6.26156V0H0.703125C0.315 0 0 0.315 0 0.703125V23.2969C0 23.685 0.315 24 0.703125 24H14.6002C13.0195 22.7728 12.0005 20.8547 12.0005 18.7036C12.0005 15.0075 15.0075 12.0005 18.7036 12.0005C18.9286 12.0005 19.1508 12.0117 19.3702 12.0333V6.96469H13.1091ZM7.48172 16.0312H3.51562C3.1275 16.0312 2.8125 15.7163 2.8125 15.3281C2.8125 14.94 3.1275 14.625 3.51562 14.625H7.48172C7.87031 14.625 8.18484 14.94 8.18484 15.3281C8.18484 15.7163 7.87031 16.0312 7.48172 16.0312ZM10.7859 12.75H3.51562C3.1275 12.75 2.8125 12.435 2.8125 12.0469C2.8125 11.6587 3.1275 11.3438 3.51562 11.3438H10.7859C11.1741 11.3438 11.4891 11.6587 11.4891 12.0469C11.4891 12.435 11.1741 12.75 10.7859 12.75ZM10.7859 9.46875H3.51562C3.1275 9.46875 2.8125 9.15375 2.8125 8.76562C2.8125 8.3775 3.1275 8.0625 3.51562 8.0625H10.7859C11.1741 8.0625 11.4891 8.3775 11.4891 8.76562C11.4891 9.15375 11.1741 9.46875 10.7859 9.46875Z" fill="currentColor"/>
<path d="M18.7031 13.4067C15.7824 13.4067 13.4067 15.7824 13.4067 18.7031C13.4067 21.6239 15.7824 24 18.7031 24C21.6239 24 24 21.6239 24 18.7031C24 15.7824 21.6239 13.4067 18.7031 13.4067ZM21.4313 17.7675L18.5653 20.6335C18.428 20.7708 18.248 20.8397 18.068 20.8397C17.888 20.8397 17.708 20.7708 17.5711 20.6335L15.975 19.0378C15.7008 18.7636 15.7008 18.3183 15.975 18.0436C16.2497 17.7689 16.695 17.7689 16.9697 18.0436L18.068 19.1424L18.8564 18.3539L20.437 16.7733C20.7117 16.4986 21.1566 16.4986 21.4313 16.7733C21.706 17.048 21.706 17.4928 21.4313 17.7675Z" fill="currentColor"/>
</svg>
