<svg width="32" height="32" viewBox="0 0 32 32" fill="none" xmlns="http://www.w3.org/2000/svg">
<path d="M10.666 13.3333L21.3327 13.3333" stroke="currentColor" stroke-width="1.5" stroke-linecap="round" stroke-linejoin="round"/>
<path d="M9.33398 18.6667L10.6673 18.6667" stroke="currentColor" stroke-width="1.5" stroke-linecap="round" stroke-linejoin="round"/>
<path d="M21.334 18.6667L22.6673 18.6667" stroke="currentColor" stroke-width="1.5" stroke-linecap="round" stroke-linejoin="round"/>
<path d="M4 24V15.0772C4 14.8063 4.05502 14.5383 4.16171 14.2893L7.4805 6.54549C7.79566 5.81012 8.51874 5.33333 9.31879 5.33333H22.6812C23.4813 5.33333 24.2043 5.81012 24.5195 6.54549L27.8383 14.2893C27.945 14.5383 28 14.8063 28 15.0772V24M4 24V27.4C4 27.7314 4.26863 28 4.6 28H8.73333C9.0647 28 9.33333 27.7314 9.33333 27.4V24M4 24H9.33333M28 24V27.4C28 27.7314 27.7314 28 27.4 28H23.2667C22.9353 28 22.6667 27.7314 22.6667 27.4V24M28 24H22.6667M9.33333 24H22.6667" stroke="currentColor" stroke-width="1.5"/>
</svg>
