<svg width="24" height="24" viewBox="0 0 24 24" fill="none" xmlns="http://www.w3.org/2000/svg">
<path fill-rule="evenodd" clip-rule="evenodd" d="M17.6953 23.5781H2.54013C2.08516 23.5781 1.71387 23.2069 1.71387 22.7518V5.45611H5.25199C6.0768 5.45611 6.74801 4.78486 6.74801 3.96005V0.421875H17.6953C18.1504 0.421875 18.5216 0.793172 18.5216 1.24814V10.2096C17.558 10.218 16.6339 10.844 16.3493 11.7684C16.2885 11.7259 16.2146 11.701 16.1348 11.701H4.10065C3.89355 11.701 3.72565 11.8689 3.72565 12.076C3.72565 12.2831 3.89355 12.451 4.10065 12.451H16.1348C16.1804 12.451 16.2241 12.4428 16.2646 12.4279C16.2666 12.4737 16.2702 12.5197 16.2755 12.5658L16.7073 16.3194H15.9851C14.9173 16.3194 14.0463 17.1904 14.0463 18.2582V20.1971H15.1018V21.7073H18.5216V22.7518C18.5216 23.2068 18.1501 23.5781 17.6953 23.5781ZM15.9851 17.0694C15.3313 17.0694 14.7963 17.6044 14.7963 18.2583V19.4472H22.2861V18.2583C22.2861 17.6044 21.7511 17.0694 21.0973 17.0694H15.9851ZM18.5412 10.9595C17.7401 10.9595 16.9226 11.6286 17.0206 12.4801L17.4622 16.3194H19.6202L20.0618 12.4801C20.1574 11.6493 19.3775 10.9595 18.5412 10.9595ZM21.2306 20.1971H15.8518V20.9574H21.2306V20.1971ZM5.75604 0.663891L1.95588 4.46409C1.88243 4.53759 1.82557 4.61836 1.78549 4.70611H5.25199C5.66285 4.70611 5.99805 4.371 5.99805 3.96005V0.4935C5.9103 0.533578 5.82954 0.590391 5.75604 0.663891ZM16.1348 6.00197H4.10065C3.89355 6.00197 3.72565 6.16988 3.72565 6.37697C3.72565 6.58406 3.89355 6.75197 4.10065 6.75197H16.1348C16.3419 6.75197 16.5098 6.58406 16.5098 6.37697C16.5098 6.16983 16.3419 6.00197 16.1348 6.00197ZM15.666 14.5506H4.10065C3.89355 14.5506 3.72565 14.7185 3.72565 14.9256C3.72565 15.1327 3.89355 15.3006 4.10065 15.3006H15.666C15.8731 15.3006 16.041 15.1327 16.041 14.9256C16.041 14.7185 15.8731 14.5506 15.666 14.5506ZM16.1348 8.8515H4.10065C3.89355 8.8515 3.72565 9.01941 3.72565 9.2265C3.72565 9.43359 3.89355 9.6015 4.10065 9.6015H16.1348C16.3419 9.6015 16.5098 9.43359 16.5098 9.2265C16.5098 9.01941 16.3419 8.8515 16.1348 8.8515ZM5.24805 20.784L6.0363 19.9958L6.7518 20.8853C6.89449 21.0627 7.16524 21.0706 7.31857 20.9042L8.29765 19.8439L9.5298 21.3138C9.69077 21.506 10.0011 21.497 10.144 21.2558L11.3856 19.2826L12.431 20.1471C12.5904 20.2789 12.8265 20.2566 12.9583 20.0972C13.0902 19.9379 13.0679 19.7017 12.9085 19.5699L11.5346 18.4345C11.3611 18.2913 11.1003 18.332 10.9798 18.5234L9.77407 20.4397L8.59835 19.0372C8.45355 18.8645 8.18941 18.8574 8.0359 19.0239L7.06273 20.0782L6.37446 19.2225C6.22455 19.0219 5.96112 19.0105 5.8009 19.1707L4.7179 20.2537C4.57146 20.4001 4.57146 20.6376 4.7179 20.784C4.8642 20.9304 5.10162 20.9304 5.24805 20.784Z" fill="currentColor"/>
</svg>
