<svg width="32" height="32" viewBox="0 0 32 32" fill="none" xmlns="http://www.w3.org/2000/svg">
<path d="M1.33398 28.6667V3.33333C1.33398 2.22876 2.22942 1.33333 3.33399 1.33333H28.6673C29.7719 1.33333 30.6673 2.22876 30.6673 3.33333V28.6667C30.6673 29.7712 29.7719 30.6667 28.6673 30.6667H3.33398C2.22941 30.6667 1.33398 29.7712 1.33398 28.6667Z" stroke="currentColor" stroke-width="1.5"/>
<path d="M20 9.33333H22.6667L25.3333 9.33333" stroke="currentColor" stroke-width="1.5" stroke-linecap="round" stroke-linejoin="round"/>
<path d="M20 20.6667H22.6667H25.3333" stroke="currentColor" stroke-width="1.5" stroke-linecap="round" stroke-linejoin="round"/>
<path d="M20 24.6667H22.6667H25.3333" stroke="currentColor" stroke-width="1.5" stroke-linecap="round" stroke-linejoin="round"/>
<path d="M6.66602 9.33334H9.33268M11.9993 9.33334H9.33268M9.33268 9.33334V6.66667M9.33268 9.33334V12" stroke="currentColor" stroke-width="1.5" stroke-linecap="round" stroke-linejoin="round"/>
<path d="M7.44812 24.5523L9.33374 22.6667M11.2194 20.7811L9.33374 22.6667M9.33374 22.6667L7.44812 20.7811M9.33374 22.6667L11.2194 24.5523" stroke="currentColor" stroke-width="1.5" stroke-linecap="round" stroke-linejoin="round"/>
</svg>
