<svg width="32" height="32" viewBox="0 0 32 32" fill="none" xmlns="http://www.w3.org/2000/svg">
<path d="M27.0458 9.90831H23.0292C21.4049 9.90831 20.0834 8.58681 20.0834 6.9625V2.94481C20.0834 1.31575 18.7649 0 17.1386 0H12.9876C11.3452 0 10.0417 1.33281 10.0417 2.94581V21.0208C10.0417 22.6632 11.3746 23.9666 12.9876 23.9666H27.0459C28.692 23.9666 29.9917 22.6298 29.9917 21.0208V12.8542C29.9917 11.2298 28.6702 9.90831 27.0458 9.90831ZM23.8092 13.5075L19.7926 19.5325C19.4383 20.0846 18.5867 20.0844 18.2325 19.5325L16.2241 16.52C15.9369 16.0892 16.0533 15.5071 16.4841 15.2199C16.9149 14.9327 17.4969 15.0491 17.7842 15.4799L19.0125 17.3224L22.2491 12.4674C22.5363 12.0366 23.1184 11.9202 23.5492 12.2074C23.9801 12.4946 24.0965 13.0767 23.8092 13.5075Z" fill="currentColor"/>
<path d="M4.14999 25.0376V8.14624C2.93136 8.49305 2.0083 9.60737 2.0083 10.9792V29.0542C2.0083 30.6785 3.3298 32 4.95411 32H19.0125C20.358 32 21.4949 31.0929 21.8458 29.8583H8.9708C6.31261 29.8584 4.14999 27.6957 4.14999 25.0376Z" fill="currentColor"/>
<path d="M8.16653 21.0208V4.12952C6.9479 4.47639 6.0249 5.59083 6.0249 6.96245V25.0375C6.0249 26.6618 7.3464 27.9833 8.97072 27.9833H23.0291C24.3746 27.9833 25.5115 27.0761 25.8624 25.8416H12.9874C10.3292 25.8416 8.16653 23.679 8.16653 21.0208Z" fill="currentColor"/>
<path d="M21.9583 6.96244C21.9583 7.55288 22.4386 8.03326 23.0291 8.03326H27.0458C27.9576 8.03326 28.811 8.28782 29.5389 8.72951C29.2522 8.04988 28.8344 7.42526 28.2971 6.88801L23.1036 1.69444C22.5665 1.15732 21.9421 0.739631 21.2627 0.452881C21.704 1.18051 21.9583 2.03344 21.9583 2.94476V6.96244H21.9583Z" fill="currentColor"/>
</svg>
