<svg width="32" height="32" viewBox="0 0 32 32" fill="none" xmlns="http://www.w3.org/2000/svg">
<path d="M27.6152 5.85687H22.0134C21.8755 5.85687 21.7637 5.74494 21.7637 5.60687V0L27.6152 5.85687Z" fill="currentColor"/>
<path d="M20.8254 7.73187C20.3085 7.73187 19.8885 7.31187 19.8885 6.79437V0H5.32102C4.80414 0 4.38477 0.42 4.38477 0.9375V13.8988L14.1379 13.8862C15.2267 12.7077 16.6476 11.9452 18.2773 11.9669C19.7141 11.9669 21.1129 12.545 22.116 13.5531C22.4179 13.8531 22.8191 14.0188 23.2466 14.0188H23.2504L27.6135 14.0106V7.73187H20.8254ZM13.3323 9.375H9.06789C8.55102 9.375 8.13102 8.955 8.13102 8.4375C8.13102 7.92 8.55102 7.5 9.06789 7.5H13.3323C13.8491 7.5 14.2685 7.92 14.2685 8.4375C14.2685 8.955 13.8491 9.375 13.3323 9.375ZM13.3323 5.625H9.06789C8.55102 5.625 8.13102 5.205 8.13102 4.6875C8.13102 4.17 8.55102 3.75 9.06789 3.75H13.3323C13.8491 3.75 14.2685 4.17 14.2685 4.6875C14.2685 5.205 13.8491 5.625 13.3323 5.625Z" fill="currentColor"/>
<path d="M22.0099 23.5507C22.0092 23.5507 18.6771 20.2512 18.6771 20.2512C18.5557 20.1311 18.3603 20.1314 18.2397 20.2524C17.8134 20.6799 16.9102 21.5856 16.9083 21.587C15.6334 22.7357 14.2072 23.3426 12.7829 23.3426C11.9909 23.3599 11.126 23.1342 10.4017 22.7395C9.28119 22.1445 8.70125 20.8645 8.98931 19.6245C9.1745 18.7726 9.6915 18.3086 10.323 17.6845C10.8561 17.1476 11.5454 16.4539 12.2392 15.7607L0.920687 15.7789C0.403188 15.7795 0.0010625 16.2001 0.0016875 16.7182L0 24.2845C0.000625 24.802 0.42125 25.2207 0.939313 25.2201L5.23069 25.212L11.5647 31.5251C12.1934 32.152 13.2072 32.157 13.8427 31.5439C14.4902 30.9182 14.4821 29.867 13.8615 29.2195L15.1539 30.507C15.772 31.1301 16.8176 31.147 17.4544 30.5026C18.0887 29.8657 18.0869 28.8357 17.4501 28.202C18.0875 28.8426 19.1375 28.8226 19.7512 28.197C20.3743 27.5795 20.3899 26.532 19.7468 25.8957C20.3639 26.5162 21.3651 26.5188 21.9867 25.9495C22.1715 25.7891 22.3077 25.5912 22.3954 25.3707C22.6491 24.7541 22.4998 24.0099 22.0099 23.5507Z" fill="currentColor"/>
<path d="M31.0131 15.8783L23.2547 15.8933C22.331 15.8952 21.4448 15.5308 20.7911 14.879C19.4643 13.5415 17.2538 13.489 15.9263 14.7715C14.7051 15.9171 11.9134 18.7465 11.0647 19.5977C10.936 19.7277 10.8535 19.8833 10.816 20.0471C10.7235 20.4408 10.8903 20.8765 11.281 21.084C12.7765 21.8777 14.3458 21.3721 15.6532 20.194L17.0363 18.8008C17.75 17.993 19.007 17.935 19.7743 18.6996L23.3016 22.1927C24.7789 23.5176 24.7358 26.131 23.1922 27.3865C22.9497 27.5965 22.6828 27.7708 22.3979 27.9065L24.321 27.9033C26.8083 27.8983 27.3396 25.5083 27.3396 25.5083L31.0319 25.5002C31.5494 25.4996 32.0006 25.079 32 24.5608V16.814C31.9986 16.2965 31.5305 15.8777 31.0131 15.8783Z" fill="currentColor"/>
</svg>
