<svg width="32" height="32" viewBox="0 0 32 32" fill="none" xmlns="http://www.w3.org/2000/svg">
<path d="M6.625 32H25.375C26.9259 32 28.1875 30.7384 28.1875 29.1875V9.375H21.625C20.0741 9.375 18.8125 8.11337 18.8125 6.5625V0H6.625C5.07413 0 3.8125 1.26163 3.8125 2.8125V29.1875C3.8125 30.7384 5.07413 32 6.625 32ZM10.375 13.1875H21.625C22.1432 13.1875 22.5625 13.6068 22.5625 14.125C22.5625 14.6432 22.1432 15.0625 21.625 15.0625H10.375C9.85681 15.0625 9.4375 14.6432 9.4375 14.125C9.4375 13.6068 9.85681 13.1875 10.375 13.1875ZM10.375 16.9375H21.625C22.1432 16.9375 22.5625 17.3568 22.5625 17.875C22.5625 18.3932 22.1432 18.8125 21.625 18.8125H10.375C9.85681 18.8125 9.4375 18.3932 9.4375 17.875C9.4375 17.3568 9.85681 16.9375 10.375 16.9375ZM10.375 20.6875H21.625C22.1432 20.6875 22.5625 21.1068 22.5625 21.625C22.5625 22.1432 22.1432 22.5625 21.625 22.5625H10.375C9.85681 22.5625 9.4375 22.1432 9.4375 21.625C9.4375 21.1068 9.85681 20.6875 10.375 20.6875ZM10.375 24.4375H17.875C18.3932 24.4375 18.8125 24.8568 18.8125 25.375C18.8125 25.8932 18.3932 26.3125 17.875 26.3125H10.375C9.85681 26.3125 9.4375 25.8932 9.4375 25.375C9.4375 24.8568 9.85681 24.4375 10.375 24.4375Z" fill="currentColor"/>
<path d="M21.625 7.49952H27.6382L20.6875 0.548828V6.56202C20.6875 7.07927 21.1077 7.49952 21.625 7.49952Z" fill="currentColor"/>
</svg>
