<svg width="16" height="16" viewBox="0 0 16 16" fill="none" xmlns="http://www.w3.org/2000/svg">
<path d="M15.7708 13.6846C15.7708 13.6846 15.6216 13.6846 15.572 13.6846C15.4631 13.6846 15.4631 13.5558 15.4631 13.5558V4.54239C15.4631 4.31549 15.2774 4.12984 15.0505 4.12984C15.0505 4.12984 12.6569 4.12984 11.859 4.12984C11.7444 4.12984 11.7505 4.0212 11.7505 4.0212V2.28362C11.7505 2.26643 11.7601 2.24713 11.8172 2.24713C11.9432 2.24713 12.0464 2.14399 12.0464 2.01793V1.61084C12.0464 1.48478 11.9432 1.38164 11.8172 1.38164H4.40653C4.28047 1.38164 4.17733 1.48478 4.17733 1.61084V2.01793C4.17733 2.14399 4.28047 2.24713 4.40653 2.24713C4.47313 2.24713 4.47327 2.30681 4.47327 2.31373V3.98114C4.47327 3.98114 4.48459 4.12988 4.38718 4.12988C3.52545 4.12988 0.940392 4.12988 0.940392 4.12988C0.713488 4.12988 0.527839 4.31553 0.527839 4.54244C0.527839 4.54244 0.527839 11.3239 0.527839 13.5845C0.527839 13.6704 0.481266 13.6847 0.387204 13.6847C0.265547 13.6847 0.229196 13.6847 0.229196 13.6847C0.103138 13.6847 0 13.7878 0 13.9139V14.3892C0 14.5152 0.103138 14.6184 0.229196 14.6184H15.7708C15.8969 14.6184 16 14.5152 16 14.3892V13.9139C16 13.7878 15.8969 13.6846 15.7708 13.6846ZM8.98793 6.1062H10.3596C10.4605 6.1062 10.543 6.18871 10.543 6.28955V7.66129C10.543 7.76214 10.4605 7.84465 10.3596 7.84465H8.98793C8.88704 7.84465 8.80457 7.76214 8.80457 7.66129V6.28955C8.80457 6.18871 8.88704 6.1062 8.98793 6.1062ZM8.80457 5.25533V3.88359C8.80457 3.78274 8.88704 3.70023 8.98793 3.70023H10.3596C10.4605 3.70023 10.543 3.78274 10.543 3.88359V5.25533C10.543 5.35618 10.4605 5.43869 10.3596 5.43869H8.98793C8.88704 5.43869 8.80457 5.35618 8.80457 5.25533ZM8.98793 8.42736H10.3596C10.4605 8.42736 10.543 8.50987 10.543 8.61071V9.98245C10.543 10.0833 10.4605 10.1658 10.3596 10.1658H8.98793C8.88704 10.1658 8.80457 10.0833 8.80457 9.98245V8.61071C8.80457 8.50991 8.88704 8.42736 8.98793 8.42736ZM9.1915 11.1851C9.2923 11.1851 9.37486 11.2676 9.37486 11.3685V13.4925C9.37486 13.5933 9.2923 13.6758 9.1915 13.6758H7.06754C6.96674 13.6758 6.88418 13.5933 6.88418 13.4925V11.3685C6.88418 11.2676 6.96674 11.1851 7.06754 11.1851H9.1915ZM7.42151 5.25533C7.42151 5.35618 7.339 5.43869 7.23815 5.43869H5.86641C5.76557 5.43869 5.68306 5.35618 5.68306 5.25533V3.88359C5.68306 3.78274 5.76557 3.70023 5.86641 3.70023H7.23815C7.339 3.70023 7.42151 3.78274 7.42151 3.88359V5.25533ZM5.86641 6.1062H7.23815C7.339 6.1062 7.42151 6.18871 7.42151 6.28955V7.66129C7.42151 7.76214 7.339 7.84465 7.23815 7.84465H5.86641C5.76557 7.84465 5.68306 7.76214 5.68306 7.66129V6.28955C5.68306 6.18871 5.76557 6.1062 5.86641 6.1062ZM5.86641 8.42736H7.23815C7.339 8.42736 7.42151 8.50987 7.42151 8.61071V9.98245C7.42151 10.0833 7.339 10.1658 7.23815 10.1658H5.86641C5.76557 10.1658 5.68306 10.0833 5.68306 9.98245V8.61071C5.68306 8.50991 5.76557 8.42736 5.86641 8.42736ZM12.2905 6.24715C12.2905 6.14631 12.3731 6.0638 12.4739 6.0638H13.8456C13.9464 6.0638 14.029 6.14631 14.029 6.24715V7.61889C14.029 7.71974 13.9464 7.80225 13.8456 7.80225H12.4739C12.3731 7.80225 12.2905 7.71974 12.2905 7.61889V6.24715ZM12.2905 8.65316C12.2905 8.55231 12.3731 8.4698 12.4739 8.4698H13.8456C13.9464 8.4698 14.029 8.55231 14.029 8.65316V10.0249C14.029 10.1257 13.9464 10.2083 13.8456 10.2083H12.4739C12.3731 10.2083 12.2905 10.1257 12.2905 10.0249V8.65316ZM12.2905 10.9743C12.2905 10.8734 12.3731 10.7909 12.4739 10.7909H13.8456C13.9464 10.7909 14.029 10.8734 14.029 10.9743V12.346C14.029 12.4469 13.9464 12.5294 13.8456 12.5294H12.4739C12.3731 12.5294 12.2905 12.4469 12.2905 12.346V10.9743ZM1.96192 6.24715C1.96192 6.14631 2.04443 6.0638 2.14528 6.0638H3.51701C3.61786 6.0638 3.70037 6.14631 3.70037 6.24715V7.61889C3.70037 7.71974 3.61786 7.80225 3.51701 7.80225H2.14528C2.04443 7.80225 1.96192 7.71974 1.96192 7.61889V6.24715ZM1.96192 8.65316C1.96192 8.55231 2.04443 8.4698 2.14528 8.4698H3.51701C3.61786 8.4698 3.70037 8.55231 3.70037 8.65316V10.0249C3.70037 10.1257 3.61786 10.2083 3.51701 10.2083H2.14528C2.04443 10.2083 1.96192 10.1257 1.96192 10.0249V8.65316ZM1.96192 10.9743C1.96192 10.8734 2.04443 10.7909 2.14528 10.7909H3.51701C3.61786 10.7909 3.70037 10.8734 3.70037 10.9743V12.346C3.70037 12.4469 3.61786 12.5294 3.51701 12.5294H2.14528C2.04443 12.5294 1.96192 12.4469 1.96192 12.346V10.9743Z" fill="currentColor"/>
</svg>
