<svg width="24" height="24" viewBox="0 0 24 24" fill="none" xmlns="http://www.w3.org/2000/svg">
<path d="M11.91 20.8425C11.085 20.5125 10.3125 20.01 9.64494 19.35C8.35497 18.0525 7.64246 16.335 7.64246 14.5125C7.64246 12.6825 8.35497 10.965 9.64494 9.67499C12.3149 7.00499 16.6575 7.00499 19.32 9.67499C20.1675 10.515 20.7449 11.52 21.045 12.5925C21.3 11.535 21.435 10.4325 21.435 9.315V4.86751L12 1.23749L2.56494 4.86751V9.315C2.56494 15.1875 6.24747 20.55 11.73 22.6575L12 22.7625L12.2699 22.6575C13.1925 22.305 14.0549 21.8625 14.865 21.3375C14.7375 21.345 14.6099 21.345 14.4825 21.345C13.605 21.345 12.7349 21.18 11.91 20.8425Z" fill="currentColor"/>
<path d="M18.2632 10.7322C17.2543 9.72363 15.9132 9.16772 14.4861 9.16772C13.0593 9.16772 11.7183 9.72363 10.7094 10.7322C9.70044 11.7407 9.14453 13.0825 9.14453 14.5093C9.14453 15.936 9.70044 17.2771 10.7094 18.2864C11.7183 19.2949 13.0593 19.8508 14.4861 19.8508C15.9132 19.8508 17.2543 19.2949 18.2632 18.2864C20.3455 16.2034 20.3455 12.8145 18.2632 10.7322ZM11.7699 17.2258C11.0444 16.5 10.6445 15.5354 10.6445 14.5093C10.6445 13.4832 11.0444 12.5186 11.7699 11.7927C13.2684 10.2957 15.7056 10.2964 17.2026 11.7927C18.7001 13.2905 18.7001 15.7273 17.2026 17.2258C15.7052 18.7229 13.2681 18.7229 11.7699 17.2258Z" fill="currentColor"/>
<path d="M18.2852 19.3729L19.3458 18.3123L21.5642 20.5306L20.5035 21.5913L18.2852 19.3729Z" fill="currentColor"/>
</svg>
