<svg width="16" height="16" viewBox="0 0 16 16" fill="none" xmlns="http://www.w3.org/2000/svg">
<path d="M10.5205 6.33759C11.5813 5.37044 13.0158 4.06241 13.1466 0.9375H14.0938V0H1.90625V0.9375H2.85341C2.98416 4.06241 4.41872 5.37044 5.47953 6.33759C6.19112 6.98637 6.59375 7.38347 6.59375 8C6.59375 8.61653 6.19112 9.01363 5.47953 9.66241C4.41872 10.6296 2.98416 11.9376 2.85341 15.0625H1.90625V16H14.0938V15.0625H13.1466C13.0158 11.9376 11.5813 10.6296 10.5205 9.66241C9.80888 9.01363 9.40625 8.61653 9.40625 8C9.40625 7.38347 9.80888 6.98637 10.5205 6.33759ZM7.53125 11.5137C7.38647 11.5436 7.24344 11.587 7.10384 11.6448L4.23269 12.8329C4.70156 11.6407 5.45675 10.9518 6.11116 10.3552C6.84147 9.68937 7.53125 9.06047 7.53125 8V11.5137ZM9.88884 10.3552C10.5433 10.9518 11.2984 11.6407 11.7673 12.8328L8.89616 11.6447C8.75656 11.587 8.61353 11.5435 8.46875 11.5137V8C8.46875 9.06047 9.15853 9.68937 9.88884 10.3552ZM4.21622 3.125C3.98956 2.53441 3.83303 1.82131 3.79206 0.9375H12.2079C12.1669 1.82131 12.0104 2.53441 11.7837 3.125H4.21622Z" fill="currentColor"/>
</svg>
