<svg width="32" height="32" viewBox="0 0 32 32" fill="none" xmlns="http://www.w3.org/2000/svg">
<path d="M32.0005 21.6567C32.0005 17.6858 29.7224 14.1418 26.3105 12.418C26.2046 20.0317 20.0317 26.2046 12.418 26.3105C14.1418 29.7224 17.6858 32.0005 21.6567 32.0005C23.5186 32.0005 25.3291 31.5046 26.9199 30.5625L31.9553 31.9553L30.5625 26.9199C31.5046 25.3291 32.0005 23.5186 32.0005 21.6567Z" fill="currentColor"/>
<path d="M24.4375 12.2188C24.4375 5.4812 18.9563 0 12.2188 0C5.4812 0 0 5.4812 0 12.2188C0 14.4146 0.584473 16.5525 1.69434 18.4294L0.0449219 24.3923L6.00806 22.7432C7.88501 23.853 10.023 24.4375 12.2188 24.4375C18.9563 24.4375 24.4375 18.9563 24.4375 12.2188ZM10.3438 9.375H8.46875C8.46875 7.30713 10.1509 5.625 12.2188 5.625C14.2866 5.625 15.9688 7.30713 15.9688 9.375C15.9688 10.4246 15.5244 11.4334 14.7493 12.1423L13.1563 13.6003V15.0625H11.2813V12.7747L13.4834 10.759C13.877 10.3989 14.0938 9.90747 14.0938 9.375C14.0938 8.34107 13.2527 7.5 12.2188 7.5C11.1848 7.5 10.3438 8.34107 10.3438 9.375ZM11.2813 16.9375H13.1563V18.8125H11.2813V16.9375Z" fill="currentColor"/>
</svg>
