<svg width="16" height="16" viewBox="0 0 16 16" fill="none" xmlns="http://www.w3.org/2000/svg">
<path d="M13.6829 1.34994C13.4175 1.084 13.0646 0.9375 12.6891 0.9375H12.0658V1.5625C12.0658 2.25175 11.5057 2.8125 10.8172 2.8125H5.19841C4.50991 2.8125 3.94978 2.25175 3.94978 1.5625V0.9375H3.32444C2.55075 0.9375 1.92063 1.56762 1.91975 2.34219L1.90625 14.5922C1.90581 14.9681 2.05175 15.3216 2.31709 15.5876C2.5825 15.8535 2.93544 16 3.31094 16H12.6755C13.4492 16 14.0794 15.3699 14.0802 14.5953L14.0938 2.34531C14.0942 1.96941 13.9483 1.61591 13.6829 1.34994ZM8.15919 5.625H11.4858C11.7444 5.625 11.9541 5.83488 11.9541 6.09375C11.9541 6.35262 11.7444 6.5625 11.4858 6.5625H8.15919C7.9006 6.5625 7.69097 6.35262 7.69097 6.09375C7.69097 5.83488 7.9006 5.625 8.15919 5.625ZM8.15919 8.75H11.4858C11.7444 8.75 11.9541 8.95988 11.9541 9.21875C11.9541 9.47762 11.7444 9.6875 11.4858 9.6875H8.15919C7.9006 9.6875 7.69097 9.47762 7.69097 9.21875C7.69097 8.95988 7.9006 8.75 8.15919 8.75ZM8.15919 11.875H11.4992C11.7578 11.875 11.9674 12.0849 11.9674 12.3438C11.9674 12.6026 11.7578 12.8125 11.4992 12.8125H8.15919C7.9006 12.8125 7.69097 12.6026 7.69097 12.3438C7.69097 12.0849 7.9006 11.875 8.15919 11.875ZM4.16972 5.6435C4.3526 5.46044 4.64903 5.46044 4.83191 5.6435L5.0865 5.89841L6.16631 4.81741C6.34919 4.63437 6.64563 4.63431 6.82847 4.81741C7.01131 5.00044 7.01131 5.29725 6.82847 5.48031L5.41756 6.89275C5.32975 6.98066 5.21066 7.03006 5.08647 7.03006C4.96228 7.03006 4.84319 6.98069 4.75538 6.89275L4.16969 6.30638C3.98684 6.12334 3.98685 5.82653 4.16972 5.6435ZM4.16972 9.00716C4.3526 8.82409 4.64903 8.82409 4.83191 9.00716L5.0865 9.26203L6.16631 8.18103C6.34916 7.998 6.64563 7.998 6.82847 8.18103C7.01131 8.36406 7.01131 8.66088 6.82847 8.84394L5.41756 10.2564C5.32978 10.3443 5.21066 10.3937 5.08647 10.3937C4.96228 10.3937 4.84319 10.3443 4.75538 10.2564L4.16969 9.67003C3.98684 9.487 3.98685 9.19022 4.16972 9.00716ZM4.16972 12.1322C4.3526 11.9491 4.64903 11.9491 4.83191 12.1322L5.0865 12.387L6.16631 11.306C6.34916 11.123 6.64563 11.123 6.82847 11.306C7.01131 11.4891 7.01131 11.7859 6.82847 11.9689L5.41756 13.3814C5.32978 13.4693 5.21066 13.5187 5.08647 13.5187C4.96228 13.5187 4.84319 13.4693 4.75538 13.3814L4.16969 12.795C3.98684 12.612 3.98685 12.3152 4.16972 12.1322Z" fill="currentColor"/>
<path d="M4.88672 1.5625C4.88672 1.73509 5.02647 1.875 5.19888 1.875H10.8176C10.99 1.875 11.1298 1.73509 11.1298 1.5625V0.3125C11.1298 0.139906 10.99 0 10.8176 0H5.19888C5.02647 0 4.88672 0.139906 4.88672 0.3125V1.5625Z" fill="currentColor"/>
</svg>
