<svg width="32" height="32" viewBox="0 0 32 32" fill="none" xmlns="http://www.w3.org/2000/svg">
<path d="M29.1919 13.2862L16.7114 0.8039C15.9753 0.069648 14.7846 0.0783355 14.0582 0.802962C13.3276 1.5354 13.3276 2.72465 14.0582 3.45615L26.5405 15.9376C27.2718 16.6689 28.4606 16.6689 29.1919 15.9376C29.9251 15.2044 29.9251 14.0194 29.1919 13.2862Z" fill="currentColor"/>
<path d="M13.1323 5.18164L13.0384 5.65252C12.3767 8.9624 10.7686 12.1068 8.59351 14.6554L15.384 21.4459C17.9322 19.2712 21.0333 17.6199 24.3433 16.9574L24.8151 16.8635L13.1323 5.18164Z" fill="currentColor"/>
<path d="M7.3485 16.0618L2.70768 20.7017C1.61112 21.7982 1.60655 23.5785 2.70768 24.6796L5.35906 27.331C6.45563 28.4275 8.23588 28.432 9.33701 27.331L13.9774 22.6906L7.3485 16.0618ZM8.01138 23.354C7.64519 23.7202 7.05188 23.7202 6.68569 23.354C6.3195 22.9878 6.3195 22.3945 6.68569 22.0283L8.01138 20.7026C8.37757 20.3364 8.97088 20.3364 9.33707 20.7026C9.70326 21.0688 9.70326 21.6621 9.33707 22.0283L8.01138 23.354Z" fill="currentColor"/>
<path d="M17.8916 27.8298L19.1669 26.5545C20.2681 25.4535 20.2645 23.6733 19.167 22.5776L18.2197 21.6296C17.6962 21.9813 17.1962 22.3635 16.71 22.7712L17.8413 23.9041C18.2066 24.2676 18.2092 24.8591 17.8413 25.2289L16.5449 26.5253L14.6398 24.6795L11.9883 27.331L16.2419 31.4527C16.9677 32.1804 18.1595 32.1845 18.8923 31.4517C19.6238 30.7202 19.6238 29.531 18.8923 28.7994L17.8916 27.8298Z" fill="currentColor"/>
<path d="M21.679 0C21.1608 0 20.7415 0.419313 20.7415 0.937502V2.81251C20.7415 3.33069 21.1608 3.75001 21.679 3.75001C22.1971 3.75001 22.6165 3.33069 22.6165 2.81251V0.937502C22.6165 0.419313 22.1971 0 21.679 0Z" fill="currentColor"/>
<path d="M29.179 7.5H27.304C26.7858 7.5 26.3665 7.91931 26.3665 8.4375C26.3665 8.95569 26.7858 9.375 27.304 9.375H29.179C29.6971 9.375 30.1165 8.95569 30.1165 8.4375C30.1165 7.91931 29.6971 7.5 29.179 7.5Z" fill="currentColor"/>
<path d="M27.9668 2.14964C27.6006 1.78345 27.0073 1.78345 26.6411 2.14964L24.7661 4.02464C24.3999 4.39083 24.3999 4.98415 24.7661 5.35034C25.1323 5.71652 25.7256 5.71659 26.0918 5.35034L27.9668 3.47533C28.333 3.10914 28.333 2.51583 27.9668 2.14964Z" fill="currentColor"/>
</svg>
