<svg width="16" height="16" viewBox="0 0 16 16" fill="none" xmlns="http://www.w3.org/2000/svg">
<path d="M2.07059 13.9922H1.44314C1.18337 13.9922 0.972549 13.7813 0.972549 13.5216C0.972549 13.2618 1.18337 13.051 1.44314 13.051H2.07059V11.9843H1.44314C1.18337 11.9843 0.972549 11.7735 0.972549 11.5137C0.972549 11.254 1.18337 11.0431 1.44314 11.0431H2.07059V9.97647H1.44314C1.18337 9.97647 0.972549 9.76565 0.972549 9.50588C0.972549 9.24612 1.18337 9.03529 1.44314 9.03529H2.07059V7.02745H0.470588C0.210824 7.02745 0 7.23827 0 7.49804V15.5294C0 15.7892 0.210824 16 0.470588 16H2.07194C2.07015 15.3744 2.07059 15.7818 2.07059 13.9922Z" fill="currentColor"/>
<path d="M9.85139 0.470588C9.85139 0.210824 9.64057 0 9.38081 0H5.36512C5.10535 0 4.89453 0.210824 4.89453 0.470588V1.06667H9.85139V0.470588Z" fill="currentColor"/>
<path d="M12.7685 6.27451C10.9868 6.27451 9.53711 7.72424 9.53711 9.50588C9.53711 10.9327 11.4653 12.9788 12.4532 13.8711C12.6326 14.0323 12.904 14.0326 13.0838 13.8711C14.0946 12.9581 15.9999 10.9246 15.9999 9.50588C15.9999 7.72424 14.5501 6.27451 12.7685 6.27451ZM13.5214 9.97647H12.0155C11.7558 9.97647 11.545 9.76565 11.545 9.50588C11.545 9.24612 11.7558 9.0353 12.0155 9.0353H13.5214C13.7812 9.0353 13.992 9.24612 13.992 9.50588C13.992 9.76565 13.7812 9.97647 13.5214 9.97647Z" fill="currentColor"/>
<path d="M15.5294 15.0588H11.7333V14.4875C10.454 13.2931 8.59603 11.251 8.59603 9.50588C8.59603 7.56235 9.93156 5.92502 11.7333 5.46353V2.47843C11.7333 2.21867 11.5225 2.00784 11.2627 2.00784H3.48231C3.22254 2.00784 3.01172 2.21867 3.01172 2.47843V16H15.5294C15.7893 16 16 15.7893 16 15.5294C16 15.2695 15.7893 15.0588 15.5294 15.0588ZM8.50191 3.01176H9.25486C9.51462 3.01176 9.72544 3.22259 9.72544 3.48235C9.72544 3.74212 9.51462 3.95294 9.25486 3.95294H8.50191C8.24215 3.95294 8.03133 3.74212 8.03133 3.48235C8.03133 3.22259 8.24215 3.01176 8.50191 3.01176ZM6.24309 11.9843H5.49015C5.23039 11.9843 5.01956 11.7735 5.01956 11.5137C5.01956 11.254 5.23039 11.0431 5.49015 11.0431H6.24309C6.50286 11.0431 6.71368 11.254 6.71368 11.5137C6.71368 11.7735 6.50286 11.9843 6.24309 11.9843ZM6.24309 9.97647H5.49015C5.23039 9.97647 5.01956 9.76565 5.01956 9.50588C5.01956 9.24612 5.23039 9.03529 5.49015 9.03529H6.24309C6.50286 9.03529 6.71368 9.24612 6.71368 9.50588C6.71368 9.76565 6.50286 9.97647 6.24309 9.97647ZM6.24309 7.96863H5.49015C5.23039 7.96863 5.01956 7.7578 5.01956 7.49804C5.01956 7.23827 5.23039 7.02745 5.49015 7.02745H6.24309C6.50286 7.02745 6.71368 7.23827 6.71368 7.49804C6.71368 7.7578 6.50286 7.96863 6.24309 7.96863ZM6.24309 5.96078H5.49015C5.23039 5.96078 5.01956 5.74996 5.01956 5.4902C5.01956 5.23043 5.23039 5.01961 5.49015 5.01961H6.24309C6.50286 5.01961 6.71368 5.23043 6.71368 5.4902C6.71368 5.74996 6.50286 5.96078 6.24309 5.96078ZM6.24309 3.95294H5.49015C5.23039 3.95294 5.01956 3.74212 5.01956 3.48235C5.01956 3.22259 5.23039 3.01176 5.49015 3.01176H6.24309C6.50286 3.01176 6.71368 3.22259 6.71368 3.48235C6.71368 3.74212 6.50286 3.95294 6.24309 3.95294ZM8.03133 5.4902C8.03133 5.23043 8.24215 5.01961 8.50191 5.01961H9.25486C9.51462 5.01961 9.72544 5.23043 9.72544 5.4902C9.72544 5.74996 9.51462 5.96078 9.25486 5.96078H8.50191C8.24215 5.96078 8.03133 5.74996 8.03133 5.4902Z" fill="currentColor"/>
</svg>
