<svg width="32" height="32" viewBox="0 0 32 32" fill="none" xmlns="http://www.w3.org/2000/svg">
<path d="M4.9375 17.9137H7.78956V20.0189H4.9375V17.9137Z" fill="currentColor"/>
<path d="M30.104 12.3373H1.8966C0.862602 12.3373 0.0244141 13.1755 0.0244141 14.2095V30.1279C0.0244141 31.1618 0.862602 32 1.8966 32H30.104C31.138 32 31.9762 31.1618 31.9762 30.1278V14.2095C31.9762 13.1755 31.138 12.3373 30.104 12.3373ZM7.57504 27.9376H2.94116V26.0654H7.57504V27.9376ZM9.66216 20.331C9.66216 21.1912 8.96229 21.8911 8.10204 21.8911H4.62585C3.7656 21.8911 3.06573 21.1912 3.06573 20.331V17.6017C3.06573 16.7415 3.7656 16.0416 4.62585 16.0416H8.10198C8.96223 16.0416 9.6621 16.7415 9.6621 17.6017L9.66216 20.331ZM14.7365 27.9376H10.1026V26.0654H14.7365V27.9376ZM21.898 27.9376H17.2641V26.0654H21.898V27.9376ZM29.0594 27.9376H24.4255V26.0654H29.0594V27.9376Z" fill="currentColor"/>
<path d="M25.1567 4.5479L21.1572 0.548405C20.4261 -0.18272 19.2407 -0.18272 18.5095 0.548405L8.59277 10.4652H19.5775L25.1567 4.5479Z" fill="currentColor"/>
<path d="M25.0424 10.4651L27.9699 7.36031L26.4819 5.87231L22.1514 10.4651H25.0424Z" fill="currentColor"/>
<path d="M30.1039 10.4651C30.506 10.4651 30.8933 10.5296 31.2567 10.6475L29.2939 8.68475L27.6152 10.4652L30.1039 10.4651Z" fill="currentColor"/>
</svg>
