<svg width="32" height="32" viewBox="0 0 32 32" fill="none" xmlns="http://www.w3.org/2000/svg">
<path d="M20.8878 6.1369V8.09939C20.8878 9.65023 19.6261 10.912 18.0753 10.912H8.03334C6.48249 10.912 5.22078 9.65023 5.22078 8.09939V6.13696C3.98625 6.48791 3.0791 7.62487 3.0791 8.97041V29.0542C3.0791 30.6785 4.40063 32.0001 6.02498 32.0001H20.0837C21.708 32.0001 23.0296 30.6785 23.0296 29.0542V8.97034C23.0296 7.62481 22.1224 6.48785 20.8878 6.1369ZM9.03755 26.9791C8.52004 26.9791 8.10003 26.5591 8.10003 26.0416C8.10003 25.524 8.52004 25.104 9.03755 25.104C9.55507 25.104 9.97508 25.524 9.97508 26.0416C9.97508 26.5591 9.55507 26.9791 9.03755 26.9791ZM9.03755 22.9623C8.52004 22.9623 8.10003 22.5423 8.10003 22.0248C8.10003 21.5073 8.52004 21.0873 9.03755 21.0873C9.55507 21.0873 9.97508 21.5073 9.97508 22.0248C9.97508 22.5423 9.55507 22.9623 9.03755 22.9623ZM13.0543 26.9791C12.5368 26.9791 12.1168 26.5591 12.1168 26.0416C12.1168 25.524 12.5368 25.104 13.0543 25.104C13.5718 25.104 13.9919 25.524 13.9919 26.0416C13.9919 26.5591 13.5718 26.9791 13.0543 26.9791ZM13.0543 22.9623C12.5368 22.9623 12.1168 22.5423 12.1168 22.0248C12.1168 21.5073 12.5368 21.0873 13.0543 21.0873C13.5718 21.0873 13.9919 21.5073 13.9919 22.0248C13.9919 22.5423 13.5718 22.9623 13.0543 22.9623ZM17.0711 26.9791C16.5535 26.9791 16.1335 26.5591 16.1335 26.0416C16.1335 25.524 16.5535 25.104 17.0711 25.104C17.5886 25.104 18.0086 25.524 18.0086 26.0416C18.0086 26.5591 17.5886 26.9791 17.0711 26.9791ZM17.0711 22.9623C16.5535 22.9623 16.1335 22.5423 16.1335 22.0248C16.1335 21.5073 16.5535 21.0873 17.0711 21.0873C17.5886 21.0873 18.0086 21.5073 18.0086 22.0248C18.0086 22.5423 17.5886 22.9623 17.0711 22.9623ZM19.0128 18.0081C19.0128 18.5258 18.593 18.9456 18.0753 18.9456H8.03334C7.51558 18.9456 7.09582 18.5258 7.09582 18.0081V13.9912C7.09582 13.4734 7.51558 13.0537 8.03334 13.0537H18.0753C18.593 13.0537 19.0128 13.4734 19.0128 13.9912V18.0081Z" fill="currentColor"/>
<path d="M8.9707 14.9287H17.1376V17.0705H8.9707V14.9287Z" fill="currentColor"/>
<path d="M24.9041 1.87427C23.2564 1.87427 21.8411 2.86685 21.2217 4.28639C23.3322 4.79946 24.9041 6.70426 24.9041 8.97037V17.5832L25.975 17.0478L27.5641 17.8424C27.9241 18.0222 28.3677 17.9555 28.6606 17.6527C28.8324 17.4751 28.9209 17.2329 28.9209 16.9859V5.89099C28.9209 3.67262 27.1225 1.87427 24.9041 1.87427Z" fill="currentColor"/>
<path d="M8.03322 9.03696H18.0751C18.5929 9.03696 19.0127 8.6172 19.0127 8.09944V5.89101C19.0127 2.80707 21.3945 0.269319 24.4151 0.0197505L12.4913 0C9.47395 0.252881 7.0957 2.78894 7.0957 5.87051V8.07894V8.09944C7.0957 8.6172 7.51546 9.03696 8.03322 9.03696Z" fill="currentColor"/>
</svg>
