<svg width="32" height="32" viewBox="0 0 32 32" fill="none" xmlns="http://www.w3.org/2000/svg">
<path d="M10.666 10.6666C16.7707 10.6666 21.3321 8.25329 21.3321 6.09544C21.3321 3.93779 16.7706 1.52441 10.666 1.52441C4.56147 1.52441 0 3.93779 0 6.09544C0 8.25329 4.56137 10.6666 10.666 10.6666Z" fill="currentColor"/>
<path d="M10.666 28.9517C11.557 28.9517 12.4146 28.8999 13.2304 28.8055C12.5428 27.9218 11.9741 26.9411 11.5481 25.888C11.2554 25.8978 10.9617 25.9046 10.6659 25.9046C7.17774 25.9046 3.87436 25.2134 1.36457 23.9585C0.870395 23.7114 0.41564 23.4459 0 23.1649V24.3806C0 26.5383 4.56137 28.9517 10.666 28.9517Z" fill="currentColor"/>
<path d="M10.6661 22.8566C10.6974 22.8566 10.7282 22.8561 10.7594 22.856C10.6969 22.3566 10.6643 21.8479 10.6643 21.3317C10.6643 20.8158 10.6968 20.3074 10.7594 19.8084C10.7282 19.8084 10.6973 19.8095 10.6661 19.8095C7.17794 19.8095 3.87467 19.1183 1.36477 17.8634C0.870497 17.6163 0.41564 17.3508 0 17.0699V18.2855C0.000101599 20.4433 4.56147 22.8566 10.6661 22.8566Z" fill="currentColor"/>
<path d="M10.6661 16.7614C10.9685 16.7614 11.2668 16.7553 11.5613 16.7438C12.0344 15.5832 12.6808 14.5112 13.469 13.5606C12.5565 13.6612 11.6186 13.7145 10.6661 13.7145C7.17794 13.7145 3.87467 13.0233 1.36477 11.7684C0.870497 11.5212 0.41564 11.2558 0 10.9748V12.1905C0.000101599 14.3483 4.56147 16.7614 10.6661 16.7614Z" fill="currentColor"/>
<path d="M15.2376 16.2806C14.5782 17.2719 14.1071 18.3985 13.8754 19.6092C13.7684 20.1673 13.7119 20.743 13.7119 21.3318C13.7119 21.7745 13.7442 22.2097 13.8053 22.6357C13.9553 23.6823 14.2832 24.6719 14.7573 25.5733C15.2547 26.5193 15.9127 27.3682 16.6954 28.0829C18.3217 29.5684 20.4848 30.4757 22.8558 30.4757C27.8977 30.4757 31.9997 26.3737 31.9997 21.3318C31.9997 16.2898 27.8977 12.1879 22.8558 12.1879C22.3347 12.1879 21.8237 12.2324 21.3261 12.3166C18.7914 12.7452 16.6083 14.2203 15.2376 16.2806Z" fill="currentColor"/>
</svg>
