<svg width="32" height="32" viewBox="0 0 32 32" fill="none" xmlns="http://www.w3.org/2000/svg">
<path d="M11.458 4.66538V1.875H20.5415V4.66538H22.4165V0.9375C22.4165 0.41975 21.9968 0 21.479 0H10.5205C10.0028 0 9.58301 0.41975 9.58301 0.9375V4.66538H11.458Z" fill="currentColor"/>
<path d="M30.52 16.0939C30.002 16.917 29.1121 17.4084 28.1396 17.4084H23.195C22.9795 17.9945 22.6145 18.44 22.3626 18.7473C22.3029 18.8201 22.2191 18.9222 22.1713 18.9877C22.1565 19.0732 22.1412 19.2186 22.1304 19.3214C22.0778 19.8218 22.0032 20.5279 21.585 21.1764V27.8438H31.0624C31.5801 27.8438 31.9999 27.4241 31.9999 26.9063V13.7424L30.52 16.0939Z" fill="currentColor"/>
<path d="M10.4149 21.1764C9.99663 20.5278 9.92206 19.8217 9.86944 19.3213C9.85862 19.2184 9.84331 19.0731 9.82862 18.9876C9.78075 18.9222 9.697 18.82 9.63731 18.7473C9.38538 18.44 9.02044 17.9945 8.80488 17.4084H3.83912C2.86306 17.4084 1.9715 16.9143 1.45419 16.0866L0 13.7599V26.9064C0 27.4241 0.41975 27.8439 0.9375 27.8439H10.4149V21.1764Z" fill="currentColor"/>
<path d="M31.0625 6.54041H0.9375C0.41975 6.54041 0 6.96016 0 7.47791V10.2222L3.04413 15.0928C3.21544 15.3669 3.51587 15.5334 3.83912 15.5334H8.77094C8.98019 14.8989 9.37162 14.4211 9.63744 14.0969C9.69706 14.0242 9.78088 13.922 9.82869 13.8565C9.84344 13.7711 9.85881 13.6257 9.86956 13.5228C9.935 12.9007 10.0339 11.9603 10.7859 11.2082C11.5382 10.456 12.4786 10.357 13.1008 10.2917C13.2036 10.2808 13.3491 10.2655 13.4345 10.2508C13.5 10.203 13.6022 10.1192 13.6749 10.0595C14.1361 9.6814 14.9079 9.04847 16.0001 9.04847C17.0922 9.04847 17.8641 9.68134 18.3252 10.0595C18.3979 10.1192 18.5002 10.203 18.5656 10.2508C18.6511 10.2655 18.7965 10.2808 18.8994 10.2917C19.5216 10.3571 20.4619 10.456 21.2141 11.2082C21.9663 11.9604 22.0652 12.9008 22.1306 13.5231C22.1414 13.6259 22.1568 13.7713 22.1714 13.8567C22.2193 13.9222 22.3031 14.0243 22.3627 14.097C22.6285 14.4212 23.0199 14.899 23.2292 15.5335H28.1399C28.4621 15.5335 28.7617 15.368 28.9333 15.0953L32 10.2222V7.47784C32 6.96009 31.5802 6.54041 31.0625 6.54041Z" fill="currentColor"/>
<path d="M18.8983 22.5526C18.7954 22.5635 18.65 22.5788 18.5646 22.5935C18.4991 22.6413 18.3969 22.7251 18.3242 22.7848C18.0084 23.0437 17.5468 23.4221 16.9365 23.6349V31.17L18.5806 31.9263C19.1079 32.1688 19.7091 31.7836 19.7091 31.2032V22.4314C19.4118 22.4986 19.1325 22.528 18.8983 22.5526Z" fill="currentColor"/>
<path d="M15.0617 23.6349C14.4514 23.4221 13.9898 23.0437 13.6741 22.7848C13.6013 22.7251 13.4991 22.6413 13.4336 22.5935C13.3482 22.5787 13.2027 22.5635 13.0999 22.5526C12.8657 22.528 12.5864 22.4985 12.2891 22.4314V31.2031C12.2891 31.7835 12.8903 32.1688 13.4176 31.9262L15.0617 31.1699V23.6349Z" fill="currentColor"/>
<path d="M21.4983 16.4221C21.4983 17.1203 20.6869 17.6521 20.4352 18.2592C20.1742 18.8886 20.362 19.836 19.8878 20.3103C19.4135 20.7846 18.466 20.5967 17.8367 20.8576C17.2296 21.1094 16.6978 21.9208 15.9997 21.9208C15.3015 21.9208 14.7697 21.1094 14.1626 20.8576C13.5332 20.5966 12.5858 20.7845 12.1115 20.3103C11.6372 19.836 11.8251 18.8885 11.5641 18.2592C11.3124 17.6521 10.501 17.1203 10.501 16.4221C10.501 15.724 11.3124 15.1921 11.5641 14.5851C11.8251 13.9557 11.6372 13.0083 12.1115 12.534C12.5858 12.0596 13.5332 12.2475 14.1625 11.9866C14.7697 11.7348 15.3015 10.9235 15.9996 10.9235C16.6977 10.9235 17.2296 11.7348 17.8367 11.9866C18.466 12.2476 19.4135 12.0597 19.8878 12.534C20.362 13.0083 20.1742 13.9557 20.4352 14.585C20.6869 15.1921 21.4983 15.724 21.4983 16.4221Z" fill="currentColor"/>
</svg>
