<svg width="32" height="32" viewBox="0 0 32 32" fill="none" xmlns="http://www.w3.org/2000/svg">
<path d="M31.9995 15.6743L15.6113 32H31.9995V15.6743ZM28.187 28.25H24.665L28.187 24.7279V28.25Z" fill="currentColor"/>
<path d="M22.5625 22.3979L24.6556 20.3048L22.5625 19.956V22.3979Z" fill="currentColor"/>
<path d="M16.9375 18.2461C19.2052 17.1749 20.6875 14.8687 20.6875 12.3125V11.375H7.5625V11.9939C7.5625 14.6636 9.03375 17.0751 11.2869 18.2021V20.0469C11.4022 21.4165 12.6711 22.625 14.125 22.625C15.5789 22.625 16.8194 21.4925 16.9375 20.0469V18.2461Z" fill="currentColor"/>
<path d="M7.5625 26.375H18.5854L20.6875 24.2729V19.6435L18.7997 19.3289V20.1228C18.5992 22.6112 16.5475 24.5 14.125 24.5C11.7025 24.5 9.65081 22.6112 9.45306 20.1989L9.45181 19.3301L7.5625 19.6444V26.375Z" fill="currentColor"/>
<path d="M3.8125 29.1875C3.8125 27.9669 4.59863 26.936 5.6875 26.5477V19.9562L2.36112 20.4992C0.993375 20.7234 0 21.8935 0 23.2814V32H3.8125V29.1875Z" fill="currentColor"/>
<path d="M5.6875 29.1875V32H12.9604L16.7104 28.25H6.625C6.10775 28.25 5.6875 28.6702 5.6875 29.1875Z" fill="currentColor"/>
<path d="M22.5625 9.5V7.625H20.6875V6.5625C20.6875 3.97794 18.5846 1.875 16 1.875H15.0625V0H13.1875V1.875H12.25C9.66544 1.875 7.5625 3.97794 7.5625 6.5625V7.625H5.6875V9.5C6.18738 9.5 22.752 9.5 22.5625 9.5Z" fill="currentColor"/>
</svg>
