<svg width="32" height="32" viewBox="0 0 32 32" fill="none" xmlns="http://www.w3.org/2000/svg">
<path d="M18.0967 24.2284H7.4383C7.01821 24.2284 6.67773 24.5689 6.67773 24.989V30.3181C6.67773 30.7382 7.01821 31.0787 7.4383 31.0787H18.0967C18.5168 31.0787 18.8572 30.7382 18.8572 30.3181V24.9891C18.8572 24.569 18.5168 24.2284 18.0967 24.2284Z" fill="currentColor"/>
<path d="M31.2394 24.2284H20.5809C20.1608 24.2284 19.8203 24.5689 19.8203 24.989V30.3181C19.8203 30.7382 20.1608 31.0787 20.5809 31.0787H31.2394C31.6595 31.0787 31.9999 30.7382 31.9999 30.3181V24.9891C31.9999 24.569 31.6595 24.2284 31.2394 24.2284Z" fill="currentColor"/>
<path d="M7.4383 15.5406H18.0967C18.5168 15.5406 18.8572 15.2001 18.8572 14.78V9.451C18.8572 9.0309 18.5168 8.69043 18.0967 8.69043H7.4383C7.01821 8.69043 6.67773 9.0309 6.67773 9.451V14.78C6.67773 15.2 7.01821 15.5406 7.4383 15.5406Z" fill="currentColor"/>
<path d="M31.2394 8.69019H20.5809C20.1608 8.69019 19.8203 9.03066 19.8203 9.45075V14.7798C19.8203 15.1999 20.1608 15.5403 20.5809 15.5403H31.2394C31.6595 15.5403 31.9999 15.1999 31.9999 14.7798V9.45075C31.9999 9.03076 31.6595 8.69019 31.2394 8.69019Z" fill="currentColor"/>
<path d="M13.8455 7.77148H24.504C24.9241 7.77148 25.2646 7.43101 25.2646 7.01092V1.68189C25.2646 1.2618 24.9241 0.921326 24.504 0.921326H13.8455C13.4254 0.921326 13.085 1.2618 13.085 1.68189V7.01092C13.085 7.4309 13.4254 7.77148 13.8455 7.77148Z" fill="currentColor"/>
<path d="M13.3057 17.2199V22.5491C13.3057 22.9692 13.6461 23.3097 14.0662 23.3097H24.7246C25.1447 23.3097 25.4852 22.9692 25.4852 22.5491V17.2199C25.4852 16.7998 25.1447 16.4593 24.7246 16.4593H14.0662C13.6461 16.4592 13.3057 16.7998 13.3057 17.2199Z" fill="currentColor"/>
<path d="M12.1796 22.5491V17.2199C12.1796 16.7998 11.8391 16.4593 11.419 16.4593H0.760566C0.340471 16.4593 0 16.7998 0 17.2199V22.5491C0 22.9692 0.340471 23.3097 0.760566 23.3097H11.419C11.8391 23.3098 12.1796 22.9692 12.1796 22.5491Z" fill="currentColor"/>
</svg>
