<svg width="24" height="24" viewBox="0 0 24 24" fill="none" xmlns="http://www.w3.org/2000/svg">
<path d="M10 6.3C8.6 4 7 2 7 2C7 2 2 8.2 2 11C2 13.4 3.7 15.5 6 15.9C6 15.7 6 15.4 6 15.2C6 12.8 8 9.2 10 6.3Z" fill="currentColor"/>
<path d="M15 3C15 3 8 11.5 8 15.2C8 18.9 11.1 22 15 22C18.9 22 22 19 22 15.2C22 11.4 15 3 15 3ZM19.9 16.3C19.9 16.6 19.7 16.9 19.6 17.2C19.4 17.4 19.3 17.7 19.1 17.9C18.9 18.1 18.7 18.3 18.5 18.4C18.1 18.7 17.6 18.8 17.3 18.9C16.9 19 16.6 18.9 16.4 18.9C16.2 18.9 16.1 18.8 16.1 18.8C16.1 18.8 16.6 18.3 16.8 18.1C19.2 16.1 18.8 12.9 18.8 12.9C18.8 12.9 18.9 13 19.1 13.1C19.3 13.3 19.5 13.5 19.7 13.9C19.9 14.3 20.1 14.8 20.1 15.3C20 15.7 20 16 19.9 16.3Z" fill="currentColor"/>
</svg>
