<svg width="24" height="24" viewBox="0 0 24 24" fill="none" xmlns="http://www.w3.org/2000/svg">
<path fill-rule="evenodd" clip-rule="evenodd" d="M3.80984 10.342L2.7469 11.1174C2.41174 11.3621 1.94251 11.2892 1.69764 10.9538C1.45414 10.6197 1.52666 10.1509 1.86182 9.90623L10.7347 3.42841C11.5254 2.85101 12.5979 2.85101 13.3886 3.42841L22.2614 9.90623C22.5966 10.1509 22.6691 10.6197 22.4256 10.9538C22.1807 11.2892 21.7115 11.3621 21.3763 11.1174L20.3517 10.3681V18.6909C20.3517 19.9694 19.3339 20.9936 18.0931 20.9936H6.06704C5.46648 20.9936 4.88783 20.7489 4.46239 20.3117C4.04515 19.8814 3.80984 19.2985 3.80984 18.6909V10.342ZM8.23806 12.7973C9.2066 11.7291 10.6047 11.0569 12.1587 11.0569C13.7128 11.0569 15.1123 11.7291 16.0794 12.7973C16.3585 13.1039 16.8332 13.1273 17.1396 12.8496C17.4461 12.5705 17.4693 12.0962 17.1916 11.7896C15.9495 10.419 14.1547 9.55704 12.1587 9.55704C10.1642 9.55704 8.36939 10.419 7.12725 11.7896C6.84818 12.0962 6.87279 12.5705 7.17922 12.8496C7.48566 13.1273 7.96036 13.1039 8.23806 12.7973ZM10.3885 14.8347C10.8085 14.3233 11.446 13.9975 12.1587 13.9975C12.8728 13.9975 13.509 14.3233 13.9289 14.8347C14.1916 15.155 14.6649 15.2018 14.985 14.9392C15.3051 14.6766 15.3517 14.2037 15.089 13.8834C14.3941 13.0365 13.3393 12.4976 12.1587 12.4976C10.9795 12.4976 9.92479 13.0365 9.22985 13.8834C8.96719 14.2037 9.01371 14.6766 9.33382 14.9392C9.65393 15.2018 10.1259 15.155 10.3885 14.8347ZM11.0342 16.3071C11.0342 16.9271 11.5377 17.4316 12.1587 17.4316C12.7798 17.4316 13.2846 16.9271 13.2846 16.3071C13.2846 15.6857 12.7798 15.1811 12.1587 15.1811C11.5377 15.1811 11.0342 15.6857 11.0342 16.3071Z" fill="currentColor"/>
</svg>
