<svg width="24" height="24" viewBox="0 0 24 24" fill="none" xmlns="http://www.w3.org/2000/svg">
<path d="M17.1448 17.1447C15.7707 18.5188 13.9436 19.2756 12.0004 19.2756C10.0571 19.2756 8.23001 18.5188 6.85587 17.1447C6.61418 16.903 6.39359 16.6481 6.1931 16.3828H3.53027C3.94863 16.8159 4.53363 17.4163 4.53363 17.4163L6.00298 20.2394L9.14173 20.7661L11.9896 22.187L14.8387 20.7689L17.9765 20.2423L19.451 17.4226C19.451 17.4226 20.0398 16.818 20.4597 16.3828H17.8075C17.6071 16.6481 17.3865 16.903 17.1448 17.1447Z" fill="currentColor"/>
<path d="M6.8557 6.85533C8.22984 5.48119 10.0569 4.72439 12.0002 4.72439C13.9435 4.72439 15.7705 5.48119 17.1447 6.85533C17.3864 7.09702 17.607 7.35188 17.8074 7.61719H20.4568C20.0385 7.18407 19.4535 6.58374 19.4535 6.58374L17.9841 3.76064L14.8454 3.23391L11.9975 1.81299L9.14831 3.2311L6.0105 3.75774L4.53605 6.57736C4.53605 6.57736 3.9472 7.182 3.52734 7.61719H6.19298C6.39342 7.35188 6.61402 7.09702 6.8557 6.85533Z" fill="currentColor"/>
<path d="M12.0001 6.08398C10.4199 6.08398 8.93429 6.69936 7.81688 7.81677C5.51026 10.1234 5.51026 13.8766 7.81688 16.1833C8.93429 17.3007 10.4199 17.9161 12.0001 17.9161C13.5804 17.9161 15.066 17.3007 16.1834 16.1833C18.49 13.8766 18.49 10.1234 16.1834 7.81677C15.066 6.69936 13.5804 6.08398 12.0001 6.08398ZM11.0759 14.8794L8.65721 12.4607L9.65157 11.4664L11.0759 12.8907L14.3487 9.61784L15.3431 10.6122L11.0759 14.8794Z" fill="currentColor"/>
<path d="M18.6689 8.97656C19.535 10.8925 19.535 13.1072 18.6689 15.0231H24.0001L23.0783 11.9998L24.0001 8.97656H18.6689Z" fill="currentColor"/>
<path d="M5.33119 8.97656H0L0.876516 11.9998L0 15.0231H5.33119C4.46517 13.1072 4.46513 10.8924 5.33119 8.97656Z" fill="currentColor"/>
</svg>
