<svg width="24" height="24" viewBox="0 0 24 24" fill="none" xmlns="http://www.w3.org/2000/svg">
<path d="M21.8991 5.25302L22.3922 4.75996C22.6665 4.48561 22.6665 4.04084 22.3922 3.76649C22.1179 3.49214 21.673 3.49214 21.3987 3.76649L20.6006 4.56462H19.0516L20.3725 3.24365C20.6469 2.9693 20.6469 2.52453 20.3725 2.25018C20.0982 1.97579 19.6534 1.97583 19.3791 2.25018L18.0581 3.57115V1.994L18.8421 1.20997C19.1165 0.935624 19.1165 0.490851 18.8421 0.216503C18.5678 -0.0578448 18.123 -0.0578448 17.8487 0.216503L17.3556 0.709561L16.8625 0.216503C16.5882 -0.0578448 16.1434 -0.0578448 15.8691 0.216503C15.5947 0.490851 15.5947 0.935624 15.8691 1.20997L16.6531 1.994V3.57115L15.3321 2.25018C15.0578 1.97579 14.613 1.97579 14.3387 2.25018C14.0643 2.52453 14.0643 2.9693 14.3387 3.24365L15.6596 4.56462H14.1106L13.3125 3.76649C13.0382 3.49214 12.5934 3.49214 12.319 3.76649C12.0447 4.04084 12.0447 4.48561 12.319 4.75996L12.8121 5.25302L12.319 5.74608C12.0447 6.02043 12.0447 6.4652 12.319 6.73955C12.4562 6.87672 12.636 6.94528 12.8158 6.94528C12.9956 6.94528 13.1754 6.87672 13.3125 6.73955L14.0824 5.96961H15.6596L14.3386 7.29058C14.0643 7.56493 14.0643 8.0097 14.3386 8.28405C14.4758 8.42123 14.6556 8.48984 14.8353 8.48984C15.0151 8.48984 15.1949 8.42123 15.3321 8.28405L16.6531 6.96308V8.51208L15.869 9.29611C15.5947 9.57046 15.5947 10.0152 15.869 10.2896C16.0062 10.4268 16.1859 10.4954 16.3657 10.4954C16.5455 10.4954 16.7253 10.4268 16.8625 10.2896L17.3556 9.79652L17.8486 10.2896C17.9858 10.4268 18.1656 10.4954 18.3454 10.4954C18.5252 10.4954 18.705 10.4268 18.8421 10.2896C19.1164 10.0152 19.1164 9.57046 18.8421 9.29611L18.0581 8.51208V6.96308L19.379 8.28405C19.5162 8.42123 19.696 8.48984 19.8757 8.48984C20.0555 8.48984 20.2353 8.42127 20.3725 8.28405C20.6468 8.0097 20.6468 7.56493 20.3725 7.29058L19.0515 5.96961H20.6287L21.3986 6.73955C21.5358 6.87672 21.7156 6.94528 21.8953 6.94528C22.0751 6.94528 22.2549 6.87672 22.3921 6.73955C22.6664 6.4652 22.6664 6.02043 22.3921 5.74608L21.8991 5.25302Z" fill="currentColor"/>
<path d="M9.90254 7.36885C10.2905 7.36885 10.605 7.05432 10.605 6.66635C10.605 6.27839 10.2905 5.96386 9.90254 5.96386H8.83348V2.83874C8.83343 1.27348 7.56 0 5.9947 0C4.42944 0 3.15596 1.27348 3.15596 2.83874V5.96386H2.10484C1.71687 5.96386 1.40234 6.27839 1.40234 6.66635C1.40234 7.05432 1.71687 7.36885 2.10484 7.36885H3.15596V8.77384H2.10484C1.71687 8.77384 1.40234 9.08837 1.40234 9.47633C1.40234 9.8643 1.71687 10.1788 2.10484 10.1788H3.15596V11.5838H2.10484C1.71687 11.5838 1.40234 11.8983 1.40234 12.2863C1.40234 12.6743 1.71687 12.9888 2.10484 12.9888H3.15596V16.3563C0.119025 19.0054 1.96818 23.9712 5.99474 24C10.0217 23.9714 11.87 19.0039 8.83348 16.3563V12.9888H9.90254C10.2905 12.9888 10.605 12.6743 10.605 12.2863C10.605 11.8983 10.2905 11.5838 9.90254 11.5838H8.83348V10.1788H9.90254C10.2905 10.1788 10.605 9.8643 10.605 9.47633C10.605 9.08837 10.2905 8.77384 9.90254 8.77384H8.83348V7.36885H9.90254ZM5.99198 22.2304C4.67077 22.2304 3.59591 21.1555 3.59591 19.8343C3.59591 18.7575 4.31002 17.8445 5.28948 17.5436V14.5607C5.28948 14.1727 5.60401 13.8582 5.99198 13.8582C6.37994 13.8582 6.69447 14.1727 6.69447 14.5607V17.5436C7.67394 17.8445 8.38805 18.7575 8.38805 19.8343C8.38805 21.1555 7.31319 22.2304 5.99198 22.2304Z" fill="currentColor"/>
<path d="M6.96021 20.0434C7.07954 19.5092 6.7432 18.9794 6.20898 18.8601C5.67475 18.7408 5.14495 19.0771 5.02563 19.6113C4.9063 20.1455 5.24264 20.6753 5.77686 20.7947C6.31109 20.914 6.84089 20.5777 6.96021 20.0434Z" fill="currentColor"/>
</svg>
