<svg width="24" height="24" viewBox="0 0 24 24" fill="none" xmlns="http://www.w3.org/2000/svg">
<path d="M12 0.75C5.78662 0.75 0.75 5.78662 0.75 12C0.75 18.2134 5.78662 23.25 12 23.25C18.2134 23.25 23.25 18.2134 23.25 12C23.25 5.78662 18.2134 0.75 12 0.75ZM10.875 4.125C10.875 3.50362 11.3786 3 12 3C12.6214 3 13.125 3.50362 13.125 4.125V8.625C13.125 9.24638 12.6214 9.75 12 9.75C11.3786 9.75 10.875 9.24638 10.875 8.625V4.125ZM12 20.25C7.44375 20.25 3.75 16.5562 3.75 12C3.75 9.1005 5.24587 6.5505 7.50787 5.079C7.70587 4.905 7.96575 4.875 8.25 4.875C8.87138 4.875 9.375 5.37862 9.375 6C9.375 6.29063 9.26475 6.55575 9.08362 6.75525C7.24425 7.78013 6 9.74475 6 12C6 15.3139 8.68612 18 12 18C15.3139 18 18 15.3139 18 12C18 9.74475 16.7558 7.78013 14.9164 6.75525C14.7353 6.55575 14.625 6.29063 14.625 6C14.625 5.37862 15.1286 4.875 15.75 4.875C16.0414 4.875 16.3069 4.90687 16.5068 5.08875C18.7605 6.56137 20.25 9.10687 20.25 12C20.25 16.5562 16.5562 20.25 12 20.25Z" fill="currentColor"/>
</svg>
