<svg width="24" height="24" viewBox="0 0 24 24" fill="none" xmlns="http://www.w3.org/2000/svg">
<path d="M6.47334 20.8448C7.19287 21.5644 8.36088 21.5644 9.08042 20.8448L18.0056 11.9197C18.2619 11.6634 18.459 11.3578 18.5871 11.0326C19.4841 11.2839 20.3564 11.417 21.1252 11.412C23.0275 11.4022 23.6584 10.5693 23.8654 10.0715C24.0723 9.57871 24.2202 8.54376 22.8846 7.18355C22.8698 7.16876 22.8551 7.15398 22.8403 7.13919C22.0123 6.31124 20.8098 5.54735 19.4447 4.98059C19.1933 4.8771 18.942 4.78346 18.6956 4.69475V4.67996C18.6808 3.58588 17.7986 2.70371 16.7045 2.68893L11.3573 2.615C10.6476 2.60514 9.96751 2.88113 9.46975 3.38382L0.53965 12.309C-0.179883 13.0285 -0.179883 14.1965 0.53965 14.9161L6.47334 20.8448ZM13.3533 5.80855C13.9496 5.21222 14.9155 5.21222 15.5119 5.80855C15.8667 6.16339 16.0096 6.65129 15.9406 7.10962C16.5271 7.5236 17.2269 7.90801 17.976 8.21849C18.2422 8.32692 18.4984 8.42548 18.7448 8.50926L18.7153 6.36052C18.7596 6.38023 18.7991 6.39502 18.8434 6.41473C20.0114 6.90263 21.0611 7.56303 21.7363 8.23821C21.7462 8.24806 21.756 8.25792 21.7659 8.26778C22.4066 8.92324 22.4756 9.34215 22.4214 9.47029C22.2538 9.86948 20.455 10.2243 17.7247 9.08588C16.9263 8.75075 16.1772 8.33677 15.571 7.8883C15.5513 7.91294 15.5267 7.93758 15.5069 7.96222C14.9106 8.55855 13.9447 8.55855 13.3483 7.96222C12.7569 7.37082 12.7569 6.40487 13.3533 5.80855Z" fill="currentColor"/>
</svg>
