<svg width="24" height="24" viewBox="0 0 24 24" fill="none" xmlns="http://www.w3.org/2000/svg">
<path d="M5.38159 16.4254C5.44705 16.749 5.73432 16.9818 6.06887 16.9818H6.67614C7.01069 16.9818 7.29432 16.749 7.36341 16.4254L7.4725 15.8945C7.9925 15.7745 8.47614 15.5672 8.91614 15.2945L9.36705 15.589C9.64341 15.7709 10.0107 15.7345 10.247 15.4981L10.6761 15.069C10.9125 14.8327 10.9489 14.4654 10.767 14.189L10.4725 13.7381C10.7452 13.2981 10.9525 12.8145 11.0725 12.2945L11.6034 12.1854C11.927 12.12 12.1598 11.8327 12.1598 11.4981V10.8909C12.1598 10.5563 11.927 10.2727 11.6034 10.2036L11.0725 10.0945C10.9525 9.5745 10.7489 9.09086 10.4725 8.65086L10.767 8.19995C10.9489 7.92359 10.9125 7.55632 10.6761 7.31995L10.247 6.89086C10.0107 6.6545 9.64341 6.61814 9.36705 6.79995L8.91614 7.0945C8.47614 6.82177 7.9925 6.6145 7.4725 6.4945L7.36341 5.96359C7.29796 5.63995 7.01069 5.40723 6.67614 5.40723H6.06887C5.73432 5.40723 5.45069 5.63995 5.38159 5.96359L5.2725 6.4945C4.7525 6.6145 4.26887 6.82177 3.8325 7.0945L3.38159 6.79995C3.10523 6.61814 2.73796 6.6545 2.50159 6.89086L2.0725 7.31995C1.83614 7.55632 1.79978 7.92359 1.98159 8.19995L2.27614 8.65086C1.99978 9.09086 1.79614 9.5745 1.67614 10.0945L1.14523 10.2036C0.821595 10.269 0.588867 10.5563 0.588867 10.8909V11.4981C0.588867 11.8327 0.821595 12.1163 1.14523 12.1854L1.67614 12.2945C1.79614 12.8145 2.00341 13.2981 2.27614 13.7381L1.98159 14.189C1.79978 14.4654 1.83614 14.8327 2.0725 15.069L2.50159 15.4981C2.73796 15.7345 3.10523 15.7709 3.38159 15.589L3.8325 15.2945C4.26887 15.5672 4.7525 15.7745 5.2725 15.8945L5.38159 16.4254ZM3.99978 11.2C3.99978 9.88723 5.06159 8.82541 6.37432 8.82541C7.68705 8.82541 8.74887 9.88723 8.74887 11.2C8.74887 12.5127 7.68705 13.5745 6.37432 13.5745C5.06159 13.5745 3.99978 12.509 3.99978 11.2Z" fill="currentColor"/>
<path d="M11.4875 6.30187L11.9238 6.39278C12.022 6.82187 12.1929 7.22187 12.4184 7.58187L12.1748 7.95278C12.0257 8.18187 12.0548 8.48005 12.2475 8.67641L12.6002 9.02914C12.7929 9.22187 13.0948 9.25459 13.3238 9.10187L13.6948 8.85823C14.0548 9.08368 14.4548 9.25096 14.8802 9.35278L14.9711 9.78914C15.0257 10.0546 15.262 10.2473 15.5348 10.2473H16.0366C16.3093 10.2473 16.5457 10.0546 16.6002 9.78914L16.6911 9.35278C17.1202 9.25459 17.5202 9.08368 17.8802 8.85823L18.2511 9.10187C18.4802 9.25096 18.7784 9.22187 18.9748 9.02914L19.3275 8.67641C19.5202 8.48368 19.5529 8.18187 19.4002 7.95278L19.1566 7.58187C19.382 7.22187 19.5493 6.82187 19.6511 6.39278L20.0875 6.30187C20.3529 6.24732 20.5457 6.01096 20.5457 5.73823V5.24005C20.5457 4.96732 20.3529 4.73096 20.0875 4.67641L19.6511 4.5855C19.5529 4.15641 19.3857 3.75641 19.1566 3.39641L19.4002 3.0255C19.5493 2.79641 19.5202 2.49823 19.3275 2.30187L18.9748 1.94914C18.782 1.75641 18.4802 1.72368 18.2511 1.87641L17.8802 2.12005C17.5202 1.89459 17.1202 1.72732 16.6911 1.6255L16.6002 1.18914C16.5457 0.923684 16.3093 0.730957 16.0366 0.730957H15.5348C15.262 0.730957 15.0257 0.923684 14.9711 1.18914L14.8802 1.6255C14.4511 1.72368 14.0511 1.89459 13.6948 2.12005L13.3238 1.87641C13.0948 1.72732 12.7966 1.75641 12.6002 1.94914L12.2475 2.30187C12.0548 2.49459 12.022 2.79641 12.1748 3.0255L12.4184 3.39641C12.1893 3.75641 12.0257 4.15641 11.9238 4.5855L11.4875 4.67641C11.222 4.73096 11.0293 4.96732 11.0293 5.24005V5.73823C11.0293 6.01096 11.222 6.24732 11.4875 6.30187ZM15.7893 3.53459C16.8693 3.53459 17.742 4.40732 17.742 5.48732C17.742 6.56732 16.8693 7.44005 15.7893 7.44005C14.7093 7.44005 13.8366 6.56732 13.8366 5.48732C13.8366 4.41096 14.7093 3.53459 15.7893 3.53459Z" fill="currentColor"/>
<path d="M22.9705 16.1891L21.2905 16.9927C21.1705 17.0509 21.0323 17.0473 20.9159 16.9891L18.625 15.8291C18.4541 15.7454 18.3632 15.5527 18.4032 15.3673L18.9377 12.8582C18.9668 12.7309 19.0505 12.6218 19.1705 12.5673L20.8468 11.7636C21.0686 11.6582 21.0832 11.3345 20.8614 11.2182C19.385 10.4545 17.5414 10.4473 15.9777 11.44C14.665 12.2691 13.865 13.6763 13.7377 15.1673L5.91592 18.9636C5.30501 19.2545 4.87228 19.7709 4.66138 20.3636C4.45047 20.9563 4.46501 21.6291 4.75956 22.24C5.34501 23.4618 6.81047 23.9818 8.03592 23.3963L15.8614 19.5927C17.2505 20.5382 19.0941 20.7418 20.7196 19.9636C22.1596 19.2763 23.1086 17.9745 23.3996 16.52C23.4505 16.2727 23.1959 16.08 22.9705 16.1891ZM7.6541 21.96C7.15956 22.1963 6.55956 21.9854 6.32319 21.4909C6.08683 20.9963 6.29774 20.3963 6.79228 20.16C7.28683 19.9236 7.88683 20.1345 8.12319 20.6291C8.35956 21.1236 8.14865 21.7236 7.6541 21.96Z" fill="currentColor"/>
</svg>
