<svg width="24" height="24" viewBox="0 0 24 24" fill="none" xmlns="http://www.w3.org/2000/svg">
<path d="M11.7305 12.99C11.77 12.99 11.809 12.9978 11.8455 13.0129C11.8819 13.028 11.9151 13.0501 11.943 13.078C11.9709 13.1059 11.993 13.139 12.0081 13.1755C12.0232 13.2119 12.031 13.251 12.031 13.2905C12.0311 13.4716 12.0146 13.6523 11.9818 13.8305C11.9689 13.8995 11.9323 13.9618 11.8783 14.0066C11.8242 14.0514 11.7562 14.0758 11.686 14.0756H6.47488C6.40477 14.0757 6.33684 14.0512 6.28289 14.0064C6.22895 13.9617 6.19239 13.8994 6.17957 13.8305C6.14633 13.6524 6.12969 13.4716 6.12988 13.2905C6.12988 13.2108 6.16154 13.1343 6.21789 13.078C6.27424 13.0216 6.35066 12.99 6.43035 12.99H11.7305Z" fill="currentColor"/>
<path d="M10.8751 16.2965C10.9323 16.2965 10.9881 16.3137 11.0353 16.346C11.0825 16.3782 11.1188 16.424 11.1395 16.4773C11.1603 16.5305 11.1644 16.5888 11.1514 16.6444C11.1385 16.7001 11.109 16.7506 11.0669 16.7892C10.5237 17.2838 9.8156 17.5579 9.08101 17.5579C8.34642 17.5579 7.63827 17.2838 7.09515 16.7892C7.05323 16.7504 7.02396 16.6999 7.01115 16.6443C6.99834 16.5887 7.00259 16.5305 7.02333 16.4773C7.04407 16.4242 7.08036 16.3785 7.12745 16.3462C7.17454 16.314 7.23026 16.2966 7.28734 16.2965H10.8751Z" fill="currentColor"/>
<path d="M11.6458 15.4079C11.6458 15.4111 11.6425 15.414 11.6411 15.4168C11.6017 15.4846 11.5451 15.5408 11.477 15.5798C11.409 15.6188 11.3319 15.6392 11.2534 15.639H6.90766C6.82929 15.6392 6.75225 15.6188 6.68428 15.5798C6.61632 15.5408 6.55982 15.4845 6.52047 15.4168L6.51531 15.4079C6.47592 15.3397 6.45514 15.2624 6.45508 15.1837C6.45501 15.105 6.47566 15.0277 6.51494 14.9595C6.55422 14.8913 6.61075 14.8346 6.67886 14.7951C6.74697 14.7557 6.82426 14.7349 6.90297 14.7347H11.2586C11.3373 14.7348 11.4146 14.7556 11.4828 14.795C11.5509 14.8345 11.6074 14.8912 11.6467 14.9594C11.6859 15.0277 11.7065 15.105 11.7064 15.1838C11.7062 15.2625 11.6853 15.3398 11.6458 15.4079Z" fill="currentColor"/>
<path d="M14.8451 6.28127C14.8451 5.52075 14.6946 4.76774 14.4024 4.06561C14.1102 3.36349 13.6819 2.72611 13.1423 2.1902C12.6027 1.65429 11.9624 1.23043 11.2582 0.943034C10.5541 0.655638 9.80008 0.510385 9.03958 0.515641C5.94865 0.537672 3.40474 3.0272 3.32083 6.11814C3.29546 6.98313 3.46559 7.84269 3.81856 8.63279C4.17153 9.42289 4.69823 10.1232 5.35943 10.6814C5.60035 10.8837 5.7943 11.1361 5.92779 11.421C6.06128 11.7058 6.1311 12.0164 6.1324 12.331H12.0311C12.0318 12.0171 12.101 11.7072 12.2339 11.4228C12.3667 11.1385 12.5601 10.8866 12.8004 10.6847C13.4416 10.1442 13.9569 9.46999 14.3101 8.70932C14.6634 7.94865 14.8459 7.11994 14.8451 6.28127Z" fill="currentColor"/>
<path d="M9.11418 21.1771C9.11418 20.7985 9.19725 20.4244 9.35753 20.0813C9.51782 19.7382 9.75141 19.4345 10.0418 19.1915H5.58496C5.32161 19.1875 5.06008 19.2358 4.8156 19.3338C4.57112 19.4318 4.34857 19.5774 4.1609 19.7623C3.97324 19.9471 3.8242 20.1673 3.72247 20.4103C3.62075 20.6532 3.56836 20.914 3.56836 21.1774C3.56836 21.4408 3.62075 21.7015 3.72247 21.9445C3.8242 22.1874 3.97324 22.4077 4.1609 22.5925C4.34857 22.7773 4.57112 22.9229 4.8156 23.0209C5.06008 23.1189 5.32161 23.1673 5.58496 23.1632H10.0423C9.75175 22.9202 9.51805 22.6164 9.35769 22.2733C9.19733 21.9301 9.1142 21.5559 9.11418 21.1771Z" fill="currentColor"/>
<path d="M11.7027 23.2031C12.8216 23.2031 13.7286 22.2961 13.7286 21.1772C13.7286 20.0583 12.8216 19.1512 11.7027 19.1512C10.5838 19.1512 9.67676 20.0583 9.67676 21.1772C9.67676 22.2961 10.5838 23.2031 11.7027 23.2031Z" fill="currentColor"/>
<path d="M18.6377 23.0785C18.5631 23.0785 18.4916 23.0488 18.4388 22.9961C18.3861 22.9433 18.3564 22.8718 18.3564 22.7972V19.6252C18.3564 19.5483 18.3818 19.4736 18.4285 19.4126C18.4753 19.3516 18.5409 19.3077 18.6152 19.2878C18.6894 19.2679 18.7681 19.273 18.8392 19.3024C18.9102 19.3318 18.9695 19.3838 19.008 19.4503L20.4011 21.8592V19.5572C20.4011 19.4826 20.4308 19.4111 20.4835 19.3583C20.5363 19.3056 20.6078 19.276 20.6824 19.276C20.757 19.276 20.8285 19.3056 20.8813 19.3583C20.934 19.4111 20.9636 19.4826 20.9636 19.5572V22.7485C20.9636 22.8197 20.9401 22.889 20.8967 22.9455C20.8533 23.0021 20.7925 23.0427 20.7237 23.0612C20.6549 23.0797 20.5819 23.0749 20.516 23.0477C20.4502 23.0205 20.3951 22.9723 20.3594 22.9106L18.9189 20.4202V22.7972C18.9189 22.8718 18.8893 22.9433 18.8366 22.9961C18.7838 23.0488 18.7123 23.0785 18.6377 23.0785Z" fill="currentColor"/>
<path d="M16.1367 23.0784C15.1926 23.0784 14.4248 22.2257 14.4248 21.1771C14.4248 20.1285 15.1926 19.2759 16.1367 19.2759C17.0807 19.2759 17.8481 20.1285 17.8481 21.1771C17.8481 22.2257 17.0803 23.0784 16.1367 23.0784ZM16.1367 19.8384C15.5029 19.8384 14.9873 20.4388 14.9873 21.1771C14.9873 21.9154 15.5029 22.5159 16.1367 22.5159C16.7704 22.5159 17.2856 21.9154 17.2856 21.1771C17.2856 20.4388 16.7704 19.8384 16.1367 19.8384Z" fill="currentColor"/>
</svg>
