<svg width="24" height="24" viewBox="0 0 24 24" fill="none" xmlns="http://www.w3.org/2000/svg">
<path d="M12.4856 2.12584C12.1836 1.95805 11.8164 1.95805 11.5144 2.12584L10.1748 2.87003C8.20458 3.96461 6.03634 4.65648 3.79624 4.90538L2.88957 5.00612C2.62474 5.03554 2.3826 5.16945 2.21689 5.37813C2.05118 5.5868 1.97561 5.85298 2.00694 6.1176L2.60447 11.1634C2.97357 14.2802 4.65651 17.091 7.22967 18.8881L11.4274 21.8198C11.7714 22.0601 12.2287 22.0601 12.5726 21.8198L16.7703 18.8881C19.3435 17.091 21.0264 14.2802 21.3955 11.1634L21.9931 6.1176C22.0244 5.85298 21.9488 5.5868 21.7831 5.37813C21.6174 5.16945 21.3753 5.03554 21.1104 5.00612L20.2038 4.90538C17.9637 4.65648 15.7954 3.96461 13.8252 2.87003L12.4856 2.12584Z" fill="currentColor"/>
</svg>
