<svg width="24" height="24" viewBox="0 0 24 24" fill="none" xmlns="http://www.w3.org/2000/svg">
<path d="M9.05445 6.12266C9.38539 5.17058 9.31648 4.03386 8.86086 2.9225C8.34289 1.66025 6.58967 0.300031 6.39139 0.14914C5.93201 -0.225344 5.1934 0.181624 5.26493 0.769953C5.26634 0.785421 5.40228 2.33633 5.40321 3.55264C5.35915 4.59983 4.71692 5.34387 4.47457 5.62503C3.62796 6.60617 3.16859 8.00619 3.305 9.19161C3.47187 10.6418 5.22321 12.8051 5.42243 13.0473C5.81196 13.5507 6.67887 13.246 6.66842 12.612C6.66889 12.5937 6.69842 10.7926 6.73123 10.132C6.75936 9.56689 7.00451 9.07587 7.55112 8.4897C8.28101 7.70684 8.77273 6.9328 9.05445 6.12266Z" fill="currentColor"/>
<path d="M20.3189 13.6137C19.8009 12.3515 18.0477 10.9917 17.8494 10.8404C17.3901 10.4659 16.6514 10.8736 16.7229 11.4617C16.7243 11.4772 16.8603 13.0281 16.8612 14.2444C16.8176 15.2916 16.1754 16.0356 15.933 16.3163C15.086 17.2975 14.6266 18.6979 14.763 19.8834C14.9299 21.3335 16.6812 23.4968 16.8804 23.7386C17.2706 24.2428 18.1367 23.9378 18.1264 23.3033C18.1269 23.2855 18.1564 21.4844 18.1892 20.8237C18.2178 20.2586 18.463 19.7676 19.0091 19.1815C19.739 18.3985 20.2307 17.624 20.5125 16.8144C20.8434 15.8623 20.775 14.7256 20.3189 13.6137Z" fill="currentColor"/>
<path d="M13.355 21.7107C12.8333 21.0018 12.3528 20.3482 12.0003 19.6833C11.4068 18.564 11.1771 17.4123 11.7298 15.9106C12.2575 14.666 13.3167 13.6714 14.1669 12.6032C15.6595 10.7472 16.4606 8.14117 16.207 5.96383C16.0242 4.38953 15.3112 3.0776 14.1454 2.1686C13.4567 1.63211 12.6711 1.16495 12.0003 0.807955C11.1513 0.35533 10.4871 0.078908 10.4383 0.0587518C9.82758 -0.217576 9.19641 0.540486 9.57998 1.09047C10.0689 1.84436 10.6132 2.53924 11.1748 3.24391C11.5798 3.7518 11.8606 4.32438 12.0003 4.91477C12.1465 5.5083 12.1264 6.13581 12.0003 6.72335C11.7007 8.13461 10.7913 9.33691 9.83738 10.5987C8.63733 12.1861 7.39603 13.8274 7.26755 16.0249C7.16723 17.7356 7.71525 19.4523 8.81077 20.8594C9.38316 21.5945 9.99863 22.1643 10.8063 22.7059C11.2179 22.9819 11.6295 23.2087 12.0003 23.3905C12.785 23.7742 13.3878 23.9551 13.4244 23.9659C14.0302 24.1697 14.5854 23.4148 14.2049 22.8962C13.9241 22.4843 13.6349 22.0908 13.355 21.7107Z" fill="currentColor"/>
</svg>
