<svg width="24" height="24" viewBox="0 0 24 24" fill="none" xmlns="http://www.w3.org/2000/svg">
<path d="M22.2881 11.2174H21.6558C21.4367 10.7986 21.1738 10.3966 20.8696 10.0155V5.73917C20.8696 5.30712 20.5191 4.95654 20.087 4.95654C18.5819 4.95654 17.2445 5.80793 16.5913 7.10618C9.81651 4.91323 3.13045 9.11571 3.13045 14.3479H2.76361C2.10277 14.3479 1.56525 13.8103 1.56525 13.1495V12C1.56525 11.568 1.21467 11.2174 0.782625 11.2174C0.350578 11.2174 0 11.568 0 12V13.1494C0 14.6734 1.23966 15.9131 2.76361 15.9131H3.32259C3.72117 17.5564 4.73817 19.0526 6.26091 20.1853V22.9565C6.26091 23.3886 6.61148 23.7392 7.04353 23.7392H10.174C10.606 23.7392 10.9566 23.3886 10.9566 22.9565V22.0547C11.5431 22.1301 12.1922 22.1739 12.7827 22.1739C13.3733 22.1739 14.0224 22.1301 14.6088 22.0547V22.9565C14.6088 23.3886 14.9594 23.7392 15.3915 23.7392H18.5219C18.954 23.7392 19.3045 23.3886 19.3045 22.9565V20.1853C20.3149 19.4333 21.1169 18.5096 21.6559 17.4783H22.2882C23.2323 17.4783 24.0001 16.7104 24.0001 15.7664V12.9294C24 11.9853 23.2321 11.2174 22.2881 11.2174ZM12.7826 11.2174C11.4442 11.2174 9.9742 11.6255 9.12436 12.2329C8.77031 12.485 8.28201 12.4003 8.03245 12.051C7.7813 11.6994 7.86277 11.2108 8.21433 10.9591C9.32559 10.1652 11.1185 9.65215 12.7826 9.65215C13.2147 9.65215 13.5653 10.0027 13.5653 10.4348C13.5653 10.8668 13.2147 11.2174 12.7826 11.2174ZM18.5217 14.3479C18.0895 14.3479 17.7391 13.9975 17.7391 13.5652C17.7391 13.133 18.0895 12.7826 18.5217 12.7826C18.954 12.7826 19.3043 13.133 19.3043 13.5652C19.3043 13.9975 18.954 14.3479 18.5217 14.3479Z" fill="currentColor"/>
<path d="M6.26131 0.260742C4.53509 0.260742 3.13086 1.66493 3.13086 3.3912C3.13086 5.11746 4.53505 6.52165 6.26131 6.52165C7.98753 6.52165 9.39177 5.11746 9.39177 3.3912C9.39177 1.66493 7.98753 0.260742 6.26131 0.260742Z" fill="currentColor"/>
</svg>
