<svg width="24" height="24" viewBox="0 0 24 24" fill="none" xmlns="http://www.w3.org/2000/svg">
<path fill-rule="evenodd" clip-rule="evenodd" d="M1.27637 11.2499C1.64437 5.91388 5.91437 1.64388 11.2504 1.27588V2.99988C11.2504 3.41388 11.5864 3.74988 12.0004 3.74988C12.4144 3.74988 12.7504 3.41388 12.7504 2.99988V1.27588C18.0864 1.64388 22.3564 5.91388 22.7244 11.2499H21.0004C20.5864 11.2499 20.2504 11.5859 20.2504 11.9999C20.2504 12.4139 20.5864 12.7499 21.0004 12.7499H22.7244C22.3564 18.0859 18.0864 22.3559 12.7504 22.7239V20.9999C12.7504 20.5859 12.4144 20.2499 12.0004 20.2499C11.5864 20.2499 11.2504 20.5859 11.2504 20.9999V22.7239C5.91437 22.3559 1.64437 18.0859 1.27637 12.7499H3.00037C3.41437 12.7499 3.75037 12.4139 3.75037 11.9999C3.75037 11.5859 3.41437 11.2499 3.00037 11.2499H1.27637ZM15.5004 13.2499V14.4999C15.5004 14.9139 15.8364 15.2499 16.2504 15.2499C16.6644 15.2499 17.0004 14.9139 17.0004 14.4999V9.49988C17.0004 9.08588 16.6644 8.74988 16.2504 8.74988C15.8364 8.74988 15.5004 9.08588 15.5004 9.49988V11.7499H14.2504C14.1124 11.7499 14.0004 11.6379 14.0004 11.4999V9.49988C14.0004 9.08588 13.6644 8.74988 13.2504 8.74988C12.8364 8.74988 12.5004 9.08588 12.5004 9.49988V11.4999C12.5004 12.4669 13.2834 13.2499 14.2504 13.2499H15.5004ZM8.50037 11.0829C8.50037 10.6339 8.82437 10.2499 9.25037 10.2499C9.67637 10.2499 10.0004 10.6339 10.0004 11.0829C10.0004 11.1319 9.95737 11.1789 9.92137 11.2389C9.82937 11.3959 9.69637 11.5619 9.54437 11.7319C8.71037 12.6609 7.31837 13.6369 7.31837 13.6369C7.05137 13.8249 6.93637 14.1649 7.03537 14.4759C7.13437 14.7879 7.42337 14.9999 7.75037 14.9999H10.7504C11.1644 14.9999 11.5004 14.6639 11.5004 14.2499C11.5004 13.8359 11.1644 13.4999 10.7504 13.4999H9.88537C10.1604 13.2519 10.4294 12.9909 10.6604 12.7339C11.1914 12.1429 11.5004 11.5279 11.5004 11.0829C11.5004 9.78488 10.4804 8.74988 9.25037 8.74988C8.02037 8.74988 7.00037 9.78488 7.00037 11.0829C7.00037 11.4969 7.33637 11.8329 7.75037 11.8329C8.16437 11.8329 8.50037 11.4969 8.50037 11.0829Z" fill="currentColor"/>
</svg>
