<svg width="24" height="24" viewBox="0 0 24 24" fill="none" xmlns="http://www.w3.org/2000/svg">
<path d="M12 4.92188C8.09709 4.92188 4.92188 8.09709 4.92188 12C4.92188 14.6269 6.36037 16.924 8.49094 18.1454V15.1115L7.03125 13.7052V11.2969H8.4375V13.1073L9.89719 14.5135V18.7593C10.3484 18.9 10.8188 18.9963 11.3034 19.0439V11.8657C10.0884 11.555 9.1875 10.4511 9.1875 9.14062C9.1875 7.58981 10.4492 6.32812 12 6.32812C13.5508 6.32812 14.8125 7.58981 14.8125 9.14062C14.8125 10.4463 13.918 11.547 12.7097 11.8623V19.0427C13.1896 18.9947 13.6557 18.8987 14.1028 18.7593V14.5135L15.5625 13.1073V11.2969H16.9688V13.7052L15.5091 15.1115V18.1454C17.6396 16.924 19.0781 14.6269 19.0781 12C19.0781 8.09709 15.9029 4.92188 12 4.92188Z" fill="currentColor"/>
<path d="M12 7.73438C11.2246 7.73438 10.5938 8.36522 10.5938 9.14062C10.5938 9.91603 11.2246 10.5469 12 10.5469C12.7754 10.5469 13.4062 9.91603 13.4062 9.14062C13.4062 8.36522 12.7754 7.73438 12 7.73438Z" fill="currentColor"/>
<path d="M22.2985 9.48675C22.0423 8.43483 21.6286 7.43728 21.0643 6.51038L22.0712 5.1007L18.9086 1.93809L17.4997 2.94445C16.5742 2.38045 15.5782 1.96678 14.5278 1.71005L14.2428 0H9.7703L9.4853 1.71C8.43698 1.96617 7.44244 2.37895 6.51839 2.94145L5.10066 1.92877L1.93809 5.09133L2.95017 6.50822C2.38805 7.43095 1.97527 8.42386 1.71853 9.47077L0 9.75712V14.2297L1.7152 14.5155C1.97048 15.5626 2.38205 16.5562 2.94291 17.4795L1.92881 18.8993L5.09137 22.0619L6.50625 21.0513C7.42959 21.615 8.42353 22.029 9.47166 22.2866L9.75717 24H14.2297L14.5141 22.2933C15.5648 22.038 16.5614 21.6256 17.4876 21.0628L18.8993 22.0712L22.0619 18.9087L21.057 17.5018C21.6226 16.5757 22.0375 15.5787 22.2952 14.5269L24 14.2429V9.77034L22.2985 9.48675ZM12 20.4844C7.32169 20.4844 3.51562 16.6783 3.51562 12C3.51562 7.32169 7.32169 3.51562 12 3.51562C16.6783 3.51562 20.4844 7.32169 20.4844 12C20.4844 16.6783 16.6783 20.4844 12 20.4844Z" fill="currentColor"/>
</svg>
