<svg width="24" height="24" viewBox="0 0 24 24" fill="none" xmlns="http://www.w3.org/2000/svg">
<path d="M21.1201 9.00975L19.3203 8.78025C19.0801 8.24998 18.79 7.74022 18.4502 7.26951L19.1504 5.58982C19.3496 5.12986 19.1699 4.58982 18.7305 4.33982L15.2695 2.33983C14.8301 2.08983 14.2803 2.20018 13.9697 2.59959L12.8799 4.04979C12.2803 3.98045 11.7197 3.98045 11.1201 4.04979L10.0303 2.59959C9.71973 2.20018 9.16992 2.08983 8.73047 2.33983L5.26953 4.33982C4.83008 4.58982 4.65039 5.12986 4.84961 5.58982L5.5498 7.26951C5.20996 7.74022 4.91992 8.24998 4.67969 8.78025L2.87988 9.00975C2.37988 9.07029 2 9.49998 2 9.99998V14C2 14.5 2.37988 14.9297 2.87988 14.9902L4.67969 15.2197C4.91992 15.75 5.20996 16.2597 5.5498 16.7304L4.84961 18.4101C4.65039 18.8701 4.83008 19.4101 5.26953 19.6601L8.73047 21.6601C9.16992 21.9199 9.73047 21.7998 10.0303 21.4004L11.1299 19.9502C11.7197 20.0195 12.2803 20.0195 12.8799 19.9502L13.9697 21.4004C14.1699 21.6601 14.46 21.79 14.7695 21.79C14.9404 21.79 15.1103 21.75 15.2695 21.6601L18.7305 19.6601C19.1699 19.4101 19.3496 18.8701 19.1504 18.4101L18.4502 16.7304C18.79 16.2597 19.0801 15.75 19.3203 15.2197L21.1201 14.9902C21.6201 14.9297 22 14.5 22 14V9.99998C22 9.49998 21.6201 9.07029 21.1201 9.00975ZM12 15C10.3496 15 9 13.6504 9 12C9 10.3496 10.3496 8.99998 12 8.99998C13.6504 8.99998 15 10.3496 15 12C15 13.6504 13.6504 15 12 15Z" fill="currentColor"/>
</svg>
