<svg width="24" height="24" viewBox="0 0 24 24" fill="none" xmlns="http://www.w3.org/2000/svg">
<path d="M21.6668 12.7021L17.3017 13.8711L15.6191 12.9005V11.079L17.2824 10.1239L21.6667 11.2986C21.7548 11.3221 21.8434 11.3337 21.9311 11.3337C22.3815 11.3337 22.7936 11.033 22.9153 10.5774C23.0611 10.033 22.7383 9.4735 22.194 9.32781L19.7904 8.68381L22.0061 7.41171C22.4945 7.13121 22.6635 6.50768 22.383 6.0191C22.1015 5.53053 21.4792 5.36127 20.9906 5.64244L18.7703 6.91755L19.4142 4.51319C19.5599 3.96892 19.2376 3.40932 18.6929 3.26363C18.1519 3.12172 17.5901 3.44092 17.4443 3.98483L16.2744 8.35015L14.6006 9.31139L13.0139 8.39398V6.46903L16.2226 3.26042C16.6209 2.86189 16.6209 2.21639 16.2226 1.81781C15.8241 1.41934 15.1788 1.41934 14.7801 1.81781L13.0139 3.58392V1.02004C13.014 0.456759 12.5571 0 11.9938 0C11.4305 0 10.9737 0.456707 10.9737 1.02004V3.57128L9.22041 1.81781C8.82194 1.41934 8.17644 1.41934 7.77786 1.81781C7.37939 2.21634 7.37939 2.86184 7.77786 3.26042L10.9737 6.45623V8.40139L9.39905 9.30983L7.72527 8.34948L6.55623 3.98488C6.41059 3.44098 5.85145 3.12089 5.3076 3.26368C4.76328 3.40937 4.44025 3.96897 4.58609 4.51324L5.22989 6.91718L3.00971 5.64244C2.52026 5.36122 1.89724 5.53012 1.61716 6.01936C1.33681 6.50804 1.50587 7.13116 1.99439 7.41166L4.2099 8.68376L1.80632 9.32776C1.26195 9.47345 0.939014 10.0329 1.08481 10.5774C1.20682 11.0329 1.61882 11.3337 2.0692 11.3337C2.15692 11.3337 2.24551 11.3221 2.3339 11.2986L6.7187 10.1234L8.38021 11.0773L8.38192 12.9004L6.69881 13.8728L2.3339 12.702C1.79336 12.5601 1.23081 12.8797 1.08481 13.4234C0.939014 13.9676 1.26195 14.5273 1.80632 14.6722L4.20109 15.3145L1.99185 16.5898C1.50416 16.8717 1.33681 17.4951 1.61887 17.9828C1.80782 18.3111 2.1506 18.4928 2.50275 18.4928C2.67564 18.4928 2.85112 18.4498 3.01189 18.3557L5.23232 17.0744L4.58609 19.4875C4.44025 20.0327 4.76328 20.5906 5.3076 20.7371C5.39573 20.761 5.48427 20.7723 5.57204 20.7723C6.02222 20.7723 6.43421 20.4711 6.55623 20.0152L7.73108 15.6318L9.40206 14.6677L10.9737 15.5746V17.5447L7.77786 20.7406C7.37939 21.139 7.37939 21.7844 7.77786 22.1831C7.97712 22.3823 8.23768 22.4811 8.49911 22.4811C8.75966 22.4811 9.02115 22.3823 9.22041 22.1831L10.9737 20.4297V22.9801C10.9737 23.5444 11.4305 24.0002 11.9938 24.0002C12.5571 24.0002 13.014 23.5443 13.014 22.9801V20.417L14.7801 22.1831C14.9793 22.3823 15.2399 22.4811 15.5014 22.4811C15.7629 22.4811 16.0234 22.3823 16.2226 22.1831C16.6209 21.7845 16.6209 21.1391 16.2226 20.7406L13.014 17.5319V15.5824L14.5991 14.6676L16.2696 15.6317L17.4445 20.0151C17.5663 20.471 17.9783 20.7722 18.4284 20.7722C18.5159 20.7722 18.6047 20.7609 18.693 20.737C19.2377 20.5905 19.5599 20.0326 19.4143 19.4874L18.7673 17.0743L20.9886 18.3556C21.1494 18.4496 21.3248 18.4927 21.4978 18.4927C21.8499 18.4927 22.1926 18.311 22.3816 17.9827C22.6636 17.495 22.4964 16.8717 22.0086 16.5897L19.7994 15.3146L22.1941 14.6722C22.7385 14.5273 23.0613 13.9676 22.9154 13.4235C22.7704 12.8797 22.2102 12.5595 21.6668 12.7021ZM13.5789 12.9005L12.0001 13.8123L10.4225 12.9004L10.4208 11.0757L12.0001 10.1645L13.5789 11.0771V12.9005Z" fill="currentColor"/>
</svg>
