<svg width="32" height="32" viewBox="0 0 32 32" fill="none" xmlns="http://www.w3.org/2000/svg">
<path d="M31.0625 15.0625H30.015C29.5498 8.05675 23.9433 2.45019 16.9375 1.985V0.9375C16.9375 0.419312 16.5182 0 16 0C15.4818 0 15.0625 0.419312 15.0625 0.9375V1.985C8.05675 2.45019 2.45019 8.05675 1.985 15.0625H0.9375C0.419312 15.0625 0 15.4818 0 16C0 16.5182 0.419312 16.9375 0.9375 16.9375H1.985C2.45019 23.9433 8.05675 29.5498 15.0625 30.015V31.0625C15.0625 31.5807 15.4818 32 16 32C16.5182 32 16.9375 31.5807 16.9375 31.0625V30.015C23.9433 29.5498 29.5498 23.9433 30.015 16.9375H31.0625C31.5807 16.9375 32 16.5182 32 16C32 15.4818 31.5807 15.0625 31.0625 15.0625ZM28.14 15.0625H22.4678C22.0527 12.1996 19.8005 9.94731 16.9375 9.53225V3.86C22.9093 4.318 27.682 9.09075 28.14 15.0625ZM15.0625 3.86V9.53225C12.1996 9.94731 9.94731 12.1995 9.53225 15.0625H3.86C4.318 9.09075 9.09075 4.318 15.0625 3.86ZM3.86 16.9375H9.53225C9.94731 19.8004 12.1995 22.0527 15.0625 22.4678V28.14C9.09075 27.682 4.318 22.9093 3.86 16.9375ZM16.9375 28.14V22.4678C19.8004 22.0527 22.0527 19.788 22.4678 16.925H28.14C27.682 22.8967 22.9093 27.682 16.9375 28.14Z" fill="currentColor"/>
</svg>
