<svg width="24" height="24" viewBox="0 0 24 24" fill="none" xmlns="http://www.w3.org/2000/svg">
<path d="M8.74871 8.8875C11.031 8.8875 12.8812 7.06586 12.8812 4.81875C12.8812 2.57164 11.031 0.75 8.74871 0.75C6.46639 0.75 4.61621 2.57164 4.61621 4.81875C4.61621 7.06586 6.46639 8.8875 8.74871 8.8875Z" fill="currentColor"/>
<path d="M11.4113 11.3701C11.64 11.2013 11.88 11.0476 12.1275 10.9051C11.1188 10.3088 9.96004 9.98633 8.77504 9.98633H8.72629C5.08879 9.98633 2.13379 12.9451 2.13379 16.5826V16.9951C2.13379 17.2051 2.30254 17.3701 2.50879 17.3701H8.56879C8.56879 17.2463 8.56129 17.1226 8.56129 16.9988C8.56129 16.8751 8.56504 16.7438 8.56879 16.6201C8.68504 14.4713 9.77629 12.5776 11.4113 11.3701Z" fill="currentColor"/>
<path d="M15.589 10.7476C12.1278 10.7476 9.31152 13.5526 9.31152 16.9988C9.31152 20.4451 12.1278 23.2501 15.589 23.2501C19.0503 23.2501 21.8665 20.4451 21.8665 16.9988C21.8665 13.5526 19.0503 10.7476 15.589 10.7476ZM19.3128 15.9113L18.7353 18.9451C18.7015 19.1251 18.5478 19.2526 18.3678 19.2526H12.8103C12.6303 19.2526 12.4765 19.1251 12.4428 18.9451L11.8653 15.9113C11.839 15.7726 11.8915 15.6338 12.0003 15.5476C12.109 15.4576 12.259 15.4426 12.3865 15.4988L14.149 16.2826L15.3003 14.8801C15.4428 14.7076 15.7353 14.7076 15.8778 14.8801L17.029 16.2826L18.7915 15.4988C18.919 15.4426 19.069 15.4613 19.1778 15.5476C19.2865 15.6338 19.339 15.7726 19.3128 15.9113Z" fill="currentColor"/>
</svg>
