<svg width="28" height="28" viewBox="0 0 28 28" fill="none" xmlns="http://www.w3.org/2000/svg">
<path d="M9.12854 14.8237H3.32617C3.72729 20.0719 7.92904 24.2736 13.1772 24.6747V18.8724C11.1112 18.5242 9.47667 16.8897 9.12854 14.8237Z" fill="currentColor"/>
<path d="M18.8729 13.1767H24.6752C24.2741 7.92855 20.0724 3.7268 14.8242 3.32568V9.12805C16.8902 9.47619 18.5247 11.1107 18.8729 13.1767Z" fill="currentColor"/>
<path d="M14.8242 18.8724V24.6747C20.0724 24.2736 24.2741 20.0719 24.6752 14.8237H18.8729C18.5247 16.8897 16.8902 18.5242 14.8242 18.8724Z" fill="currentColor"/>
<path d="M13.1772 9.12805V3.32568C7.92904 3.7268 3.72729 7.92855 3.32617 13.1767H9.12854C9.47667 11.1107 11.1112 9.47619 13.1772 9.12805Z" fill="currentColor"/>
<path d="M13.9992 10.7061C12.1828 10.7061 10.7051 12.1838 10.7051 14.0002C10.7051 15.8165 12.1828 17.2943 13.9992 17.2943C15.8156 17.2943 17.2933 15.8165 17.2933 14.0002C17.2933 12.1838 15.8156 10.7061 13.9992 10.7061ZM14.8227 14.8237H13.1757V13.1766H14.8227V14.8237Z" fill="currentColor"/>
<path d="M24.6738 13.1763C24.7157 13.7235 24.7157 14.276 24.6738 14.8233H27.9993V13.1763H24.6738Z" fill="currentColor"/>
<path d="M14.8228 3.32547V0H13.1758V3.32547C13.723 3.28369 14.2755 3.28369 14.8228 3.32547Z" fill="currentColor"/>
<path d="M3.32547 13.1763H0V14.8233H3.32547C3.28369 14.2761 3.28369 13.7236 3.32547 13.1763Z" fill="currentColor"/>
<path d="M13.1758 24.6743V27.9998H14.8228V24.6743C14.2756 24.7161 13.7232 24.7161 13.1758 24.6743Z" fill="currentColor"/>
</svg>
