<svg width="24" height="24" viewBox="0 0 24 24" fill="none" xmlns="http://www.w3.org/2000/svg">
<path fill-rule="evenodd" clip-rule="evenodd" d="M11.6847 22.8533L5.98549 16.1408C5.87871 16.015 5.85602 15.8488 5.92535 15.699C5.99468 15.5492 6.1361 15.4589 6.30101 15.4589H8.95549V9.80284C8.95549 9.34698 9.32759 8.97494 9.78345 8.97494H10.3632L10.0892 11.3229C10.0383 11.7595 10.2801 12.1739 10.6854 12.3444C11.0907 12.5148 11.556 12.3977 11.8324 12.0558L14.318 8.98117C14.7266 9.03119 15.0451 9.38106 15.0451 9.80294V15.459H17.6996C17.8645 15.459 18.0059 15.5493 18.0752 15.6991C18.1445 15.8489 18.1219 16.015 18.0151 16.1409L12.3159 22.8533C12.2344 22.9492 12.1261 22.9993 12.0003 22.9993C11.8744 22.9993 11.766 22.949 11.6847 22.8533ZM12.6031 1.24923C12.6091 1.14517 12.5493 1.05306 12.4518 1.01631C12.3542 0.979515 12.2485 1.00923 12.1844 1.09136L7.66343 6.88C7.60695 6.95233 7.59724 7.04453 7.63751 7.12703C7.67773 7.20953 7.75634 7.25866 7.84812 7.25866H11.3185L10.8341 11.4098C10.8218 11.515 10.8784 11.6119 10.9761 11.653C11.0737 11.6941 11.1826 11.6667 11.2491 11.5843L16.0084 5.69692C16.0666 5.62502 16.0775 5.53206 16.0376 5.44862C15.9978 5.36519 15.9186 5.31527 15.8261 5.31527H12.3662L12.6031 1.24923Z" fill="currentColor"/>
</svg>
