<svg width="24" height="24" viewBox="0 0 24 24" fill="none" xmlns="http://www.w3.org/2000/svg">
<path d="M6.86039 6.11456C6.63737 5.85342 6.49015 5.53619 6.43471 5.19729C6.43243 5.18336 6.42936 5.16958 6.42551 5.156C6.33455 4.83892 6.36824 4.49906 6.51967 4.206C6.54146 4.16418 6.56548 4.12356 6.59163 4.08433C6.59941 4.07262 6.60652 4.06049 6.61292 4.04798C6.61576 4.0424 6.6185 4.03681 6.62183 4.0299C6.80304 3.68036 7.08987 3.39686 7.4415 3.21975C7.79314 3.04264 8.19168 2.98093 8.58041 3.0434C8.66934 3.05753 8.76038 3.03923 8.83693 2.99182C8.91348 2.94441 8.97043 2.87106 8.99739 2.78515C9.01963 2.71341 9.04807 2.64374 9.08239 2.57694C9.41515 1.93433 10.2205 1.68823 10.8781 2.0287C10.9853 2.08414 11.0847 2.15347 11.1737 2.23489C11.2439 2.29912 11.3359 2.33425 11.4311 2.33317C11.5262 2.33209 11.6174 2.29488 11.6862 2.22908C12.0575 1.87335 12.5253 1.63459 13.0312 1.54246C13.5371 1.45032 14.059 1.50889 14.532 1.71087C15.0049 1.91285 15.4081 2.24934 15.6914 2.67854C15.9747 3.10773 16.1256 3.61071 16.1254 4.12498C16.1252 4.24812 16.1165 4.3711 16.0992 4.49302C16.0865 4.5833 16.1071 4.67511 16.1572 4.75128C16.2073 4.82745 16.2834 4.88277 16.3713 4.90689C16.4643 4.93243 16.5544 4.96767 16.6401 5.01201C16.9568 5.17415 17.1966 5.45488 17.3074 5.79304C17.4027 6.07868 17.395 6.38867 17.2857 6.66924C17.1764 6.94982 16.9723 7.18329 16.7089 7.32917C16.6258 7.37525 16.5633 7.45116 16.534 7.54154C16.5048 7.63192 16.5109 7.73005 16.5512 7.81609L16.5611 7.83657C16.5975 7.91839 16.6621 7.98446 16.743 8.02284L16.7482 8.02531C16.7618 8.03172 16.7754 8.03808 16.7889 8.04508C16.9945 8.14949 17.1696 8.30516 17.2974 8.49705C17.4252 8.68893 17.5014 8.91055 17.5185 9.14047C17.5238 9.21248 17.5498 9.28143 17.5934 9.33902C17.637 9.39661 17.6962 9.4404 17.7641 9.46513C18.0954 9.58592 18.3735 9.81955 18.5497 10.125C18.7259 10.4305 18.7889 10.7882 18.7276 11.1355C18.6663 11.4827 18.4847 11.7973 18.2145 12.024C17.9444 12.2506 17.6031 12.3749 17.2504 12.375C16.9382 12.3758 16.6336 12.2783 16.3797 12.0965C16.3365 12.0657 16.2872 12.0443 16.2351 12.0339C16.1829 12.0235 16.1292 12.0243 16.0774 12.0363C16.0257 12.0482 15.977 12.071 15.9347 12.1032C15.8924 12.1354 15.8574 12.1762 15.8321 12.2229C15.5488 12.7454 15.0846 13.1466 14.5265 13.351C13.9683 13.5555 13.3548 13.5492 12.801 13.3334L16.0774 7.50226C16.1261 7.41555 16.1384 7.31304 16.1115 7.21728C16.0846 7.12152 16.0208 7.04035 15.9341 6.99163L15.5255 6.76201C15.2034 6.58052 14.8325 6.50436 14.4649 6.54423L14.9938 5.60298C15.0425 5.51627 15.0548 5.41376 15.0279 5.318C15.0011 5.22224 14.9373 5.14107 14.8506 5.09235L14.4419 4.86273C14.0724 4.65575 13.6413 4.58696 13.2257 4.66869C12.8102 4.75041 12.4372 4.9773 12.1736 5.30879L12.0725 5.25197C11.703 5.04498 11.2719 4.9762 10.8563 5.05792C10.4407 5.13964 10.0678 5.36653 9.80418 5.69801L9.7031 5.64121C9.29112 5.41035 8.80439 5.35233 8.34969 5.47988C7.89499 5.60743 7.50945 5.91013 7.27764 6.32158L6.37952 7.92002C6.40625 7.43568 6.57843 6.97067 6.87355 6.5857C6.92556 6.51751 6.95262 6.43354 6.95023 6.3478C6.94783 6.26207 6.91613 6.17974 6.86039 6.11456ZM12.4308 13.9922C12.5327 14.0359 12.6369 14.0742 12.7428 14.107L12.2959 14.2324L12.4308 13.9922ZM11.8176 16.8387L9.18984 17.0389C9.12625 17.0438 9.06495 17.0648 9.01174 17.0999C8.95852 17.1351 8.91514 17.1832 8.8857 17.2397L6.21402 22.3728L1.64746 20.0593L4.4559 15.1712C4.48026 15.1288 4.49609 15.082 4.5025 15.0335L4.73166 13.2999C4.74876 13.1699 4.79062 13.0443 4.85498 12.9299C4.86334 12.915 4.87069 12.8996 4.87695 12.8837L5.87749 10.3446L6.04863 10.04L6.31676 9.5628L6.59974 9.05921L7.93152 6.68901C8.06572 6.4508 8.28892 6.27556 8.55217 6.20171C8.81541 6.12786 9.0972 6.16144 9.33571 6.29508L9.41742 6.34102L7.02941 10.5911L7.68325 10.9585L10.255 6.3815L10.2553 6.38085L10.3009 6.29975C10.4351 6.06155 10.6583 5.8863 10.9215 5.81246C11.1848 5.73861 11.4666 5.7722 11.7051 5.90585L11.7868 5.95179L8.664 11.5095L9.31787 11.8769L12.6244 5.99225L12.6248 5.99157L12.6703 5.91052C12.8045 5.67232 13.0277 5.49708 13.291 5.42323C13.5542 5.34939 13.836 5.38297 14.0745 5.51662L14.1562 5.56255L10.2986 12.428L10.9525 12.7954L13.7539 7.80978C13.8881 7.57156 14.1113 7.3963 14.3745 7.32246C14.6378 7.24862 14.9196 7.28222 15.1581 7.4159L15.2398 7.46181L12.4844 12.3657L11.1985 14.6542C11.1622 14.7189 11.1459 14.7929 11.1516 14.8668C11.1573 14.9408 11.1848 15.0114 11.2306 15.0697C11.2765 15.128 11.3386 15.1714 11.4091 15.1944C11.4796 15.2174 11.5553 15.219 11.6267 15.199L13.0056 14.8122C13.2446 14.7463 13.4993 14.7682 13.7236 14.874C13.9478 14.9799 14.1266 15.1626 14.2276 15.389L14.3442 15.6534L11.8176 16.8387ZM18.1359 22.3534L15.3288 17.4913C15.3049 17.45 15.2734 17.4136 15.236 17.3841L14.1845 16.5568L14.9945 16.1768C15.0831 16.1352 15.152 16.0606 15.1864 15.9689C15.2207 15.8771 15.2178 15.7756 15.1783 15.686L14.9138 15.0864C14.7488 14.7137 14.4607 14.4091 14.0977 14.2237C14.5335 14.1673 14.9529 14.0214 15.3296 13.7951C15.7063 13.5688 16.0322 13.2671 16.2867 12.9089C16.6926 13.1016 17.1469 13.1684 17.591 13.1005C18.0352 13.0327 18.4489 12.8334 18.7787 12.5282C19.1085 12.2231 19.3394 11.8262 19.4415 11.3886C19.5437 10.9511 19.5124 10.493 19.3518 10.0733L19.3828 9.95757C19.448 9.71834 19.5968 9.51041 19.8022 9.37153C20.0076 9.23264 20.256 9.17199 20.5023 9.2006L20.7892 9.23519L20.5199 12.0129L19.3518 14.3753C19.324 14.4315 19.3107 14.4938 19.3132 14.5565C19.3157 14.6191 19.3339 14.6801 19.366 14.7339L22.3637 19.7497L18.1359 22.3534Z" fill="currentColor"/>
<path d="M21.2464 3.72307C21.4491 3.67746 21.6353 3.57661 21.7842 3.43167C21.9331 3.28674 22.0389 3.1034 22.09 2.90198C22.1411 2.70056 22.1354 2.48893 22.0735 2.29055C22.0116 2.09218 21.896 1.91482 21.7395 1.77814C21.583 1.64145 21.3917 1.55078 21.1868 1.51619C20.9819 1.48159 20.7714 1.50442 20.5787 1.58215C20.386 1.65987 20.2186 1.78945 20.095 1.95651C19.9715 2.12357 19.8966 2.3216 19.8787 2.52862C19.5692 2.67361 19.3184 2.91993 19.1679 3.22682C19.0174 3.53371 18.9762 3.88278 19.0511 4.21628L21.2464 3.72307Z" fill="currentColor"/>
<path d="M2.37837 5.88203L4.57366 6.37523C4.64855 6.04173 4.60734 5.69266 4.45685 5.38577C4.30636 5.07887 4.05561 4.83256 3.74608 4.68757C3.72821 4.48051 3.65334 4.28244 3.52977 4.11534C3.4062 3.94823 3.23876 3.81862 3.04602 3.74087C2.85328 3.66312 2.64277 3.64028 2.43784 3.67488C2.23291 3.70947 2.04156 3.80015 1.88502 3.93686C1.72849 4.07357 1.61287 4.25097 1.55101 4.44938C1.48914 4.64779 1.48344 4.85945 1.53453 5.06091C1.58562 5.26236 1.69152 5.44572 1.84047 5.59066C1.98942 5.7356 2.1756 5.83645 2.37837 5.88203Z" fill="currentColor"/>
</svg>
