<svg width="24" height="24" viewBox="0 0 24 24" fill="none" xmlns="http://www.w3.org/2000/svg">
<path d="M8.82605 0.966797C6.98855 0.966797 5.49746 2.45742 5.49746 4.2968C5.49746 6.1343 6.98809 7.62539 8.82605 7.62539C10.665 7.62539 12.1561 6.13477 12.1561 4.2968C12.1561 2.45789 10.665 0.966797 8.82605 0.966797ZM11.7332 13.5087V12.6157C11.7332 12.0349 12.2714 11.6126 12.8573 11.6126H14.0573V9.99539C13.6495 9.51727 13.1446 9.12633 12.5732 8.85258C11.9967 8.57742 11.3507 8.4232 10.6692 8.4232H6.9848C6.30184 8.4232 5.6559 8.57742 5.07934 8.85258C4.50793 9.12633 4.00309 9.5168 3.59668 9.99539V16.413H5.36527V11.6538H5.92871V16.4135H7.4034V13.5087H11.7332ZM15.9215 13.5087V12.6157C15.9215 12.3513 15.637 12.1746 15.3595 12.1746H12.8573C12.5798 12.1746 12.2967 12.3513 12.2967 12.6157V13.5087H15.9215ZM14.7909 17.9909C14.1848 17.3862 13.1446 17.817 13.1446 18.6724C13.1446 19.5279 14.1853 19.9601 14.7909 19.354C15.1668 18.978 15.1668 18.3668 14.7909 17.9909ZM15.6065 18.9673C15.374 20.1551 13.8965 20.6187 13.0289 19.751C12.8161 19.5382 12.6646 19.2607 12.6075 18.9523L8.49512 18.4699V22.4351H19.7217V18.4713L15.6065 18.9673ZM14.1093 17.1457C14.8532 17.1457 15.4818 17.681 15.6107 18.4001L20.0353 17.8685C20.1736 17.8512 20.2504 17.6707 20.2504 17.523V14.0712H7.96637V17.523C7.96637 17.6693 8.04324 17.8512 8.18152 17.8685L12.6089 18.387C12.7443 17.6745 13.3692 17.1457 14.1093 17.1457Z" fill="currentColor"/>
</svg>
