<svg width="24" height="24" viewBox="0 0 24 24" fill="none" xmlns="http://www.w3.org/2000/svg">
<path d="M21.3816 12.3269C21.3816 12.5087 21.2362 12.6541 21.0907 12.6905L19.2726 13.0178C19.1635 13.3814 19.0544 13.7087 18.9089 14.0723C18.8726 14.1814 18.7635 14.2541 18.6544 14.2905C18.5453 14.3269 18.3998 14.2905 18.3271 14.1814L16.6907 12.545C16.5816 12.4723 16.5453 12.3269 16.5816 12.2178C17.5271 8.39959 14.618 4.76323 10.7635 4.76323C5.49073 4.76323 2.76346 11.1996 6.54528 14.9814C8.03619 16.4723 10.1816 17.0541 12.218 16.545C12.3271 16.5087 12.4725 16.545 12.5816 16.6541L14.218 18.2905C14.2907 18.3632 14.3271 18.5087 14.3271 18.6178C14.2907 18.7269 14.218 18.836 14.1089 18.8723C13.7816 19.0178 13.4544 19.1269 13.1271 19.1996L12.7998 21.0178C12.7635 21.1996 12.618 21.3087 12.4362 21.3087H9.23619C9.05437 21.3087 8.90891 21.1996 8.87255 21.0178L8.54528 19.1996C7.78164 19.0178 7.09073 18.7269 6.43619 18.3269L4.90891 19.3814C4.76346 19.4905 4.58164 19.4541 4.43619 19.345L2.18164 17.1632C2.07255 17.0541 2.03619 16.836 2.14528 16.6905L3.19982 15.1632C2.83619 14.545 2.50891 13.8178 2.3271 13.0905L0.47255 12.7632C0.290732 12.7269 0.181641 12.5814 0.181641 12.3996V9.19959C0.181641 9.01777 0.327095 8.87232 0.47255 8.83595L2.29073 8.50868C2.47255 7.78141 2.76346 7.05414 3.16346 6.39959L2.10891 4.87232C1.99982 4.72686 2.03619 4.54505 2.14528 4.39959L4.39982 2.18141C4.50891 2.07232 4.7271 2.03596 4.87255 2.14505L6.39982 3.19959C7.05437 2.83596 7.74528 2.50868 8.47255 2.32686L8.79982 0.508682C8.83619 0.326864 8.98164 0.217773 9.16346 0.217773H12.3635C12.5453 0.217773 12.6907 0.363228 12.7271 0.508682L13.0544 2.32686C13.7816 2.50868 14.5089 2.79959 15.1635 3.19959L16.6907 2.14505C16.8362 2.03596 17.018 2.07232 17.1635 2.18141L19.418 4.43596C19.5635 4.54505 19.5635 4.76323 19.4544 4.90868L18.3998 6.43596C18.7635 7.0905 19.0907 7.78141 19.2726 8.54505L21.0907 8.87232C21.2726 8.90868 21.3816 9.05414 21.3816 9.23595V12.3269Z" fill="currentColor"/>
<path d="M20.6542 17.6355C19.0906 17.8174 17.7815 19.0537 17.5997 20.6901L12.5815 15.5992C12.1815 15.1992 11.636 14.981 11.1269 15.0174C8.10876 15.2719 5.74512 12.2901 6.79967 9.30827C6.90876 9.05373 7.19967 8.981 7.38149 9.16282L9.59967 11.381C9.78149 11.5628 10.036 11.5628 10.2179 11.381L11.4542 10.1446C11.636 9.96282 11.636 9.70827 11.4542 9.52645L9.23603 7.30827C9.05421 7.12645 9.12694 6.79918 9.38149 6.72645C12.2179 5.70827 15.2724 7.99918 15.0178 11.0901C14.9815 11.6355 15.1997 12.1446 15.5997 12.5446L20.6542 17.6355Z" fill="currentColor"/>
<path d="M23.8178 21.0537C23.8178 19.5264 22.5814 18.3264 21.0542 18.29C19.5269 18.29 18.3269 19.5264 18.2905 21.0537C18.2905 22.5809 19.5269 23.8173 21.0542 23.8173C22.5814 23.8173 23.8178 22.5809 23.8178 21.0537ZM21.0905 22.0719C20.5451 22.0719 20.0723 21.6355 20.0723 21.0537C20.0723 20.5082 20.5087 20.0355 21.0905 20.0355C21.636 20.0355 22.0723 20.4719 22.1087 21.0537C22.0723 21.6355 21.636 22.0719 21.0905 22.0719Z" fill="currentColor"/>
</svg>
