<svg width="24" height="24" viewBox="0 0 24 24" fill="none" xmlns="http://www.w3.org/2000/svg">
<path d="M18.5637 7.519C18.5637 7.45734 18.5562 7.39526 18.5405 7.33411C18.0508 5.41058 16.7385 3.83926 15 2.97533V4.5C15 4.91418 14.6646 5.25 14.25 5.25C13.8354 5.25 13.5 4.91418 13.5 4.5V2.46057V2.25C13.5 1.83577 13.1642 1.5 12.75 1.5H11.25C10.8358 1.5 10.5 1.83577 10.5 2.25V2.46048V4.5C10.5 4.91418 10.1642 5.25 9.75 5.25C9.33582 5.25 9 4.91418 9 4.5V2.97533C7.26114 3.83922 5.94887 5.41058 5.45911 7.33411C5.44354 7.39531 5.438 7.4572 5.44089 7.51854C4.90768 7.60684 4.5 8.06676 4.5 8.625C4.5 9.24632 5.00368 9.75 5.625 9.75H18.375C18.9963 9.75 19.5 9.24632 19.5 8.625C19.5 8.06831 19.0947 7.60913 18.5637 7.519Z" fill="currentColor"/>
<path d="M17.25 11.25H6.75V12C6.75 13.4318 7.32747 14.7302 8.26007 15.6783C8.25769 15.7025 8.25 15.7254 8.25 15.75V17.0126L11.9813 18.6709L15.75 16.7864V15.75C15.75 15.7253 15.7423 15.7024 15.7399 15.6782C16.6725 14.7301 17.25 13.4317 17.25 12V11.25Z" fill="currentColor"/>
<path d="M7.5 22.5H16.5V18.0886L12.3354 20.1709C12.23 20.2236 12.115 20.25 12 20.25C11.8964 20.25 11.7924 20.2284 11.6953 20.1852L7.5 18.3206V22.5Z" fill="currentColor"/>
<path d="M6.00001 18.084C4.214 18.6311 2.66351 19.7774 1.62599 21.334C1.47254 21.564 1.45826 21.8599 1.58863 22.1038C1.71937 22.3477 1.97352 22.5 2.25001 22.5H6.00001V18.084Z" fill="currentColor"/>
<path d="M22.374 21.334C21.3366 19.7774 19.7862 18.6312 18 18.0841V22.5H21.75C22.0269 22.5 22.281 22.3476 22.4114 22.1037C22.5417 21.8598 22.5271 21.5639 22.374 21.334Z" fill="currentColor"/>
</svg>
