<svg width="32" height="32" viewBox="0 0 32 32" fill="none" xmlns="http://www.w3.org/2000/svg">
<path d="M13.0625 4.85906C13.0625 3.13594 14.4644 1.73406 16.1875 1.73406H17.269L16.9428 0.827187C16.7593 0.317187 16.2787 0 15.7665 0C15.6245 0 15.4802 0.024375 15.339 0.07575L4.41072 4.05331C3.76104 4.28981 3.42666 5.00875 3.66454 5.65794L4.24197 7.23406H13.0625V4.85906Z" fill="currentColor"/>
<path d="M16.1875 3.60907C15.4971 3.60907 14.9375 4.1687 14.9375 4.85907V7.23407H25.875V4.85907C25.875 4.1687 25.3154 3.60907 24.625 3.60907H16.1875Z" fill="currentColor"/>
<path d="M29.1875 25.2653H24.8125C22.2278 25.2653 20.125 23.1625 20.125 20.5778C20.125 17.9931 22.2278 15.8903 24.8125 15.8903H29.1875V11.6091C29.1875 10.2284 28.0682 9.10907 26.6875 9.10907H2.5C1.11931 9.10907 0 10.2284 0 11.6091V29.5C0 30.8807 1.11931 32 2.5 32H26.6875C28.0682 32 29.1875 30.8807 29.1875 29.5V25.2653Z" fill="currentColor"/>
<path d="M31.0625 17.7653H24.8125C23.2617 17.7653 22 19.027 22 20.5778C22 22.1286 23.2617 23.3903 24.8125 23.3903H31.0625C31.5794 23.3903 32 22.9698 32 22.4528V18.7028C32 18.1859 31.5794 17.7653 31.0625 17.7653ZM24.8125 21.5153C24.2947 21.5153 23.875 21.0956 23.875 20.5778C23.875 20.0601 24.2947 19.6403 24.8125 19.6403C25.3303 19.6403 25.75 20.0601 25.75 20.5778C25.75 21.0956 25.3303 21.5153 24.8125 21.5153Z" fill="currentColor"/>
</svg>
