<svg width="616" height="451" viewBox="0 0 616 451" fill="none" xmlns="http://www.w3.org/2000/svg">
<path d="M184.539 252.24C185.049 253.88 189.449 252.51 190.769 252.47C192.899 252.4 205.019 253.01 205.539 252.49C205.809 252.22 204.939 247.85 206.368 246.95C207.798 246.05 218.589 245.23 217.059 249.72C216.079 269.07 218.288 289.55 217.059 308.76C216.999 309.66 216.919 312.03 216.219 312.53C215.089 313.34 207.109 313.4 206.279 311.99C205.489 310.66 206.829 307.58 205.219 307.05C203.089 306.35 194.329 307.1 191.269 307C190.149 306.97 184.539 305.61 184.539 307.23V363.23C185.759 364.87 189.839 363.04 190.709 365.09C191.319 366.53 191.549 374.98 189.789 374.98H123.539C123.099 372.87 122.449 366.71 123.289 364.98C124.389 362.72 129.049 365.39 129.539 362.73L128.789 306.98H1.78852C-0.981484 306.98 0.548521 295.93 0.558521 294.25C0.698521 277.28 -0.841479 260.26 0.668521 243.36C13.5785 227.78 27.3185 212.9 39.7785 196.96C41.4085 193.36 32.8885 192.07 33.6385 188.3C33.8885 187.05 42.8285 179.38 43.0485 177.22C43.1085 176.66 41.6385 173.19 41.4485 173.07C40.9485 172.75 36.7685 173.05 35.4085 172.86C11.6885 169.57 10.6485 136.78 32.0285 130.74C42.7885 127.7 53.1285 133.3 57.3885 143.38C57.9585 144.72 58.7185 148.96 59.1385 149.38C59.6385 149.88 64.3085 151.65 65.1685 151.42C67.9285 150.67 75.4885 138.68 77.8785 138.06C80.8185 137.29 83.8985 144.5 86.7985 142.52C96.8885 129.99 107.679 118.05 118.009 105.73C121.999 100.97 125.589 95.5301 129.979 91.2001C130.869 90.6101 131.719 90.5601 132.739 90.4601C148.229 88.9801 166.049 91.6501 181.799 90.4601C182.549 90.1601 184.519 91.1601 184.519 91.7401V252.24H184.539ZM181.539 215.99V94.7401C181.539 94.6901 180.839 93.9901 180.789 93.9901H132.289C119.489 108.06 107.669 123.04 95.2985 137.5C81.0985 154.09 66.2785 170.23 52.2785 186.98C51.0085 188.5 42.6785 198.54 42.6085 199.33C42.5385 200.12 43.5385 200.77 44.0285 201.25C50.1185 207.11 58.1785 213.5 64.7985 218.98C69.1785 222.61 73.6885 226.09 78.0485 229.73L79.2485 230.03L129.789 169L132.529 168.49V215.99H181.529H181.539ZM35.9185 133.12C20.3385 135.15 13.7885 155.12 25.7785 165.5C40.9685 178.65 63.2985 159.41 53.2485 142.03C49.8885 136.21 42.7385 132.23 35.9185 133.12ZM43.4785 192.92L82.8085 146.98C83.7285 145.44 79.3185 141.59 78.0585 142.21C76.5185 142.97 71.6485 149.48 70.0585 151.25C68.8785 152.57 67.9285 153.75 66.8285 155.01C57.2385 165.95 47.8785 177.07 38.2785 188C37.2085 189.71 42.4085 193.54 43.4785 192.92ZM56.5385 161.49C57.6485 161.76 57.6485 160.84 58.1385 160.34C60.6485 157.77 65.4785 153.71 59.0385 152.99C58.9385 156.01 57.6685 158.77 56.5385 161.49ZM56.2885 162L55.5485 162.74C55.5485 163.26 56.7985 162.44 56.2885 162ZM54.7885 163.5L53.5485 164.74L53.7885 164.98L55.0285 163.74L54.7885 163.5ZM45.5485 174.49C48.2185 171.63 51.3585 168.92 53.2985 165.5C50.4785 168.21 47.6485 170.17 44.0485 171.74L45.5485 174.49ZM129.529 175.49C128.089 174.49 123.049 182.04 122.019 183.23C106.149 201.55 90.8785 220.41 75.5185 239.23C71.8185 243.77 67.3585 247.79 64.5285 252.99L121.799 253.52L129.809 252.53L129.519 175.5L129.529 175.49ZM37.6885 206.84L72.5385 236.77C73.6385 237.62 76.5585 233.16 76.4985 232.81L40.5285 202.22C39.9085 201.99 36.3485 205.31 37.6885 206.84ZM3.53852 245.24V302.74C3.53852 302.79 4.23852 303.49 4.28852 303.49H73.0385V255.99H62.2885C60.3185 255.99 59.3085 254.96 60.3085 253.01L71.4885 239.24L35.2885 208C24.5485 220.27 13.6685 232.48 3.53852 245.24ZM181.539 219.49H132.539V223.99C143.899 224.46 155.379 224.71 166.809 224.51C169.719 224.46 172.399 224.53 175.289 224.53C177.329 224.53 179.389 223.61 181.539 223.99V219.49ZM181.539 227.49H132.539V255.24C132.539 255.29 131.839 255.99 131.789 255.99H84.5385V303.49H132.539V351.99H181.539V303.49H194.039V255.99H182.289C182.239 255.99 181.539 255.29 181.539 255.24V227.49ZM209.039 249.49V309.49H213.539C213.629 289.67 214.569 269.79 213.819 249.96C213.179 249.04 210.219 249.65 209.039 249.49ZM81.5385 255.99C78.6485 256.62 76.3285 253.71 76.0185 257.72C75.1185 269.09 76.0585 283.26 76.5685 294.72C76.6985 297.63 76.4285 300.59 76.5485 303.49C77.4885 303.46 81.5485 303.83 81.5485 302.74V255.99H81.5385ZM206.039 255.99H197.539V303.49H206.039V255.99ZM181.539 355.49L132.539 354.99V363.99L181.539 364.49V355.49ZM188.039 366.99H126.039V371.99H188.039V366.99Z" fill="#0622EC"/>
<path d="M181.539 215.99H132.539V168.49L129.799 169L79.2588 230.03L78.0588 229.73C73.6888 226.09 69.1788 222.61 64.8088 218.98C58.1988 213.49 50.1288 207.11 44.0388 201.25C43.5388 200.77 42.5488 200.1 42.6188 199.33C42.6888 198.56 51.0188 188.51 52.2888 186.98C66.2788 170.23 81.1088 154.08 95.3088 137.5C107.679 123.04 119.509 108.07 132.299 93.9901H180.799C180.849 93.9901 181.549 94.6901 181.549 94.7401V215.99H181.539Z" fill="#DBE1FF"/>
<path d="M181.539 227.49V255.24C181.539 255.29 182.239 255.99 182.289 255.99H194.039V303.49H181.539V351.99H132.539V303.49H84.5391V255.99H131.789C131.839 255.99 132.539 255.29 132.539 255.24V227.49H181.539ZM154.999 274.45C155.769 273.92 157.149 278.104 152.589 279.344C153.209 281.044 152.369 272.72 152.589 273.7C152.779 274.52 154.519 274.77 154.989 274.45H154.999Z" fill="#DBE1FF"/>
<path d="M3.53906 245.24C13.6691 232.48 24.5491 220.27 35.2891 208L71.4891 239.24L60.3091 253.01C59.3091 254.96 60.3091 255.99 62.2891 255.99H73.0391V303.49H4.28906C4.23906 303.49 3.53906 302.79 3.53906 302.74V245.24Z" fill="#DBE1FF"/>
<path d="M129.529 175.49L129.819 252.52L121.809 253.51L64.5391 252.98C67.3591 247.78 71.8191 243.76 75.5291 239.22C90.8891 220.4 106.159 201.54 122.029 183.22C123.049 182.04 128.099 174.49 129.539 175.48L129.529 175.49Z" fill="#FEFEFE"/>
<path d="M35.9191 133.12C42.7391 132.23 49.8891 136.21 53.2491 142.03C63.2991 159.41 40.9591 178.65 25.7791 165.5C13.7891 155.12 20.3391 135.15 35.9191 133.12ZM46.3491 147.81C47.7291 145.7 47.9491 143.92 47.4291 141.36C46.2791 135.81 35.7791 133.74 38.1491 140.13C38.6491 141.48 42.7791 146.78 38.5591 144.74C36.5891 143.79 37.4791 141.09 33.0791 140.22C28.0891 139.24 23.3491 142 23.2191 147.33C23.0691 153.28 30.3191 147.29 31.5591 148.49C31.9691 153.41 31.0491 150.36 28.7091 151.35C26.7591 152.18 25.4291 156.17 25.5391 158.22C25.7091 161.39 30.6391 167.66 33.4391 164.86C35.2391 163.06 31.9591 159.22 33.3191 156.98C38.0791 157.8 35.8391 158.96 36.7891 162.02C38.0891 166.23 48.0191 167.55 48.9891 162.62C49.9591 157.69 41.5491 161.01 41.0691 156.99C42.9391 156.55 44.6591 157.99 46.3191 158C51.0391 158.01 56.3491 151.88 52.3491 147.97C48.8991 144.59 48.1591 151.07 45.0791 151.49C44.3791 148.91 45.7091 148.84 46.3891 147.81H46.3491Z" fill="#FEFEFE"/>
<path d="M181.539 355.49V364.49L132.539 363.99V354.99L181.539 355.49Z" fill="#DBE1FF"/>
<path d="M43.479 192.92C42.409 193.54 37.209 189.71 38.279 188C47.879 177.07 57.239 165.95 66.829 155.01C67.929 153.75 68.879 152.57 70.059 151.25C71.649 149.48 76.519 142.97 78.059 142.21C79.319 141.59 83.729 145.43 82.809 146.98L43.479 192.92Z" fill="#DBE1FF"/>
<path d="M206.039 255.99H197.539V303.49H206.039V255.99Z" fill="#FEFEFE"/>
<path d="M188.039 366.99H126.039V371.99H188.039V366.99Z" fill="#DBE1FF"/>
<path d="M209.039 249.49C210.229 249.65 213.179 249.04 213.819 249.96C214.569 269.79 213.629 289.67 213.539 309.49H209.039V249.49Z" fill="#FEFEFE"/>
<path d="M81.5393 255.99V302.74C81.5393 303.83 77.4693 303.46 76.5393 303.49C76.4293 300.58 76.6893 297.63 76.5593 294.72C76.0493 283.25 75.1093 269.09 76.0093 257.72C76.3293 253.72 78.6393 256.63 81.5293 255.99H81.5393Z" fill="#DBE1FF"/>
<path d="M37.6898 206.84C36.3498 205.31 39.9098 201.99 40.5298 202.22L76.4998 232.81C76.5598 233.16 73.6398 237.62 72.5398 236.77L37.6898 206.84Z" fill="#DBE1FF"/>
<path d="M181.539 219.49V223.99C179.389 223.61 177.329 224.54 175.289 224.53C172.399 224.53 169.729 224.46 166.809 224.51C155.369 224.71 143.899 224.45 132.529 223.99V219.49H181.529H181.539Z" fill="#DBE1FF"/>
<path d="M56.5391 161.49C57.6691 158.77 58.9491 156.01 59.0391 152.99C65.4791 153.71 60.6491 157.78 58.1391 160.34C57.6491 160.84 57.6491 161.76 56.5391 161.49Z" fill="#DBE1FF"/>
<path d="M45.5488 174.49L44.0488 171.74C47.6388 170.17 50.4688 168.21 53.2988 165.5C51.3588 168.92 48.2188 171.63 45.5488 174.49Z" fill="#DBE1FF"/>
<path d="M56.2889 162C56.7989 162.45 55.5389 163.27 55.5489 162.74L56.2889 162Z" fill="#DBE1FF"/>
<path d="M54.7953 163.495L53.5508 164.739L53.7841 164.972L55.0287 163.728L54.7953 163.495Z" fill="#DBE1FF"/>
<path d="M46.3497 147.81C45.6797 148.84 44.3397 148.91 45.0397 151.49C48.1197 151.07 48.8597 144.59 52.3097 147.97C56.3197 151.89 50.9997 158.02 46.2797 158C44.6197 158 42.8997 156.55 41.0297 156.99C41.5197 161 49.8797 157.92 48.9497 162.62C47.9797 167.55 38.0497 166.23 36.7497 162.02C35.8097 158.96 38.0497 157.8 33.2797 156.98C31.9197 159.22 35.1997 163.06 33.3997 164.86C30.5997 167.66 25.6697 161.38 25.4997 158.22C25.3897 156.17 26.7097 152.18 28.6697 151.35C31.0097 150.36 31.9297 153.4 31.5197 148.49C30.2897 147.29 23.0397 153.28 23.1797 147.33C23.3097 142 28.0497 139.23 33.0397 140.22C37.4397 141.09 36.5497 143.79 38.5197 144.74C42.7497 146.78 38.6097 141.48 38.1097 140.13C35.7397 133.74 46.2497 135.81 47.3897 141.36C47.9197 143.92 47.6997 145.7 46.3097 147.81H46.3497ZM36.2197 153.81C40.0497 157.79 44.5897 148.63 38.2997 148.44C34.7297 148.33 33.9997 151.5 36.2197 153.81Z" fill="#0622EC"/>
<path d="M36.2198 153.81C33.9998 151.5 34.7298 148.34 38.2998 148.44C44.5898 148.63 40.0498 157.78 36.2198 153.81Z" fill="#FEFEFE"/>
<path d="M201.063 143.646C201.063 140.856 199.713 139.406 200.093 136.426C200.443 133.686 200.533 132.906 200.543 129.876C200.543 129.036 201.693 125.646 200.313 125.646H190.813C182.863 125.646 172.063 113.766 172.063 105.896V68.146C170.603 67.176 166.443 68.086 165.633 67.576C164.793 67.046 164.823 60.086 165.523 58.976C166.533 57.376 171.043 58.816 171.843 57.676C170.923 46.406 180.433 33.086 191.853 31.686C193.403 31.496 197.753 32.016 198.593 31.426C199.743 30.626 198.583 25.826 199.113 25.196C199.813 24.376 206.913 24.406 208.063 25.386C209.563 26.666 207.203 31.156 209.803 31.646H276.803C305.593 22.256 332.253 22.536 360.823 32.136C361.603 32.396 365.063 34.536 365.063 32.896V11.896C365.063 11.626 365.863 10.806 365.563 10.146C362.263 8.63602 358.113 11.656 357.553 6.90603C356.623 -0.943969 359.173 -0.0639684 365.833 0.126032C370.973 0.276032 376.103 0.75601 381.333 0.66601C383.653 0.62601 388.873 -0.973971 390.523 1.43603C391.373 2.66603 391.423 8.07603 390.323 9.15603C388.793 10.666 384.043 8.25602 383.563 10.896L383.783 43.176C384.353 45.036 394.493 52.056 396.823 54.136C437.263 90.306 447.663 150.236 421.143 197.986C419.453 201.026 415.393 206.036 414.333 208.676C414.063 209.346 413.973 209.936 414.063 210.656H425.313C433.653 210.656 443.573 221.936 444.503 229.966C445.543 238.996 446.243 258.136 442.153 265.996C437.573 274.816 427.893 279.526 418.063 278.646C418.043 279.636 417.723 284.376 417.273 284.706C416.313 285.416 409.133 285.376 408.633 284.576C407.893 283.396 409.793 278.986 407.313 278.646L351.443 278.016C344.503 276.776 337.703 272.306 334.623 265.836C333.793 264.086 332.573 257.496 331.753 257.216C330.133 256.656 327.983 257.616 326.333 257.666C316.663 257.966 307.093 257.596 297.563 256.146C297.563 255.606 296.643 254.116 297.063 253.146C308.643 254.586 320.493 255.676 332.063 253.646V208.646H321.063V228.146H304.063V235.396C304.063 235.536 303.553 236.566 303.223 236.666C295.503 236.896 287.753 237.756 280.063 236.646V228.646C268.823 227.736 257.303 227.876 246.063 228.896C254.393 236.246 264.813 242.126 275.063 246.396C276.763 247.096 286.663 250.166 286.993 250.716C287.833 252.106 286.103 253.026 286.063 253.156C272.233 250.086 258.923 242.686 247.393 234.576C245.383 233.166 240.473 228.156 238.313 228.156H230.063V218.906C230.063 218.066 221.333 207.586 219.953 205.516C211.443 192.746 205.833 179.186 203.063 164.156C203.033 163.996 203.093 163.816 203.063 163.656C202.583 160.876 201.023 158.456 202.063 155.656C202.253 155.146 202.113 154.536 202.823 154.156C203.603 153.976 203.873 154.816 204.113 155.356C205.453 158.446 206.173 166.296 207.213 170.256C211.383 186.256 219.213 201.246 230.073 213.646V159.146H219.573C219.323 159.146 219.823 164.146 219.573 164.146H210.823C210.773 164.146 210.073 163.446 210.073 163.396V134.146H219.073L219.573 139.646H230.073V126.146L204.073 125.646L203.063 144.146C202.293 144.556 201.223 143.646 201.063 143.646ZM386.313 3.14602H360.563C361.323 3.82602 360.883 6.64602 361.063 6.64602H388.063C388.093 4.62602 388.673 3.46602 386.313 3.14602ZM380.563 9.64602H368.563V46.396C368.563 47.336 366.833 50.646 366.063 51.396C360.843 56.496 343.373 51.176 335.043 55.376C329.683 58.076 324.253 64.316 323.623 70.446C322.993 76.576 324.723 74.136 328.813 74.646C330.813 74.896 332.823 75.326 334.813 75.646C335.153 71.466 336.483 67.036 341.053 65.876C347.883 64.136 357.883 66.766 365.893 64.716C373.903 62.666 380.563 54.596 380.563 46.386V9.63601V9.64602ZM320.563 72.646C319.753 61.006 330.883 51.246 341.873 50.206C346.593 49.766 359.753 51.126 362.933 49.766C365.743 48.566 365.413 41.596 365.093 38.866C364.843 36.756 361.023 35.696 359.053 34.906C342.603 28.296 322.393 26.556 304.873 28.716C299.023 29.436 293.293 30.916 287.563 32.156C291.363 34.886 295.303 36.896 298.323 40.646C303.393 46.956 303.143 52.926 303.283 60.686C303.983 61.696 308.643 60.916 310.063 61.156L310.563 70.656C309.563 70.826 304.283 70.416 304.063 70.656C303.993 70.726 303.963 72.656 304.063 72.656H320.563V72.646ZM205.563 28.146H202.063V53.646H205.563V28.146ZM199.063 47.146V35.396C199.063 33.566 189.633 35.536 188.173 36.016C186.713 36.496 182.453 39.536 181.313 40.646C176.843 45.026 174.733 51.996 175.053 58.146L187.553 58.646C186.153 51.456 191.523 44.786 199.053 47.146H199.063ZM288.563 61.146H299.813C300.773 61.146 300.603 58.136 300.553 57.396C299.623 42.266 293.073 35.486 277.833 34.616C261.793 33.696 245.323 35.126 229.333 35.156C222.503 35.176 215.473 34.136 208.563 34.636V47.136H282.813C284.303 47.136 288.563 52.306 288.563 53.886V61.136V61.146ZM351.063 203.646H358.563V210.646H409.563C409.643 210.106 409.723 209.446 410.053 209.006C429.163 183.356 436.453 152.386 430.923 120.546C425.813 91.136 408.513 64.696 383.813 48.156C381.413 58.736 374.203 67.596 362.813 68.646C356.843 69.196 348.303 67.676 342.843 68.676C339.813 69.236 336.773 74.716 339.053 76.416C339.483 76.736 345.433 78.426 346.903 79.066C385.823 95.916 400.743 144.296 376.473 179.806C370.773 188.146 364.603 193.506 356.323 199.156C355.403 199.786 349.753 202.346 351.063 203.646ZM243.563 49.646H209.313C206.973 49.646 209.353 56.176 206.813 56.646C205.903 56.816 200.013 56.766 199.533 56.426C198.063 55.406 200.553 50.846 197.593 49.866C194.633 48.886 190.813 51.006 190.183 54.006C188.683 61.246 195.183 57.436 196.343 59.106C196.863 59.856 196.683 67.136 195.993 67.566C195.233 68.046 191.323 67.366 190.063 67.636V104.386C190.063 105.616 192.673 107.296 193.933 107.516C195.583 107.816 204.423 107.916 205.363 107.186C206.463 106.336 207.763 100.496 208.463 98.786C214.943 83.026 224.203 69.536 236.293 57.616C237.193 56.726 244.843 50.876 243.553 49.626L243.563 49.646ZM209.063 107.146H230.063V73.396L285.063 72.646C284.983 72.166 285.183 70.776 285.063 70.646C284.853 70.426 280.013 70.796 279.063 70.646V61.146H285.063C285.583 56.826 286.163 51.506 281.083 49.846C270.663 50.666 260.043 49.536 249.693 50.536C230.313 63.506 215.343 84.686 209.053 107.146H209.063ZM194.063 61.146H168.563V64.646H194.063V61.146ZM307.563 64.146H282.063V67.146C288.803 67.316 295.593 66.906 302.333 67.126C305.493 67.226 308.133 69.426 307.563 64.146ZM187.063 68.146C186.573 68.306 185.983 67.646 185.813 67.646H175.063V105.396C175.063 114.556 185.243 122.076 193.793 122.666C214.663 124.116 237.233 121.576 258.273 122.596C267.413 119.656 265.843 110.506 255.813 110.246C235.483 109.716 214.773 111.506 194.363 110.596C191.263 110.376 187.073 106.526 187.073 103.386V68.136L187.063 68.146ZM300.563 70.646C300.133 70.196 289.783 70.646 288.063 70.646C287.963 70.646 287.963 72.646 288.063 72.646H300.563C300.663 72.646 300.633 70.716 300.563 70.646ZM233.063 76.396V107.146H250.813C251.283 107.146 255.193 102.746 258.533 101.866C282.303 95.596 283.133 135.956 259.433 131.526C256.393 130.956 251.633 126.146 249.813 126.146H233.813C233.763 126.146 233.063 126.846 233.063 126.896V224.396C233.063 224.446 233.763 225.146 233.813 225.146H310.063V76.146L233.063 76.396ZM313.063 76.146V225.146H318.063C317.963 221.406 318.183 217.626 318.083 213.876C318.043 212.326 317.563 210.966 317.533 209.426C316.683 165.036 318.213 120.546 317.563 76.146H313.063ZM321.063 77.646V85.646C372.843 85.706 396.283 152.616 355.803 185.136C350.173 189.666 336.443 197.146 329.313 197.146H321.063V205.396C321.063 206.626 323.273 205.606 323.833 205.626C341.723 206.346 361.013 195.086 371.773 181.106C384.833 164.156 388.683 141.426 381.933 121.026C373.543 95.646 348.253 76.396 321.063 77.646ZM321.063 194.146H328.313C332.313 194.146 343.683 189.396 347.403 187.236C383.563 166.146 381.253 112.016 343.403 94.056C340.533 92.696 331.083 89.146 328.313 89.146H321.063V194.146ZM255.563 126.146C261.833 132.096 272.763 126.806 273.933 118.756C275.583 107.446 265.743 101.116 256.063 106.646L260.463 107.486C272.153 111.676 267.453 127.366 255.553 126.146H255.563ZM216.563 137.146H213.063V161.146H216.563V137.146ZM230.063 142.646L219.563 142.146C220.363 143.436 219.593 144.516 219.543 145.876C219.423 149.116 219.673 152.406 219.563 155.646H230.063V142.646ZM408.563 263.146H353.813C352.473 263.146 347.563 258.216 347.563 256.896V203.646C344.763 205.646 338.943 205.916 336.403 207.236C336.053 207.416 335.703 207.496 335.623 207.956C335.903 210.486 335.153 213.006 335.033 215.366C334.463 227.286 334.183 244.126 335.033 255.906C335.563 263.226 339.183 269.266 345.593 272.846C346.433 273.316 350.223 275.136 350.803 275.136H408.553V263.136L408.563 263.146ZM355.563 206.646H351.563V233.146H355.563V206.646ZM418.063 275.646C428.843 276.716 440.433 269.726 441.563 258.396C442.243 251.576 442.183 237.766 441.583 230.886C440.903 223.026 432.393 213.656 424.313 213.656H358.563C358.083 217.956 358.273 221.866 358.563 226.156C364.513 226.026 370.353 225.696 376.333 225.626C389.893 225.466 406.953 224.586 420.333 225.626C424.963 225.986 428.953 227.736 429.573 232.886C430.053 236.796 430.163 253.766 429.443 257.286C428.463 262.106 422.393 264.016 418.053 263.146V275.646H418.063ZM301.063 228.146H283.063V234.146H301.063V228.146ZM358.063 229.146V236.146H350.563V250.146C360.383 247.206 370.313 242.756 379.023 237.356C382.853 234.976 386.333 232.136 390.063 229.636C389.863 228.596 387.663 228.596 386.823 228.606C385.173 228.606 383.793 229.136 382.333 229.166C374.183 229.326 366.113 228.526 358.063 229.146ZM350.683 253.266C348.333 255.596 352.523 260.486 355.343 260.616H406.773C410.853 260.596 407.983 254.446 409.523 253.366C410.073 252.986 416.513 252.966 417.083 253.366C418.583 254.416 415.943 259.996 419.313 260.636C422.253 261.196 426.523 259.026 427.023 255.866C427.633 252.046 427.293 243.046 427.073 238.876C426.983 237.196 426.753 233.416 426.443 232.006C426.003 229.966 423.633 228.946 421.753 228.696C413.783 227.616 403.603 229.326 395.403 228.756C385.293 237.576 372.973 244.796 360.543 249.896C358.813 250.606 351.273 252.676 350.673 253.266H350.683ZM415.063 256.146H411.063V282.146H415.063V256.146Z" fill="#0622EC"/>
<path d="M203.063 164.146V163.646C203.093 163.806 203.033 163.986 203.063 164.146Z" fill="#DBE1FF"/>
<path d="M233.062 76.396L310.062 76.146V225.146H233.812C233.762 225.146 233.062 224.446 233.062 224.396V126.896C233.062 126.846 233.762 126.146 233.812 126.146H249.812C251.632 126.146 256.392 130.956 259.432 131.526C283.132 135.956 282.312 95.596 258.533 101.866C255.183 102.746 251.282 107.146 250.812 107.146H233.062V76.396ZM265.062 156.146H251.312C249.073 156.146 251.412 159.056 250.332 160.666C250.202 160.856 248.483 161.646 248.312 161.646H241.062V198.146H273.812C273.862 198.146 274.562 197.446 274.562 197.396V161.646H265.062V156.146Z" fill="#DBE1FF"/>
<path d="M351.062 203.646C349.752 202.346 355.402 199.786 356.322 199.156C364.592 193.506 370.762 188.146 376.472 179.806C400.742 144.286 385.822 95.916 346.902 79.066C345.432 78.426 339.482 76.736 339.052 76.416C336.762 74.716 339.812 69.236 342.842 68.676C348.302 67.666 356.842 69.196 362.812 68.646C374.202 67.596 381.412 58.746 383.812 48.156C408.512 64.696 425.812 91.146 430.922 120.546C436.452 152.386 429.162 183.356 410.052 209.006C409.722 209.446 409.642 210.106 409.562 210.646H358.562V203.646H351.062Z" fill="#DBE1FF"/>
<path d="M321.062 194.146V89.146H328.312C331.083 89.146 340.533 92.696 343.403 94.056C381.243 112.006 383.563 166.136 347.403 187.236C343.683 189.406 332.312 194.146 328.312 194.146H321.062ZM330.062 137.646V146.396C330.062 147.936 334.842 146.656 335.792 146.626C338.132 146.556 347.212 146.216 348.742 146.716C350.792 147.386 348.022 154.446 351.232 153.576C352.702 151.946 363.723 143.636 363.523 142.466C363.313 141.176 352.733 134.366 351.213 132.746L349.562 132.646C349.522 133.576 349.913 137.646 348.812 137.646H330.062Z" fill="#FEFEFE"/>
<path d="M320.562 72.646H304.062C303.962 72.646 303.993 70.716 304.062 70.646C304.282 70.406 309.562 70.816 310.562 70.646L310.062 61.146C308.642 60.906 303.983 61.686 303.283 60.676C303.143 52.926 303.383 46.946 298.323 40.636C295.313 36.886 291.372 34.876 287.562 32.146C293.302 30.906 299.022 29.426 304.872 28.706C322.392 26.556 342.602 28.286 359.052 34.896C361.022 35.686 364.833 36.756 365.093 38.856C365.423 41.586 365.752 48.5559 362.932 49.7559C359.752 51.1159 346.602 49.756 341.872 50.196C330.872 51.236 319.743 60.986 320.562 72.636V72.646Z" fill="#DBE1FF"/>
<path d="M350.683 253.266C351.283 252.676 358.823 250.606 360.553 249.896C372.983 244.796 385.303 237.576 395.413 228.756C403.613 229.326 413.803 227.616 421.763 228.696C423.643 228.946 426.003 229.966 426.453 232.006C426.763 233.416 426.993 237.196 427.083 238.876C427.303 243.046 427.643 252.056 427.033 255.866C426.533 259.016 422.263 261.196 419.323 260.636C415.953 259.996 418.593 254.416 417.093 253.366C416.523 252.966 410.083 252.986 409.533 253.366C407.993 254.446 410.863 260.596 406.783 260.616H355.353C352.533 260.486 348.343 255.596 350.693 253.266H350.683Z" fill="#FEFEFE"/>
<path d="M243.562 49.646C244.842 50.886 237.202 56.746 236.302 57.636C224.202 69.556 214.952 83.036 208.472 98.806C207.772 100.516 206.462 106.346 205.372 107.206C204.432 107.936 195.592 107.836 193.942 107.536C192.682 107.306 190.072 105.636 190.072 104.406V67.656C191.332 67.386 195.242 68.066 196.002 67.586C196.702 67.146 196.872 59.876 196.352 59.126C195.192 57.456 188.692 61.256 190.192 54.026C190.812 51.016 194.712 48.936 197.602 49.886C200.492 50.836 198.082 55.426 199.542 56.446C200.032 56.786 205.912 56.836 206.822 56.666C209.362 56.196 206.982 49.666 209.322 49.666H243.572L243.562 49.646Z" fill="#FEFEFE"/>
<path d="M321.062 77.646C348.253 76.386 373.552 95.636 381.932 121.026C388.672 141.436 384.823 164.156 371.773 181.106C361.013 195.086 341.723 206.346 323.833 205.626C323.273 205.606 321.062 206.626 321.062 205.396V197.146H329.312C336.432 197.146 350.162 189.656 355.802 185.136C396.282 152.616 372.853 85.706 321.062 85.646V77.646Z" fill="#FEFEFE"/>
<path d="M418.062 275.646V263.146C422.392 264.006 428.462 262.106 429.452 257.286C430.172 253.766 430.052 236.796 429.582 232.886C428.952 227.736 424.972 225.996 420.342 225.626C406.962 224.576 389.902 225.466 376.342 225.626C370.362 225.696 364.522 226.026 358.572 226.156C358.282 221.856 358.092 217.956 358.572 213.656H424.322C432.402 213.656 440.912 223.036 441.592 230.886C442.182 237.766 442.242 251.576 441.572 258.396C440.452 269.736 428.852 276.716 418.072 275.646H418.062Z" fill="#FEFEFE"/>
<path d="M408.562 263.146V275.146H350.812C350.232 275.146 346.442 273.326 345.602 272.856C339.192 269.276 335.572 263.236 335.042 255.916C334.182 244.136 334.472 227.296 335.042 215.376C335.152 213.006 335.912 210.486 335.632 207.966C335.712 207.506 336.062 207.426 336.412 207.246C338.952 205.916 344.772 205.656 347.572 203.656V256.906C347.572 258.226 352.482 263.156 353.822 263.156H408.572L408.562 263.146Z" fill="#FEFEFE"/>
<path d="M209.062 107.146C215.352 84.686 230.323 63.506 249.703 50.536C260.053 49.536 270.662 50.666 281.092 49.846C286.173 51.496 285.583 56.826 285.073 61.146H279.073V70.646C280.023 70.806 284.873 70.436 285.073 70.646C285.193 70.776 284.993 72.156 285.073 72.646L230.073 73.396V107.146H209.073H209.062Z" fill="#DBE1FF"/>
<path d="M187.063 68.146V103.396C187.063 106.526 191.263 110.376 194.353 110.606C214.763 111.516 235.483 109.716 255.803 110.256C265.833 110.516 267.403 119.676 258.263 122.606C237.223 121.576 214.653 124.116 193.783 122.676C185.233 122.086 175.053 114.566 175.053 105.406V67.656H185.803C185.973 67.656 186.563 68.316 187.053 68.156L187.063 68.146Z" fill="#FEFEFE"/>
<path d="M288.562 61.146V53.896C288.562 52.316 284.302 47.146 282.812 47.146H208.562V34.646C215.483 34.146 222.502 35.186 229.332 35.166C245.322 35.126 261.792 33.706 277.832 34.626C293.072 35.496 299.622 42.266 300.552 57.406C300.602 58.146 300.772 61.156 299.812 61.156H288.562V61.146Z" fill="#FEFEFE"/>
<path d="M380.562 9.646V46.396C380.562 54.606 373.672 62.736 365.892 64.726C358.112 66.716 347.882 64.146 341.052 65.886C336.482 67.046 335.152 71.476 334.812 75.656C332.822 75.326 330.812 74.906 328.812 74.656C324.722 74.146 323.012 76.326 323.622 70.456C324.232 64.586 329.682 58.086 335.042 55.386C343.372 51.186 360.842 56.506 366.062 51.406C366.832 50.656 368.562 47.346 368.562 46.406V9.65601H380.562V9.646Z" fill="#FEFEFE"/>
<path d="M313.062 76.146H317.562C318.213 120.536 316.692 165.026 317.532 209.416C317.562 210.956 318.043 212.326 318.083 213.866C318.183 217.616 317.963 221.396 318.062 225.146H313.062V76.146Z" fill="#DBE1FF"/>
<path d="M358.062 229.146C366.113 228.526 374.193 229.326 382.333 229.166C383.793 229.136 385.173 228.616 386.823 228.606C387.663 228.606 389.862 228.606 390.062 229.636C386.333 232.136 382.853 234.976 379.023 237.356C370.323 242.756 360.382 247.206 350.562 250.146V236.146H358.062V229.146Z" fill="#DBE1FF"/>
<path d="M199.063 47.146C191.533 44.786 186.163 51.456 187.563 58.646L175.063 58.146C174.743 51.996 176.843 45.026 181.323 40.646C182.463 39.536 186.743 36.486 188.183 36.016C189.623 35.546 199.073 33.566 199.073 35.396V47.146H199.063Z" fill="#FEFEFE"/>
<path d="M255.562 126.146C267.462 127.366 272.153 111.676 260.473 107.486L256.073 106.646C265.753 101.126 275.583 107.456 273.943 118.756C272.773 126.806 261.843 132.086 255.573 126.146H255.562Z" fill="#DBE1FF"/>
<path d="M230.063 142.646V155.646H219.563C219.673 152.406 219.423 149.116 219.543 145.876C219.593 144.516 220.363 143.436 219.563 142.146L230.063 142.646Z" fill="#DBE1FF"/>
<path d="M301.062 228.146H283.062V234.146H301.062V228.146Z" fill="#FEFEFE"/>
<path d="M355.562 206.646H351.562V233.146H355.562V206.646Z" fill="#DBE1FF"/>
<path d="M415.062 256.146H411.062V282.146H415.062V256.146Z" fill="#DBE1FF"/>
<path d="M386.312 3.146C388.673 3.466 388.093 4.626 388.062 6.646H361.062C360.882 6.646 361.322 3.826 360.562 3.146H386.312Z" fill="#DBE1FF"/>
<path d="M205.562 28.146H202.062V53.646H205.562V28.146Z" fill="#DBE1FF"/>
<path d="M194.062 61.146H168.562V64.646H194.062V61.146Z" fill="#DBE1FF"/>
<path d="M216.562 137.146H213.062V161.146H216.562V137.146Z" fill="#FEFEFE"/>
<path d="M307.562 64.146C308.132 69.426 305.492 67.226 302.332 67.126C295.592 66.916 288.802 67.326 282.062 67.146V64.146H307.562Z" fill="#DBE1FF"/>
<path d="M300.563 70.646C300.633 70.716 300.663 72.646 300.563 72.646H288.063C287.963 72.646 287.963 70.646 288.063 70.646C289.783 70.646 300.133 70.196 300.563 70.646Z" fill="#FEFEFE"/>
<path d="M265.062 156.146V161.646H274.562V197.396C274.562 197.446 273.862 198.146 273.812 198.146H241.062V161.646H248.312C248.483 161.646 250.192 160.856 250.332 160.666C251.422 159.056 249.083 156.146 251.312 156.146H265.062ZM262.062 159.146H254.312C253.653 159.146 253.403 160.996 253.562 161.646H262.062V159.146Z" fill="#0622EC"/>
<path d="M330.062 137.646H348.812C349.913 137.646 349.522 133.576 349.562 132.646L351.213 132.746C352.733 134.376 363.313 141.176 363.523 142.466C363.713 143.636 352.692 151.946 351.232 153.576C348.022 154.446 350.792 147.386 348.742 146.716C347.212 146.216 338.132 146.556 335.792 146.626C334.842 146.656 330.062 147.936 330.062 146.396V137.646Z" fill="#0622EC"/>
<path d="M262.062 159.146V161.646H253.562C253.402 160.996 253.652 159.146 254.312 159.146H262.062Z" fill="#DBE1FF"/>
<path d="M582.539 328.24C583.049 329.88 587.449 328.51 588.769 328.47C590.899 328.4 603.019 329.01 603.539 328.49C603.809 328.22 602.939 323.85 604.368 322.95C605.798 322.05 616.589 321.23 615.059 325.72C614.079 345.07 616.288 365.55 615.059 384.76C614.999 385.66 614.919 388.03 614.219 388.53C613.089 389.34 605.109 389.4 604.279 387.99C603.489 386.66 604.829 383.58 603.219 383.05C601.089 382.35 592.329 383.1 589.269 383C588.149 382.97 582.539 381.61 582.539 383.23V439.23C583.759 440.87 587.839 439.04 588.709 441.09C589.319 442.53 589.549 450.98 587.789 450.98H521.539C521.099 448.87 520.449 442.71 521.289 440.98C522.389 438.72 527.049 441.39 527.539 438.73L526.789 382.98H399.789C397.019 382.98 398.549 371.93 398.559 370.25C398.699 353.28 397.159 336.26 398.669 319.36C411.579 303.78 425.319 288.9 437.779 272.96C439.409 269.36 430.889 268.07 431.639 264.3C431.889 263.05 440.829 255.38 441.049 253.22C441.109 252.66 439.639 249.19 439.449 249.07C438.949 248.75 434.769 249.05 433.409 248.86C409.689 245.57 408.649 212.78 430.029 206.74C440.789 203.7 451.129 209.3 455.389 219.38C455.959 220.72 456.719 224.96 457.139 225.38C457.639 225.88 462.309 227.65 463.169 227.42C465.929 226.67 473.489 214.68 475.879 214.06C478.819 213.29 481.899 220.5 484.799 218.52C494.889 205.99 505.679 194.05 516.009 181.73C519.999 176.97 523.589 171.53 527.979 167.2C528.869 166.61 529.719 166.56 530.739 166.46C546.229 164.98 564.049 167.65 579.799 166.46C580.549 166.16 582.519 167.16 582.519 167.74V328.24H582.539ZM579.539 291.99V170.74C579.539 170.69 578.839 169.99 578.789 169.99H530.289C517.489 184.06 505.669 199.04 493.299 213.5C479.099 230.09 464.279 246.23 450.279 262.98C449.009 264.5 440.679 274.54 440.609 275.33C440.539 276.12 441.539 276.77 442.029 277.25C448.119 283.11 456.179 289.5 462.799 294.98C467.179 298.61 471.689 302.09 476.049 305.73L477.249 306.03L527.789 245L530.529 244.49V291.99H579.529H579.539ZM433.919 209.12C418.339 211.15 411.789 231.12 423.779 241.5C438.969 254.65 461.299 235.41 451.249 218.03C447.889 212.21 440.739 208.23 433.919 209.12ZM441.479 268.92L480.809 222.98C481.729 221.44 477.319 217.59 476.059 218.21C474.519 218.97 469.649 225.48 468.059 227.25C466.879 228.57 465.929 229.75 464.829 231.01C455.239 241.95 445.879 253.07 436.279 264C435.209 265.71 440.409 269.54 441.479 268.92ZM454.539 237.49C455.649 237.76 455.649 236.84 456.139 236.34C458.649 233.77 463.479 229.71 457.039 228.99C456.939 232.01 455.669 234.77 454.539 237.49ZM454.289 238L453.549 238.74C453.549 239.26 454.799 238.44 454.289 238ZM452.789 239.5L451.549 240.74L451.789 240.98L453.029 239.74L452.789 239.5ZM443.549 250.49C446.219 247.63 449.359 244.92 451.299 241.5C448.479 244.21 445.649 246.17 442.049 247.74L443.549 250.49ZM527.529 251.49C526.089 250.49 521.049 258.04 520.019 259.23C504.149 277.55 488.879 296.41 473.519 315.23C469.819 319.77 465.359 323.79 462.529 328.99L519.799 329.52L527.809 328.53L527.519 251.5L527.529 251.49ZM435.689 282.84L470.539 312.77C471.639 313.62 474.559 309.16 474.499 308.81L438.529 278.22C437.909 277.99 434.349 281.31 435.689 282.84ZM401.539 321.24V378.74C401.539 378.79 402.239 379.49 402.289 379.49H471.039V331.99H460.289C458.319 331.99 457.309 330.96 458.309 329.01L469.489 315.24L433.289 284C422.549 296.27 411.669 308.48 401.539 321.24ZM579.539 295.49H530.539V299.99C541.899 300.46 553.379 300.71 564.809 300.51C567.719 300.46 570.399 300.53 573.289 300.53C575.329 300.53 577.389 299.61 579.539 299.99V295.49ZM579.539 303.49H530.539V331.24C530.539 331.29 529.839 331.99 529.789 331.99H482.539V379.49H530.539V427.99H579.539V379.49H592.039V331.99H580.289C580.239 331.99 579.539 331.29 579.539 331.24V303.49ZM607.039 325.49V385.49H611.539C611.629 365.67 612.569 345.79 611.819 325.96C611.179 325.04 608.219 325.65 607.039 325.49ZM479.539 331.99C476.649 332.62 474.329 329.71 474.019 333.72C473.119 345.09 474.059 359.26 474.569 370.72C474.699 373.63 474.429 376.59 474.549 379.49C475.489 379.46 479.549 379.83 479.549 378.74V331.99H479.539ZM604.039 331.99H595.539V379.49H604.039V331.99ZM579.539 431.49L530.539 430.99V439.99L579.539 440.49V431.49ZM586.039 442.99H524.039V447.99H586.039V442.99Z" fill="#0622EC"/>
<path d="M579.539 291.99H530.539V244.49L527.799 245L477.259 306.03L476.059 305.73C471.689 302.09 467.179 298.61 462.809 294.98C456.199 289.49 448.129 283.11 442.039 277.25C441.539 276.77 440.549 276.1 440.619 275.33C440.689 274.56 449.019 264.51 450.289 262.98C464.279 246.23 479.109 230.08 493.309 213.5C505.679 199.04 517.509 184.07 530.299 169.99H578.799C578.849 169.99 579.549 170.69 579.549 170.74V291.99H579.539Z" fill="#DBE1FF"/>
<path d="M579.539 303.49V331.24C579.539 331.29 580.239 331.99 580.289 331.99H592.039V379.49H579.539V427.99H530.539V379.49H482.539V331.99H529.789C529.839 331.99 530.539 331.29 530.539 331.24V303.49H579.539ZM552.999 350.45C553.769 349.92 555.149 354.104 550.589 355.344C551.209 357.044 550.369 348.72 550.589 349.7C550.779 350.52 552.519 350.77 552.989 350.45H552.999Z" fill="#DBE1FF"/>
<path d="M401.539 321.24C411.669 308.48 422.549 296.27 433.289 284L469.489 315.24L458.309 329.01C457.309 330.96 458.309 331.99 460.289 331.99H471.039V379.49H402.289C402.239 379.49 401.539 378.79 401.539 378.74V321.24Z" fill="#DBE1FF"/>
<path d="M527.529 251.49L527.819 328.52L519.809 329.51L462.539 328.98C465.359 323.78 469.819 319.76 473.529 315.22C488.889 296.4 504.159 277.54 520.029 259.22C521.049 258.04 526.099 250.49 527.539 251.48L527.529 251.49Z" fill="#FEFEFE"/>
<path d="M433.919 209.12C440.739 208.23 447.889 212.21 451.249 218.03C461.299 235.41 438.959 254.65 423.779 241.5C411.789 231.12 418.339 211.15 433.919 209.12ZM444.349 223.81C445.729 221.7 445.949 219.92 445.429 217.36C444.279 211.81 433.779 209.74 436.149 216.13C436.649 217.48 440.779 222.78 436.559 220.74C434.589 219.79 435.479 217.09 431.079 216.22C426.089 215.24 421.349 218 421.219 223.33C421.069 229.28 428.319 223.29 429.559 224.49C429.969 229.41 429.049 226.36 426.709 227.35C424.759 228.18 423.429 232.17 423.539 234.22C423.709 237.39 428.639 243.66 431.439 240.86C433.239 239.06 429.959 235.22 431.319 232.98C436.079 233.8 433.839 234.96 434.789 238.02C436.089 242.23 446.019 243.55 446.989 238.62C447.959 233.69 439.549 237.01 439.069 232.99C440.939 232.55 442.659 233.99 444.319 234C449.039 234.01 454.349 227.88 450.349 223.97C446.899 220.59 446.159 227.07 443.079 227.49C442.379 224.91 443.709 224.84 444.389 223.81H444.349Z" fill="#FEFEFE"/>
<path d="M579.539 431.49V440.49L530.539 439.99V430.99L579.539 431.49Z" fill="#DBE1FF"/>
<path d="M441.479 268.92C440.409 269.54 435.209 265.71 436.279 264C445.879 253.07 455.239 241.95 464.829 231.01C465.929 229.75 466.879 228.57 468.059 227.25C469.649 225.48 474.519 218.97 476.059 218.21C477.319 217.59 481.729 221.43 480.809 222.98L441.479 268.92Z" fill="#DBE1FF"/>
<path d="M604.039 331.99H595.539V379.49H604.039V331.99Z" fill="#FEFEFE"/>
<path d="M586.039 442.99H524.039V447.99H586.039V442.99Z" fill="#DBE1FF"/>
<path d="M607.039 325.49C608.229 325.65 611.179 325.04 611.819 325.96C612.569 345.79 611.629 365.67 611.539 385.49H607.039V325.49Z" fill="#FEFEFE"/>
<path d="M479.539 331.99V378.74C479.539 379.83 475.469 379.46 474.539 379.49C474.429 376.58 474.689 373.63 474.559 370.72C474.049 359.25 473.109 345.09 474.009 333.72C474.329 329.72 476.639 332.63 479.529 331.99H479.539Z" fill="#DBE1FF"/>
<path d="M435.69 282.84C434.35 281.31 437.91 277.99 438.53 278.22L474.5 308.81C474.56 309.16 471.64 313.62 470.54 312.77L435.69 282.84Z" fill="#DBE1FF"/>
<path d="M579.539 295.49V299.99C577.389 299.61 575.329 300.54 573.289 300.53C570.399 300.53 567.729 300.46 564.809 300.51C553.369 300.71 541.899 300.45 530.529 299.99V295.49H579.529H579.539Z" fill="#DBE1FF"/>
<path d="M454.539 237.49C455.669 234.77 456.949 232.01 457.039 228.99C463.479 229.71 458.649 233.78 456.139 236.34C455.649 236.84 455.649 237.76 454.539 237.49Z" fill="#DBE1FF"/>
<path d="M443.549 250.49L442.049 247.74C445.639 246.17 448.469 244.21 451.299 241.5C449.359 244.92 446.219 247.63 443.549 250.49Z" fill="#DBE1FF"/>
<path d="M454.289 238C454.799 238.45 453.539 239.27 453.549 238.74L454.289 238Z" fill="#DBE1FF"/>
<path d="M452.795 239.495L451.551 240.739L451.784 240.972L453.029 239.728L452.795 239.495Z" fill="#DBE1FF"/>
<path d="M444.35 223.81C443.68 224.84 442.34 224.91 443.04 227.49C446.12 227.07 446.86 220.59 450.31 223.97C454.32 227.89 449 234.02 444.28 234C442.62 234 440.9 232.55 439.03 232.99C439.52 237 447.88 233.92 446.95 238.62C445.98 243.55 436.05 242.23 434.75 238.02C433.81 234.96 436.05 233.8 431.28 232.98C429.92 235.22 433.2 239.06 431.4 240.86C428.6 243.66 423.67 237.38 423.5 234.22C423.39 232.17 424.71 228.18 426.67 227.35C429.01 226.36 429.93 229.4 429.52 224.49C428.29 223.29 421.04 229.28 421.18 223.33C421.31 218 426.05 215.23 431.04 216.22C435.44 217.09 434.55 219.79 436.52 220.74C440.75 222.78 436.61 217.48 436.11 216.13C433.74 209.74 444.25 211.81 445.39 217.36C445.92 219.92 445.7 221.7 444.31 223.81H444.35ZM434.22 229.81C438.05 233.79 442.59 224.63 436.3 224.44C432.73 224.33 432 227.5 434.22 229.81Z" fill="#0622EC"/>
<path d="M434.22 229.81C432 227.5 432.73 224.34 436.3 224.44C442.59 224.63 438.05 233.78 434.22 229.81Z" fill="#FEFEFE"/>
</svg>
