<svg width="186" height="39" viewBox="0 0 186 39" fill="none" xmlns="http://www.w3.org/2000/svg">
<g clip-path="url(#clip0_4404_2750)">
<path d="M0.0800781 0.0856018H45.8761C49.0709 0.0856018 52.1348 1.35474 54.3939 3.61381C56.653 5.87289 57.9221 8.93685 57.9221 12.1317V27.5076C57.9221 30.2926 56.8158 32.9636 54.8465 34.9329C52.8772 36.9022 50.2062 38.0085 47.4212 38.0085H13.8681C10.2113 38.0085 6.70425 36.5559 4.11849 33.9701C1.53274 31.3844 0.0800781 27.8773 0.0800781 24.2205V0.0856018Z" fill="#0622EC"/>
<path d="M21.1964 28.2972C14.648 28.2972 10.1775 25.6907 10.5285 20.835C10.8816 16.1848 14.648 13.7302 21.1964 13.7302C25.3544 13.7302 29.5103 15.0142 32.0612 16.7969C33.5592 13.0668 32.5298 15.622 34.0214 11.892C30.1694 9.18273 26.5699 8.36525 21.1579 8.36525C12.0586 8.36525 5.86328 13.4756 5.86328 21.1432C5.86328 29.8316 13.1564 33.9211 21.1579 33.9211C24.569 33.9211 30.7258 33.4097 34.0214 30.5977L32.0205 25.8448C29.4332 27.6852 25.1982 28.2972 21.1964 28.2972Z" fill="white"/>
<path d="M36.3809 7.2075V33.9211H40.6951V7.2075H36.3809Z" fill="white"/>
<path d="M45.0797 13.5269V33.9211H49.394V13.5269H45.0797ZM47.2369 4.173C45.3537 4.173 44.0996 5.5533 44.0996 7.64836C44.0996 9.74342 45.3537 11.128 47.2369 11.128C49.12 11.128 50.3741 9.74769 50.3741 7.65264C50.3741 5.55758 49.12 4.173 47.2369 4.173Z" fill="white"/>
<path d="M92.3988 4.75507H86.9161L78.767 21.3016L70.62 4.75507H65.1309L63.3633 27.3599H67.3522L68.7047 10.4967C68.8802 11.0403 76.5093 26.0053 76.5093 26.0053H81.0204C81.0204 26.0053 88.6517 11.0403 88.825 10.4967L90.1775 27.3599H94.16L92.3988 4.75507Z" fill="white"/>
<path d="M114.113 27.3599L114.076 15.0185C114.076 11.8085 110.678 9.05006 105.473 9.05006C102.075 9.05006 98.6061 9.5016 96.0403 12.7116L98.2252 15.8767C100.686 12.9834 103.879 12.84 104.99 12.84C108.628 12.84 110.053 14.2438 110.019 15.3288C109.948 16.8268 107.001 16.8653 104.294 16.8653H101.347C97.3222 16.8653 95.3105 19.5767 95.3105 22.2902C95.3105 25.0038 97.3222 27.6702 101.347 27.6702C107.173 27.6702 109.325 25.68 110.644 23.0585L110.505 27.3535L114.113 27.3599ZM102.214 24.0151C100.34 24.0151 98.9528 23.4266 98.9528 22.2046C98.9528 20.8051 100.686 19.81 103.635 19.81H106.584C107.868 19.81 109.118 19.5382 110.124 18.7699C109.047 21.9799 106.689 24.0151 102.214 24.0151Z" fill="white"/>
<path d="M126.876 16.6C124.172 16.6 120.114 16.6 120.114 15.3331C120.114 13.39 123.271 13.2552 124.415 13.2552C127.276 13.2706 130.061 14.1673 132.393 15.8232L133.75 12.1702C131.67 10.8134 128.828 9.32184 124.976 9.2769C119.01 9.23196 116.512 12.2151 116.652 15.0549C116.754 20.4798 122.93 20.0732 125.704 20.208C130.412 20.3899 131.394 20.5697 131.394 21.706C131.394 22.928 127.127 23.4694 124.974 23.3346C121.783 23.1527 120.846 22.5663 117.655 20.8479L116.303 24.7363C118.729 26.3627 122.545 27.3578 126.085 27.3578C130.628 27.3578 134.756 25.7763 134.859 21.9778C134.925 18.9518 132.635 16.692 126.876 16.6Z" fill="white"/>
<path d="M145.192 22.6134C143.734 22.6134 142.521 21.8451 142.521 19.3584V13.0733H146.752V9.22126H142.523V4.708H138.885V9.22982H136.531V13.0818H138.885V19.5917C138.885 24.747 141.937 27.3235 145.305 27.3235C146.557 27.312 147.785 26.9852 148.877 26.3734L147.49 22.1233C146.759 22.4196 145.981 22.5855 145.192 22.6134Z" fill="white"/>
<path d="M159.831 23.3816C157.091 23.3816 154.594 22.4315 153.518 20.0368H167.706C169.371 15.8767 165.729 9.13993 159.146 9.23195C155.26 9.27689 149.537 11.7614 150.158 19.5382C150.749 26.7264 157.41 27.4048 159.525 27.4048C163.377 27.4048 165.215 26.7264 167.99 24.9631L166.985 21.3486C164.828 22.6606 162.355 23.3632 159.831 23.3816ZM159.137 13.253C162.709 13.253 164.41 15.6948 164.757 16.6449H153.759C154.177 15.3802 155.322 13.253 159.137 13.253Z" fill="white"/>
<path d="M181.269 9.00511C178.945 9.00511 175.649 10.5416 174.087 13.39L173.291 9.27689H169.891V27.3599H173.88V20.0368C173.88 15.6969 178.008 13.7067 180.437 13.7067C180.922 13.7067 181.789 13.7966 182.136 13.9785L183.246 14.6205L185.673 11.2307C184.565 10.135 182.97 9.00511 181.269 9.00511Z" fill="white"/>
<path d="M65.6183 32.4403L67.5079 30.1119H66.806L65.1154 32.2241H64.0111V30.1119H63.3691V34.9184H64.0111V32.7784H65.1068L66.8787 34.9184H67.6449L65.6183 32.4403Z" fill="white"/>
<path d="M69.1438 30.1119L69.0624 31.8239C69.0296 32.3846 68.9925 32.8354 68.9512 33.1764C68.921 33.4755 68.8338 33.7661 68.6944 34.0324C68.6438 34.1387 68.5636 34.228 68.4633 34.2896C68.363 34.3511 68.247 34.3822 68.1294 34.3791C68.0529 34.3747 67.977 34.3632 67.9025 34.3449L67.8555 34.8991C68.0064 34.9443 68.1624 34.9702 68.3199 34.9762C68.7907 34.9762 69.1159 34.7044 69.2978 34.1694C69.5134 33.4268 69.6307 32.6591 69.6467 31.886L69.7109 30.6962H72.0092V34.9269H72.6512V30.1119H69.1438Z" fill="white"/>
<path d="M78.4184 30.1119L75.2084 33.9297V30.1119H74.5664V34.9184H75.1506L78.3456 31.1006V34.9184H78.9876V30.1119H78.4184Z" fill="white"/>
<path d="M85.6777 30.1119L83.604 33.5745L81.5689 30.1119H80.9141V34.9184H81.5068V31.1092L83.4607 34.3342H83.7538L85.6991 31.1242V34.9248H86.2919V30.1119H85.6777Z" fill="white"/>
<path d="M91.2843 30.5485C90.9504 30.2339 90.4668 30.0777 89.8419 30.0777C89.4785 30.0765 89.1173 30.1336 88.7719 30.2468C88.4521 30.3489 88.1549 30.5116 87.8967 30.7261L88.1877 31.2098C88.4006 31.0278 88.645 30.8864 88.9089 30.7925C89.1908 30.6938 89.4875 30.6439 89.7863 30.6448C90.1527 30.6178 90.5155 30.7336 90.7985 30.9679C90.9204 31.0914 91.0146 31.2394 91.0747 31.4022C91.1349 31.5649 91.1596 31.7386 91.1473 31.9117V32.2049H89.6215C88.9752 32.2049 88.5051 32.3304 88.2112 32.5815C88.0671 32.7007 87.9523 32.8515 87.8759 33.0222C87.7994 33.193 87.7633 33.379 87.7704 33.5659C87.7643 33.7599 87.8039 33.9526 87.8861 34.1285C87.9682 34.3043 88.0906 34.4583 88.2433 34.5781C88.6138 34.8512 89.0678 34.9866 89.5273 34.9612C89.8754 34.9693 90.2205 34.896 90.5353 34.7472C90.8031 34.6214 91.0268 34.4178 91.1773 34.163V34.9141H91.8V31.9416C91.7872 31.3253 91.6181 30.8631 91.2843 30.5485ZM91.1388 33.4739C91.0253 33.7712 90.8208 34.0251 90.5545 34.1993C90.2719 34.3732 89.9445 34.4602 89.6129 34.4497C89.2963 34.4692 88.9821 34.3843 88.7184 34.2079C88.6146 34.1326 88.531 34.0329 88.475 33.9175C88.419 33.8022 88.3924 33.6748 88.3974 33.5466C88.3974 32.9753 88.8104 32.6906 89.6301 32.6906H91.1388V33.4739Z" fill="white"/>
<path d="M92.6621 30.1119V30.6876H94.4811V34.9184H95.1231V30.6876H96.94V30.1119H92.6621Z" fill="white"/>
<path d="M101.813 30.1119L98.6029 33.9297V30.1119H97.9609V34.9184H98.5452L101.742 31.1006V34.9184H102.384V30.1119H101.813Z" fill="white"/>
<path d="M107.281 30.1119V32.3975C106.804 32.6147 106.289 32.7355 105.766 32.7527C105.424 32.7729 105.085 32.6738 104.807 32.4724C104.689 32.3737 104.596 32.2483 104.536 32.1065C104.475 31.9647 104.45 31.8107 104.461 31.657V30.1119H103.819V31.6934C103.802 31.9159 103.837 32.1393 103.921 32.3461C104.004 32.5529 104.135 32.7375 104.302 32.8854C104.692 33.171 105.17 33.3111 105.653 33.2813C106.217 33.2748 106.774 33.1509 107.287 32.9175V34.9184H107.929V30.1119H107.281Z" fill="white"/>
<path d="M114.048 32.528C114.055 32.0864 113.951 31.65 113.746 31.259C113.552 30.9025 113.264 30.6063 112.913 30.403C112.551 30.1928 112.138 30.0855 111.719 30.0927C111.298 30.086 110.884 30.1932 110.519 30.403C110.163 30.6084 109.872 30.9085 109.678 31.2697C109.468 31.6572 109.362 32.092 109.369 32.5323C109.364 32.9727 109.475 33.4067 109.69 33.7906C109.9 34.1591 110.209 34.461 110.583 34.6616C110.945 34.8459 111.342 34.9513 111.748 34.9709C112.153 34.9904 112.559 34.9237 112.937 34.775C113.248 34.6498 113.523 34.449 113.737 34.1908L113.371 33.7735C113.195 33.9757 112.976 34.1352 112.729 34.24C112.47 34.3498 112.191 34.4044 111.91 34.4005C111.428 34.418 110.958 34.2546 110.591 33.9425C110.42 33.7888 110.281 33.6025 110.182 33.3946C110.083 33.1867 110.027 32.9612 110.016 32.7313H114.037L114.048 32.528ZM110.018 32.2434C110.045 31.8048 110.236 31.3925 110.553 31.0878C110.875 30.8025 111.291 30.6451 111.721 30.6451C112.152 30.6451 112.567 30.8025 112.89 31.0878C113.208 31.3914 113.399 31.8044 113.425 32.2434H110.018Z" fill="white"/>
<path d="M118.342 34.2143C118.068 34.337 117.77 34.3951 117.47 34.3844C117.17 34.3736 116.877 34.2942 116.613 34.1523C116.339 34.0008 116.116 33.7724 115.971 33.4953C115.81 33.1951 115.729 32.858 115.738 32.5173C115.73 32.176 115.81 31.8385 115.971 31.5372C116.117 31.2604 116.34 31.0316 116.613 30.8781C116.898 30.7185 117.221 30.638 117.548 30.6448C117.822 30.6398 118.094 30.6984 118.342 30.816C118.587 30.9361 118.795 31.1211 118.943 31.351L119.433 31.03C119.249 30.7245 118.981 30.4786 118.661 30.3217C118.315 30.1563 117.936 30.0736 117.552 30.0798C117.108 30.0714 116.669 30.1783 116.279 30.3901C115.91 30.5919 115.604 30.8919 115.395 31.2568C115.18 31.6424 115.071 32.078 115.078 32.5194C115.072 32.9614 115.181 33.3974 115.395 33.7842C115.605 34.1494 115.911 34.4506 116.279 34.6552C116.67 34.8662 117.108 34.9724 117.552 34.9633C117.934 34.9697 118.312 34.8869 118.657 34.7215C118.979 34.5674 119.249 34.3218 119.433 34.0153L118.948 33.6879C118.798 33.9161 118.589 34.0983 118.342 34.2143Z" fill="white"/>
<path d="M123.003 32.4403L124.893 30.1119H124.189L122.5 32.2241H121.396V30.1119H120.754V34.9184H121.396V32.7784H122.492L124.261 34.9184H125.03L123.003 32.4403Z" fill="white"/>
<path d="M129.119 30.5485C128.785 30.2339 128.305 30.0777 127.676 30.0777C127.313 30.0758 126.951 30.1329 126.606 30.2468C126.285 30.3489 125.986 30.5116 125.727 30.7261L126.022 31.2098C126.233 31.027 126.477 30.8854 126.741 30.7925C127.022 30.6938 127.318 30.6439 127.616 30.6448C127.983 30.6183 128.346 30.734 128.631 30.9679C128.752 31.0918 128.845 31.24 128.905 31.4026C128.965 31.5653 128.989 31.7388 128.977 31.9117V32.2049H127.454C126.81 32.2049 126.339 32.3304 126.041 32.5815C125.897 32.701 125.783 32.8519 125.707 33.0225C125.63 33.1932 125.594 33.379 125.6 33.5659C125.594 33.7599 125.634 33.9526 125.716 34.1284C125.798 34.3043 125.921 34.4583 126.073 34.5781C126.444 34.8505 126.898 34.9859 127.357 34.9612C127.705 34.9695 128.051 34.8962 128.365 34.7472C128.632 34.6201 128.856 34.4168 129.007 34.163V34.9141H129.626V31.9416C129.621 31.3253 129.455 30.8631 129.119 30.5485ZM128.973 33.4739C128.86 33.7712 128.655 34.0251 128.389 34.1993C128.107 34.3729 127.78 34.4599 127.449 34.4497C127.133 34.4695 126.818 34.3846 126.555 34.2079C126.451 34.1324 126.368 34.0326 126.312 33.9173C126.256 33.802 126.229 33.6747 126.234 33.5466C126.234 32.976 126.645 32.6906 127.466 32.6906H128.964L128.973 33.4739Z" fill="white"/>
<path d="M133.084 30.112C132.551 30.0851 132.024 30.2356 131.586 30.54C131.284 30.8078 131.092 31.1778 131.047 31.5788C131.001 31.9798 131.106 32.3835 131.34 32.7121C131.561 32.9762 131.861 33.1629 132.196 33.2449L131.002 34.9248H131.702L132.819 33.3348H134.507V34.9248H135.1V30.112H133.084ZM134.507 32.8447H133.054C132.147 32.8447 131.693 32.4881 131.693 31.7747C131.693 31.0514 132.164 30.6876 133.101 30.6876H134.507V32.8447Z" fill="white"/>
<path d="M141.72 32.4403L143.609 30.1119H142.905L141.217 32.2241H140.113V30.1119H139.471V34.9184H140.113V32.7784H141.208L142.982 34.9184H143.749L141.72 32.4403Z" fill="white"/>
<path d="M148.767 31.2547C148.562 30.8903 148.259 30.5902 147.894 30.388C147.508 30.1843 147.079 30.0778 146.643 30.0778C146.207 30.0778 145.777 30.1843 145.392 30.388C145.025 30.59 144.721 30.8901 144.514 31.2547C144.304 31.6414 144.193 32.0748 144.193 32.5152C144.193 32.9555 144.304 33.3889 144.514 33.7756C144.721 34.1414 145.025 34.4429 145.392 34.6466C145.776 34.853 146.206 34.961 146.643 34.961C147.079 34.961 147.509 34.853 147.894 34.6466C148.26 34.4427 148.562 34.1412 148.767 33.7756C148.972 33.3872 149.079 32.9545 149.079 32.5152C149.079 32.0758 148.972 31.6431 148.767 31.2547ZM148.193 33.4931C148.049 33.7712 147.825 34.0004 147.551 34.1522C147.27 34.3047 146.954 34.3846 146.634 34.3846C146.314 34.3846 145.999 34.3047 145.717 34.1522C145.444 33.9997 145.22 33.7706 145.075 33.4931C144.922 33.1899 144.842 32.8549 144.842 32.5152C144.842 32.1754 144.922 31.8404 145.075 31.5372C145.221 31.2601 145.444 31.0312 145.717 30.8781C145.999 30.7256 146.314 30.6457 146.634 30.6457C146.954 30.6457 147.27 30.7256 147.551 30.8781C147.825 31.0305 148.048 31.2596 148.193 31.5372C148.345 31.8408 148.424 32.1756 148.424 32.5152C148.424 32.8547 148.345 33.1895 148.193 33.4931Z" fill="white"/>
<path d="M155.297 30.1119L153.224 33.5745L151.186 30.1119H150.529V34.9184H151.122V31.1092L153.067 34.3342H153.361L155.306 31.1242V34.9248H155.899V30.1119H155.297Z" fill="white"/>
<path d="M157.811 30.1119V34.9184H158.453V30.6876H161.466V34.9184H162.108V30.1119H157.811Z" fill="white"/>
<path d="M167.134 30.5485C166.796 30.2339 166.317 30.0777 165.69 30.0777C165.326 30.0761 164.965 30.1331 164.62 30.2467C164.299 30.3489 164.002 30.5116 163.742 30.7261L164.036 31.2097C164.248 31.0269 164.493 30.8854 164.757 30.7925C165.038 30.6936 165.334 30.6437 165.632 30.6448C165.999 30.619 166.362 30.7346 166.646 30.9679C166.767 31.092 166.86 31.2402 166.92 31.4029C166.979 31.5656 167.003 31.739 166.991 31.9117V32.2048H165.469C164.823 32.2048 164.352 32.3304 164.055 32.5815C163.911 32.701 163.797 32.8519 163.72 33.0225C163.644 33.1932 163.607 33.379 163.614 33.5659C163.609 33.7598 163.649 33.9522 163.731 34.1279C163.813 34.3036 163.935 34.4578 164.087 34.5781C164.458 34.8505 164.912 34.9859 165.371 34.9612C165.719 34.9697 166.064 34.8964 166.379 34.7472C166.646 34.6208 166.87 34.4174 167.021 34.163V34.9141H167.639V31.9416C167.622 31.3253 167.457 30.8631 167.134 30.5485ZM166.985 33.4739C166.872 33.7716 166.667 34.0257 166.4 34.1993C166.119 34.3726 165.793 34.4596 165.463 34.4497C165.146 34.4698 164.831 34.3849 164.566 34.2079C164.463 34.1321 164.38 34.0322 164.325 33.9169C164.269 33.8017 164.243 33.6745 164.247 33.5466C164.247 32.9753 164.656 32.6906 165.48 32.6906H166.978L166.985 33.4739Z" fill="white"/>
<path d="M173.086 30.1119V32.2519H170.062V30.1119H169.42V34.9184H170.062V32.7976H173.086V34.9184H173.728V30.1119H173.086Z" fill="white"/>
<path d="M179.495 30.1119L176.285 33.9297V30.1119H175.643V34.9184H176.227L179.426 31.1006V34.9184H180.068V30.1119H179.495Z" fill="white"/>
<path d="M183.656 30.112C183.124 30.0851 182.597 30.2356 182.158 30.54C181.857 30.8078 181.664 31.1778 181.619 31.5788C181.574 31.9798 181.678 32.3835 181.912 32.7121C182.134 32.9762 182.434 33.1629 182.768 33.2449L181.574 34.9248H182.278L183.391 33.3348H185.08V34.9248H185.672V30.112H183.656ZM185.08 32.8447H183.631C182.719 32.8447 182.265 32.4874 182.265 31.7747C182.265 31.0621 182.736 30.6876 183.674 30.6876H185.08V32.8447Z" fill="white"/>
</g>
<defs>
<clipPath id="clip0_4404_2750">
<rect width="185.752" height="38.52" fill="white"/>
</clipPath>
</defs>
</svg>
