<svg width="0" height="0" class="hidden">
  <symbol fill="none" xmlns="http://www.w3.org/2000/svg" viewBox="0 0 16 16" id="ic_area">
    <path d="M1.85449 15.2812H11.8962V12.6146H16.0004V2.56104H1.85449V15.2812ZM10.0516 6.93176C9.92566 6.93176 9.83228 6.98865 9.77942 7.08618L9.30823 6.86267C9.42603 6.6311 9.69006 6.46057 10.1085 6.46057C10.5554 6.46057 10.8561 6.66772 10.8561 6.99683C10.8561 7.1593 10.7952 7.30151 10.531 7.53308L10.3076 7.724H10.9088V8.18713H9.42188V7.81738L10.0679 7.26489C10.1898 7.16333 10.2142 7.09827 10.2142 7.04553C10.2141 6.98059 10.1654 6.93176 10.0516 6.93176ZM9.04834 9.51562H8.1748L8.16675 8.2196L7.54919 9.25964H7.12671L6.50916 8.26428V9.51562H5.63562V6.67175H6.42383L7.3501 8.18713L8.25208 6.67175H9.04016L9.04834 9.51562Z" fill="currentColor"></path>
    <path d="M1.85449 0.6875H16.0004V1.625H1.85449V0.6875Z" fill="currentColor"></path>
    <path d="M0 2.56104H0.9375V15.2812H0V2.56104Z" fill="currentColor"></path>
  </symbol>
  <symbol fill="none" xmlns="http://www.w3.org/2000/svg" viewBox="0 0 24 24" id="ic_arr_hor">
    <path d="M9 6L15 12L9 18" stroke="currentColor" stroke-width="1.5" stroke-linecap="round" stroke-linejoin="round"></path>
  </symbol>
  <symbol fill="none" xmlns="http://www.w3.org/2000/svg" viewBox="0 0 24 16" id="ic_arr_ver">
    <path d="M6 6L12 10L18 6" stroke="currentColor" stroke-width="1.5" stroke-linecap="round" stroke-linejoin="round"></path>
  </symbol>
  <symbol fill="none" xmlns="http://www.w3.org/2000/svg" viewBox="0 0 24 24" id="ic_arrow_diagonal">
    <path d="M6.00005 19L19 5.99996M19 5.99996V18.48M19 5.99996H6.52005" stroke="currentColor" stroke-width="1.5" stroke-linecap="round" stroke-linejoin="round"></path>
  </symbol>
  <symbol fill="none" xmlns="http://www.w3.org/2000/svg" viewBox="0 0 21 14" id="ic_arrow_hor">
    <path d="M19.9934 7.434C20.3531 7.0743 20.3531 6.49113 19.9934 6.13143L14.1318 0.269889C13.7722 -0.0898042 13.189 -0.0898042 12.8293 0.269889C12.4696 0.629582 12.4696 1.21276 12.8293 1.57245L18.0395 6.78271L12.8293 11.993C12.4696 12.3527 12.4696 12.9358 12.8293 13.2955C13.189 13.6552 13.7722 13.6552 14.1318 13.2955L19.9934 7.434ZM0 6.78271L0 7.70377L19.3421 7.70377V6.78271V5.86166L0 5.86166L0 6.78271Z" fill="currentColor"></path>
  </symbol>
  <symbol fill="none" xmlns="http://www.w3.org/2000/svg" viewBox="0 0 32 32" id="ic_calc">
    <path d="M1.33398 28.6667V3.33333C1.33398 2.22876 2.22942 1.33333 3.33399 1.33333H28.6673C29.7719 1.33333 30.6673 2.22876 30.6673 3.33333V28.6667C30.6673 29.7712 29.7719 30.6667 28.6673 30.6667H3.33398C2.22941 30.6667 1.33398 29.7712 1.33398 28.6667Z" stroke="currentColor" stroke-width="1.5"></path>
    <path d="M20 9.33333H22.6667L25.3333 9.33333" stroke="currentColor" stroke-width="1.5" stroke-linecap="round" stroke-linejoin="round"></path>
    <path d="M20 20.6667H22.6667H25.3333" stroke="currentColor" stroke-width="1.5" stroke-linecap="round" stroke-linejoin="round"></path>
    <path d="M20 24.6667H22.6667H25.3333" stroke="currentColor" stroke-width="1.5" stroke-linecap="round" stroke-linejoin="round"></path>
    <path d="M6.66602 9.33334H9.33268M11.9993 9.33334H9.33268M9.33268 9.33334V6.66667M9.33268 9.33334V12" stroke="currentColor" stroke-width="1.5" stroke-linecap="round" stroke-linejoin="round"></path>
    <path d="M7.44812 24.5523L9.33374 22.6667M11.2194 20.7811L9.33374 22.6667M9.33374 22.6667L7.44812 20.7811M9.33374 22.6667L11.2194 24.5523" stroke="currentColor" stroke-width="1.5" stroke-linecap="round" stroke-linejoin="round"></path>
  </symbol>
  <symbol fill="none" xmlns="http://www.w3.org/2000/svg" viewBox="0 0 32 32" id="ic_car">
    <path d="M10.666 13.3333L21.3327 13.3333" stroke="currentColor" stroke-width="1.5" stroke-linecap="round" stroke-linejoin="round"></path>
    <path d="M9.33398 18.6667L10.6673 18.6667" stroke="currentColor" stroke-width="1.5" stroke-linecap="round" stroke-linejoin="round"></path>
    <path d="M21.334 18.6667L22.6673 18.6667" stroke="currentColor" stroke-width="1.5" stroke-linecap="round" stroke-linejoin="round"></path>
    <path d="M4 24V15.0772C4 14.8063 4.05502 14.5383 4.16171 14.2893L7.4805 6.54549C7.79566 5.81012 8.51874 5.33333 9.31879 5.33333H22.6812C23.4813 5.33333 24.2043 5.81012 24.5195 6.54549L27.8383 14.2893C27.945 14.5383 28 14.8063 28 15.0772V24M4 24V27.4C4 27.7314 4.26863 28 4.6 28H8.73333C9.0647 28 9.33333 27.7314 9.33333 27.4V24M4 24H9.33333M28 24V27.4C28 27.7314 27.7314 28 27.4 28H23.2667C22.9353 28 22.6667 27.7314 22.6667 27.4V24M28 24H22.6667M9.33333 24H22.6667" stroke="currentColor" stroke-width="1.5"></path>
  </symbol>
  <symbol fill="none" xmlns="http://www.w3.org/2000/svg" viewBox="0 0 16 16" id="ic_check">
    <path d="M8 0C3.60594 0 0 3.60594 0 8C0 12.3941 3.60594 16 8 16C12.3941 16 16 12.3941 16 8C16 3.60594 12.3941 0 8 0ZM7.03184 11.6388L3.52856 8.1355L4.85425 6.80981L7.09319 9.04875L11.588 4.96275L12.8496 6.34978L7.03184 11.6388Z" fill="currentColor"></path>
  </symbol>
  <symbol fill="none" xmlns="http://www.w3.org/2000/svg" viewBox="0 0 32 32" id="ic_deal">
    <path d="M27.6152 5.85687H22.0134C21.8755 5.85687 21.7637 5.74494 21.7637 5.60687V0L27.6152 5.85687Z" fill="currentColor"></path>
    <path d="M20.8254 7.73187C20.3085 7.73187 19.8885 7.31187 19.8885 6.79437V0H5.32102C4.80414 0 4.38477 0.42 4.38477 0.9375V13.8988L14.1379 13.8862C15.2267 12.7077 16.6476 11.9452 18.2773 11.9669C19.7141 11.9669 21.1129 12.545 22.116 13.5531C22.4179 13.8531 22.8191 14.0188 23.2466 14.0188H23.2504L27.6135 14.0106V7.73187H20.8254ZM13.3323 9.375H9.06789C8.55102 9.375 8.13102 8.955 8.13102 8.4375C8.13102 7.92 8.55102 7.5 9.06789 7.5H13.3323C13.8491 7.5 14.2685 7.92 14.2685 8.4375C14.2685 8.955 13.8491 9.375 13.3323 9.375ZM13.3323 5.625H9.06789C8.55102 5.625 8.13102 5.205 8.13102 4.6875C8.13102 4.17 8.55102 3.75 9.06789 3.75H13.3323C13.8491 3.75 14.2685 4.17 14.2685 4.6875C14.2685 5.205 13.8491 5.625 13.3323 5.625Z" fill="currentColor"></path>
    <path d="M22.0099 23.5507C22.0092 23.5507 18.6771 20.2512 18.6771 20.2512C18.5557 20.1311 18.3603 20.1314 18.2397 20.2524C17.8134 20.6799 16.9102 21.5856 16.9083 21.587C15.6334 22.7357 14.2072 23.3426 12.7829 23.3426C11.9909 23.3599 11.126 23.1342 10.4017 22.7395C9.28119 22.1445 8.70125 20.8645 8.98931 19.6245C9.1745 18.7726 9.6915 18.3086 10.323 17.6845C10.8561 17.1476 11.5454 16.4539 12.2392 15.7607L0.920687 15.7789C0.403188 15.7795 0.0010625 16.2001 0.0016875 16.7182L0 24.2845C0.000625 24.802 0.42125 25.2207 0.939313 25.2201L5.23069 25.212L11.5647 31.5251C12.1934 32.152 13.2072 32.157 13.8427 31.5439C14.4902 30.9182 14.4821 29.867 13.8615 29.2195L15.1539 30.507C15.772 31.1301 16.8176 31.147 17.4544 30.5026C18.0887 29.8657 18.0869 28.8357 17.4501 28.202C18.0875 28.8426 19.1375 28.8226 19.7512 28.197C20.3743 27.5795 20.3899 26.532 19.7468 25.8957C20.3639 26.5162 21.3651 26.5188 21.9867 25.9495C22.1715 25.7891 22.3077 25.5912 22.3954 25.3707C22.6491 24.7541 22.4998 24.0099 22.0099 23.5507Z" fill="currentColor"></path>
    <path d="M31.0131 15.8783L23.2547 15.8933C22.331 15.8952 21.4448 15.5308 20.7911 14.879C19.4643 13.5415 17.2538 13.489 15.9263 14.7715C14.7051 15.9171 11.9134 18.7465 11.0647 19.5977C10.936 19.7277 10.8535 19.8833 10.816 20.0471C10.7235 20.4408 10.8903 20.8765 11.281 21.084C12.7765 21.8777 14.3458 21.3721 15.6532 20.194L17.0363 18.8008C17.75 17.993 19.007 17.935 19.7743 18.6996L23.3016 22.1927C24.7789 23.5176 24.7358 26.131 23.1922 27.3865C22.9497 27.5965 22.6828 27.7708 22.3979 27.9065L24.321 27.9033C26.8083 27.8983 27.3396 25.5083 27.3396 25.5083L31.0319 25.5002C31.5494 25.4996 32.0006 25.079 32 24.5608V16.814C31.9986 16.2965 31.5305 15.8777 31.0131 15.8783Z" fill="currentColor"></path>
  </symbol>
  <symbol fill="none" xmlns="http://www.w3.org/2000/svg" viewBox="0 0 32 32" id="ic_diamond">
    <path d="M24.5664 8.12828V2.30347H18.3669L24.5664 8.12828Z" fill="currentColor"></path>
    <path d="M8.86304 9.35803H23.1369L16 2.65234L8.86304 9.35803Z" fill="currentColor"></path>
    <path d="M24.0709 11.2329H7.9292L16.0001 29.6966L24.0709 11.2329Z" fill="currentColor"></path>
    <path d="M7.43359 8.12828L13.633 2.30347H7.43359V8.12828Z" fill="currentColor"></path>
    <path d="M5.55863 9.35808V3.71558L0.203125 9.35808H5.55863Z" fill="currentColor"></path>
    <path d="M26.4414 9.35808H31.7969L26.4414 3.71558V9.35808Z" fill="currentColor"></path>
    <path d="M26.1173 11.2329L19.5347 26.2918L32.0001 11.2329H26.1173Z" fill="currentColor"></path>
    <path d="M5.88281 11.2329H0L12.4654 26.2918L5.88281 11.2329Z" fill="currentColor"></path>
  </symbol>
  <symbol fill="none" xmlns="http://www.w3.org/2000/svg" viewBox="0 0 32 32" id="ic_file">
    <path d="M6.625 32H25.375C26.9259 32 28.1875 30.7384 28.1875 29.1875V9.375H21.625C20.0741 9.375 18.8125 8.11337 18.8125 6.5625V0H6.625C5.07413 0 3.8125 1.26163 3.8125 2.8125V29.1875C3.8125 30.7384 5.07413 32 6.625 32ZM10.375 13.1875H21.625C22.1432 13.1875 22.5625 13.6068 22.5625 14.125C22.5625 14.6432 22.1432 15.0625 21.625 15.0625H10.375C9.85681 15.0625 9.4375 14.6432 9.4375 14.125C9.4375 13.6068 9.85681 13.1875 10.375 13.1875ZM10.375 16.9375H21.625C22.1432 16.9375 22.5625 17.3568 22.5625 17.875C22.5625 18.3932 22.1432 18.8125 21.625 18.8125H10.375C9.85681 18.8125 9.4375 18.3932 9.4375 17.875C9.4375 17.3568 9.85681 16.9375 10.375 16.9375ZM10.375 20.6875H21.625C22.1432 20.6875 22.5625 21.1068 22.5625 21.625C22.5625 22.1432 22.1432 22.5625 21.625 22.5625H10.375C9.85681 22.5625 9.4375 22.1432 9.4375 21.625C9.4375 21.1068 9.85681 20.6875 10.375 20.6875ZM10.375 24.4375H17.875C18.3932 24.4375 18.8125 24.8568 18.8125 25.375C18.8125 25.8932 18.3932 26.3125 17.875 26.3125H10.375C9.85681 26.3125 9.4375 25.8932 9.4375 25.375C9.4375 24.8568 9.85681 24.4375 10.375 24.4375Z" fill="currentColor"></path>
    <path d="M21.625 7.49952H27.6382L20.6875 0.548828V6.56202C20.6875 7.07927 21.1077 7.49952 21.625 7.49952Z" fill="currentColor"></path>
  </symbol>
  <symbol fill="none" xmlns="http://www.w3.org/2000/svg" viewBox="0 0 36 36" id="ic_file2">
    <path d="M18.4945 18.225L14.7895 21.93C12.7345 23.985 12.7345 27.3 14.7895 29.355C16.8445 31.41 20.1595 31.41 22.2145 29.355L28.0495 23.52C32.1445 19.425 32.1445 12.765 28.0495 8.67001C23.9545 4.57501 17.2945 4.57501 13.1995 8.67001L6.83953 15.03C3.32953 18.54 3.32953 24.24 6.83953 27.765" stroke="currentColor" stroke-width="1.5" stroke-linecap="round" stroke-linejoin="round"></path>
  </symbol>
  <symbol fill="none" xmlns="http://www.w3.org/2000/svg" viewBox="0 0 16 16" id="ic_flat">
    <path d="M15.7708 13.6846C15.7708 13.6846 15.6216 13.6846 15.572 13.6846C15.4631 13.6846 15.4631 13.5558 15.4631 13.5558V4.54239C15.4631 4.31549 15.2774 4.12984 15.0505 4.12984C15.0505 4.12984 12.6569 4.12984 11.859 4.12984C11.7444 4.12984 11.7505 4.0212 11.7505 4.0212V2.28362C11.7505 2.26643 11.7601 2.24713 11.8172 2.24713C11.9432 2.24713 12.0464 2.14399 12.0464 2.01793V1.61084C12.0464 1.48478 11.9432 1.38164 11.8172 1.38164H4.40653C4.28047 1.38164 4.17733 1.48478 4.17733 1.61084V2.01793C4.17733 2.14399 4.28047 2.24713 4.40653 2.24713C4.47313 2.24713 4.47327 2.30681 4.47327 2.31373V3.98114C4.47327 3.98114 4.48459 4.12988 4.38718 4.12988C3.52545 4.12988 0.940392 4.12988 0.940392 4.12988C0.713488 4.12988 0.527839 4.31553 0.527839 4.54244C0.527839 4.54244 0.527839 11.3239 0.527839 13.5845C0.527839 13.6704 0.481266 13.6847 0.387204 13.6847C0.265547 13.6847 0.229196 13.6847 0.229196 13.6847C0.103138 13.6847 0 13.7878 0 13.9139V14.3892C0 14.5152 0.103138 14.6184 0.229196 14.6184H15.7708C15.8969 14.6184 16 14.5152 16 14.3892V13.9139C16 13.7878 15.8969 13.6846 15.7708 13.6846ZM8.98793 6.1062H10.3596C10.4605 6.1062 10.543 6.18871 10.543 6.28955V7.66129C10.543 7.76214 10.4605 7.84465 10.3596 7.84465H8.98793C8.88704 7.84465 8.80457 7.76214 8.80457 7.66129V6.28955C8.80457 6.18871 8.88704 6.1062 8.98793 6.1062ZM8.80457 5.25533V3.88359C8.80457 3.78274 8.88704 3.70023 8.98793 3.70023H10.3596C10.4605 3.70023 10.543 3.78274 10.543 3.88359V5.25533C10.543 5.35618 10.4605 5.43869 10.3596 5.43869H8.98793C8.88704 5.43869 8.80457 5.35618 8.80457 5.25533ZM8.98793 8.42736H10.3596C10.4605 8.42736 10.543 8.50987 10.543 8.61071V9.98245C10.543 10.0833 10.4605 10.1658 10.3596 10.1658H8.98793C8.88704 10.1658 8.80457 10.0833 8.80457 9.98245V8.61071C8.80457 8.50991 8.88704 8.42736 8.98793 8.42736ZM9.1915 11.1851C9.2923 11.1851 9.37486 11.2676 9.37486 11.3685V13.4925C9.37486 13.5933 9.2923 13.6758 9.1915 13.6758H7.06754C6.96674 13.6758 6.88418 13.5933 6.88418 13.4925V11.3685C6.88418 11.2676 6.96674 11.1851 7.06754 11.1851H9.1915ZM7.42151 5.25533C7.42151 5.35618 7.339 5.43869 7.23815 5.43869H5.86641C5.76557 5.43869 5.68306 5.35618 5.68306 5.25533V3.88359C5.68306 3.78274 5.76557 3.70023 5.86641 3.70023H7.23815C7.339 3.70023 7.42151 3.78274 7.42151 3.88359V5.25533ZM5.86641 6.1062H7.23815C7.339 6.1062 7.42151 6.18871 7.42151 6.28955V7.66129C7.42151 7.76214 7.339 7.84465 7.23815 7.84465H5.86641C5.76557 7.84465 5.68306 7.76214 5.68306 7.66129V6.28955C5.68306 6.18871 5.76557 6.1062 5.86641 6.1062ZM5.86641 8.42736H7.23815C7.339 8.42736 7.42151 8.50987 7.42151 8.61071V9.98245C7.42151 10.0833 7.339 10.1658 7.23815 10.1658H5.86641C5.76557 10.1658 5.68306 10.0833 5.68306 9.98245V8.61071C5.68306 8.50991 5.76557 8.42736 5.86641 8.42736ZM12.2905 6.24715C12.2905 6.14631 12.3731 6.0638 12.4739 6.0638H13.8456C13.9464 6.0638 14.029 6.14631 14.029 6.24715V7.61889C14.029 7.71974 13.9464 7.80225 13.8456 7.80225H12.4739C12.3731 7.80225 12.2905 7.71974 12.2905 7.61889V6.24715ZM12.2905 8.65316C12.2905 8.55231 12.3731 8.4698 12.4739 8.4698H13.8456C13.9464 8.4698 14.029 8.55231 14.029 8.65316V10.0249C14.029 10.1257 13.9464 10.2083 13.8456 10.2083H12.4739C12.3731 10.2083 12.2905 10.1257 12.2905 10.0249V8.65316ZM12.2905 10.9743C12.2905 10.8734 12.3731 10.7909 12.4739 10.7909H13.8456C13.9464 10.7909 14.029 10.8734 14.029 10.9743V12.346C14.029 12.4469 13.9464 12.5294 13.8456 12.5294H12.4739C12.3731 12.5294 12.2905 12.4469 12.2905 12.346V10.9743ZM1.96192 6.24715C1.96192 6.14631 2.04443 6.0638 2.14528 6.0638H3.51701C3.61786 6.0638 3.70037 6.14631 3.70037 6.24715V7.61889C3.70037 7.71974 3.61786 7.80225 3.51701 7.80225H2.14528C2.04443 7.80225 1.96192 7.71974 1.96192 7.61889V6.24715ZM1.96192 8.65316C1.96192 8.55231 2.04443 8.4698 2.14528 8.4698H3.51701C3.61786 8.4698 3.70037 8.55231 3.70037 8.65316V10.0249C3.70037 10.1257 3.61786 10.2083 3.51701 10.2083H2.14528C2.04443 10.2083 1.96192 10.1257 1.96192 10.0249V8.65316ZM1.96192 10.9743C1.96192 10.8734 2.04443 10.7909 2.14528 10.7909H3.51701C3.61786 10.7909 3.70037 10.8734 3.70037 10.9743V12.346C3.70037 12.4469 3.61786 12.5294 3.51701 12.5294H2.14528C2.04443 12.5294 1.96192 12.4469 1.96192 12.346V10.9743Z" fill="currentColor"></path>
  </symbol>
  <symbol fill="none" xmlns="http://www.w3.org/2000/svg" viewBox="0 0 32 32" id="ic_help">
    <path d="M32.0005 21.6567C32.0005 17.6858 29.7224 14.1418 26.3105 12.418C26.2046 20.0317 20.0317 26.2046 12.418 26.3105C14.1418 29.7224 17.6858 32.0005 21.6567 32.0005C23.5186 32.0005 25.3291 31.5046 26.9199 30.5625L31.9553 31.9553L30.5625 26.9199C31.5046 25.3291 32.0005 23.5186 32.0005 21.6567Z" fill="currentColor"></path>
    <path d="M24.4375 12.2188C24.4375 5.4812 18.9563 0 12.2188 0C5.4812 0 0 5.4812 0 12.2188C0 14.4146 0.584473 16.5525 1.69434 18.4294L0.0449219 24.3923L6.00806 22.7432C7.88501 23.853 10.023 24.4375 12.2188 24.4375C18.9563 24.4375 24.4375 18.9563 24.4375 12.2188ZM10.3438 9.375H8.46875C8.46875 7.30713 10.1509 5.625 12.2188 5.625C14.2866 5.625 15.9688 7.30713 15.9688 9.375C15.9688 10.4246 15.5244 11.4334 14.7493 12.1423L13.1563 13.6003V15.0625H11.2813V12.7747L13.4834 10.759C13.877 10.3989 14.0938 9.90747 14.0938 9.375C14.0938 8.34107 13.2527 7.5 12.2188 7.5C11.1848 7.5 10.3438 8.34107 10.3438 9.375ZM11.2813 16.9375H13.1563V18.8125H11.2813V16.9375Z" fill="currentColor"></path>
  </symbol>
  <symbol fill="none" xmlns="http://www.w3.org/2000/svg" viewBox="0 0 16 16" id="ic_hourglass">
    <path d="M10.5205 6.33759C11.5813 5.37044 13.0158 4.06241 13.1466 0.9375H14.0938V0H1.90625V0.9375H2.85341C2.98416 4.06241 4.41872 5.37044 5.47953 6.33759C6.19112 6.98637 6.59375 7.38347 6.59375 8C6.59375 8.61653 6.19112 9.01363 5.47953 9.66241C4.41872 10.6296 2.98416 11.9376 2.85341 15.0625H1.90625V16H14.0938V15.0625H13.1466C13.0158 11.9376 11.5813 10.6296 10.5205 9.66241C9.80888 9.01363 9.40625 8.61653 9.40625 8C9.40625 7.38347 9.80888 6.98637 10.5205 6.33759ZM7.53125 11.5137C7.38647 11.5436 7.24344 11.587 7.10384 11.6448L4.23269 12.8329C4.70156 11.6407 5.45675 10.9518 6.11116 10.3552C6.84147 9.68937 7.53125 9.06047 7.53125 8V11.5137ZM9.88884 10.3552C10.5433 10.9518 11.2984 11.6407 11.7673 12.8328L8.89616 11.6447C8.75656 11.587 8.61353 11.5435 8.46875 11.5137V8C8.46875 9.06047 9.15853 9.68937 9.88884 10.3552ZM4.21622 3.125C3.98956 2.53441 3.83303 1.82131 3.79206 0.9375H12.2079C12.1669 1.82131 12.0104 2.53441 11.7837 3.125H4.21622Z" fill="currentColor"></path>
  </symbol>
  <symbol fill="none" xmlns="http://www.w3.org/2000/svg" viewBox="0 0 16 16" id="ic_house">
    <path d="M15.5686 6.95923C15.5683 6.95886 15.5679 6.9585 15.5675 6.95813L9.04079 0.431641C8.76259 0.15332 8.39272 0 7.99928 0C7.60585 0 7.23598 0.153198 6.95766 0.431519L0.434343 6.95471C0.432145 6.95691 0.429948 6.95923 0.427751 6.96143C-0.143538 7.53601 -0.142562 8.46826 0.430558 9.04138C0.692399 9.30334 1.03822 9.45508 1.40798 9.47095C1.42299 9.47241 1.43813 9.47314 1.45339 9.47314H1.71352V14.2762C1.71352 15.2267 2.48683 16 3.43752 16H5.99098C6.24977 16 6.45973 15.7902 6.45973 15.5312V11.7656C6.45973 11.3319 6.81252 10.9791 7.24623 10.9791H8.75233C9.18605 10.9791 9.53883 11.3319 9.53883 11.7656V15.5312C9.53883 15.7902 9.74867 16 10.0076 16H12.5611C13.5117 16 14.285 15.2267 14.285 14.2762V9.47314H14.5263C14.9196 9.47314 15.2894 9.31995 15.5679 9.04163C16.1416 8.46753 16.1419 7.53369 15.5686 6.95923Z" fill="currentColor"></path>
  </symbol>
  <symbol fill="none" xmlns="http://www.w3.org/2000/svg" viewBox="0 0 16 16" id="ic_list">
    <path d="M13.6829 1.34994C13.4175 1.084 13.0646 0.9375 12.6891 0.9375H12.0658V1.5625C12.0658 2.25175 11.5057 2.8125 10.8172 2.8125H5.19841C4.50991 2.8125 3.94978 2.25175 3.94978 1.5625V0.9375H3.32444C2.55075 0.9375 1.92063 1.56762 1.91975 2.34219L1.90625 14.5922C1.90581 14.9681 2.05175 15.3216 2.31709 15.5876C2.5825 15.8535 2.93544 16 3.31094 16H12.6755C13.4492 16 14.0794 15.3699 14.0802 14.5953L14.0938 2.34531C14.0942 1.96941 13.9483 1.61591 13.6829 1.34994ZM8.15919 5.625H11.4858C11.7444 5.625 11.9541 5.83488 11.9541 6.09375C11.9541 6.35262 11.7444 6.5625 11.4858 6.5625H8.15919C7.9006 6.5625 7.69097 6.35262 7.69097 6.09375C7.69097 5.83488 7.9006 5.625 8.15919 5.625ZM8.15919 8.75H11.4858C11.7444 8.75 11.9541 8.95988 11.9541 9.21875C11.9541 9.47762 11.7444 9.6875 11.4858 9.6875H8.15919C7.9006 9.6875 7.69097 9.47762 7.69097 9.21875C7.69097 8.95988 7.9006 8.75 8.15919 8.75ZM8.15919 11.875H11.4992C11.7578 11.875 11.9674 12.0849 11.9674 12.3438C11.9674 12.6026 11.7578 12.8125 11.4992 12.8125H8.15919C7.9006 12.8125 7.69097 12.6026 7.69097 12.3438C7.69097 12.0849 7.9006 11.875 8.15919 11.875ZM4.16972 5.6435C4.3526 5.46044 4.64903 5.46044 4.83191 5.6435L5.0865 5.89841L6.16631 4.81741C6.34919 4.63437 6.64563 4.63431 6.82847 4.81741C7.01131 5.00044 7.01131 5.29725 6.82847 5.48031L5.41756 6.89275C5.32975 6.98066 5.21066 7.03006 5.08647 7.03006C4.96228 7.03006 4.84319 6.98069 4.75538 6.89275L4.16969 6.30638C3.98684 6.12334 3.98685 5.82653 4.16972 5.6435ZM4.16972 9.00716C4.3526 8.82409 4.64903 8.82409 4.83191 9.00716L5.0865 9.26203L6.16631 8.18103C6.34916 7.998 6.64563 7.998 6.82847 8.18103C7.01131 8.36406 7.01131 8.66088 6.82847 8.84394L5.41756 10.2564C5.32978 10.3443 5.21066 10.3937 5.08647 10.3937C4.96228 10.3937 4.84319 10.3443 4.75538 10.2564L4.16969 9.67003C3.98684 9.487 3.98685 9.19022 4.16972 9.00716ZM4.16972 12.1322C4.3526 11.9491 4.64903 11.9491 4.83191 12.1322L5.0865 12.387L6.16631 11.306C6.34916 11.123 6.64563 11.123 6.82847 11.306C7.01131 11.4891 7.01131 11.7859 6.82847 11.9689L5.41756 13.3814C5.32978 13.4693 5.21066 13.5187 5.08647 13.5187C4.96228 13.5187 4.84319 13.4693 4.75538 13.3814L4.16969 12.795C3.98684 12.612 3.98685 12.3152 4.16972 12.1322Z" fill="currentColor"></path>
    <path d="M4.88672 1.5625C4.88672 1.73509 5.02647 1.875 5.19888 1.875H10.8176C10.99 1.875 11.1298 1.73509 11.1298 1.5625V0.3125C11.1298 0.139906 10.99 0 10.8176 0H5.19888C5.02647 0 4.88672 0.139906 4.88672 0.3125V1.5625Z" fill="currentColor"></path>
  </symbol>
  <symbol fill="none" xmlns="http://www.w3.org/2000/svg" viewBox="0 0 16 16" id="ic_location">
    <path d="M8 0C5.18859 0 2.84375 2.26469 2.84375 5.15625C2.84375 6.25631 3.17431 7.23725 3.80872 8.15644L7.60541 14.0808C7.78959 14.3688 8.21078 14.3682 8.39459 14.0808L12.2078 8.13628C12.8285 7.25875 13.1562 6.22834 13.1562 5.15625C13.1562 2.31309 10.8432 0 8 0ZM8 7.5C6.70772 7.5 5.65625 6.44853 5.65625 5.15625C5.65625 3.86397 6.70772 2.8125 8 2.8125C9.29228 2.8125 10.3438 3.86397 10.3438 5.15625C10.3438 6.44853 9.29228 7.5 8 7.5Z" fill="currentColor"></path>
    <path d="M11.6645 10.7717L9.30416 14.4619C8.69319 15.4145 7.30341 15.4114 6.69537 14.4629L4.33119 10.7727C2.25106 11.2536 0.96875 12.1347 0.96875 13.1875C0.96875 15.0144 4.5915 16 8 16C11.4085 16 15.0312 15.0144 15.0312 13.1875C15.0312 12.1339 13.7472 11.2524 11.6645 10.7717Z" fill="currentColor"></path>
  </symbol>
  <symbol fill="none" xmlns="http://www.w3.org/2000/svg" viewBox="0 0 32 32" id="ic_megaphone">
    <path d="M29.1919 13.2862L16.7114 0.8039C15.9753 0.069648 14.7846 0.0783355 14.0582 0.802962C13.3276 1.5354 13.3276 2.72465 14.0582 3.45615L26.5405 15.9376C27.2718 16.6689 28.4606 16.6689 29.1919 15.9376C29.9251 15.2044 29.9251 14.0194 29.1919 13.2862Z" fill="currentColor"></path>
    <path d="M13.1323 5.18164L13.0384 5.65252C12.3767 8.9624 10.7686 12.1068 8.59351 14.6554L15.384 21.4459C17.9322 19.2712 21.0333 17.6199 24.3433 16.9574L24.8151 16.8635L13.1323 5.18164Z" fill="currentColor"></path>
    <path d="M7.3485 16.0618L2.70768 20.7017C1.61112 21.7982 1.60655 23.5785 2.70768 24.6796L5.35906 27.331C6.45563 28.4275 8.23588 28.432 9.33701 27.331L13.9774 22.6906L7.3485 16.0618ZM8.01138 23.354C7.64519 23.7202 7.05188 23.7202 6.68569 23.354C6.3195 22.9878 6.3195 22.3945 6.68569 22.0283L8.01138 20.7026C8.37757 20.3364 8.97088 20.3364 9.33707 20.7026C9.70326 21.0688 9.70326 21.6621 9.33707 22.0283L8.01138 23.354Z" fill="currentColor"></path>
    <path d="M17.8916 27.8298L19.1669 26.5545C20.2681 25.4535 20.2645 23.6733 19.167 22.5776L18.2197 21.6296C17.6962 21.9813 17.1962 22.3635 16.71 22.7712L17.8413 23.9041C18.2066 24.2676 18.2092 24.8591 17.8413 25.2289L16.5449 26.5253L14.6398 24.6795L11.9883 27.331L16.2419 31.4527C16.9677 32.1804 18.1595 32.1845 18.8923 31.4517C19.6238 30.7202 19.6238 29.531 18.8923 28.7994L17.8916 27.8298Z" fill="currentColor"></path>
    <path d="M21.679 0C21.1608 0 20.7415 0.419313 20.7415 0.937502V2.81251C20.7415 3.33069 21.1608 3.75001 21.679 3.75001C22.1971 3.75001 22.6165 3.33069 22.6165 2.81251V0.937502C22.6165 0.419313 22.1971 0 21.679 0Z" fill="currentColor"></path>
    <path d="M29.179 7.5H27.304C26.7858 7.5 26.3665 7.91931 26.3665 8.4375C26.3665 8.95569 26.7858 9.375 27.304 9.375H29.179C29.6971 9.375 30.1165 8.95569 30.1165 8.4375C30.1165 7.91931 29.6971 7.5 29.179 7.5Z" fill="currentColor"></path>
    <path d="M27.9668 2.14964C27.6006 1.78345 27.0073 1.78345 26.6411 2.14964L24.7661 4.02464C24.3999 4.39083 24.3999 4.98415 24.7661 5.35034C25.1323 5.71652 25.7256 5.71659 26.0918 5.35034L27.9668 3.47533C28.333 3.10914 28.333 2.51583 27.9668 2.14964Z" fill="currentColor"></path>
  </symbol>
  <symbol fill="none" xmlns="http://www.w3.org/2000/svg" viewBox="0 0 16 16" id="ic_office">
    <path d="M2.07059 13.9922H1.44314C1.18337 13.9922 0.972549 13.7813 0.972549 13.5216C0.972549 13.2618 1.18337 13.051 1.44314 13.051H2.07059V11.9843H1.44314C1.18337 11.9843 0.972549 11.7735 0.972549 11.5137C0.972549 11.254 1.18337 11.0431 1.44314 11.0431H2.07059V9.97647H1.44314C1.18337 9.97647 0.972549 9.76565 0.972549 9.50588C0.972549 9.24612 1.18337 9.03529 1.44314 9.03529H2.07059V7.02745H0.470588C0.210824 7.02745 0 7.23827 0 7.49804V15.5294C0 15.7892 0.210824 16 0.470588 16H2.07194C2.07015 15.3744 2.07059 15.7818 2.07059 13.9922Z" fill="currentColor"></path>
    <path d="M9.85139 0.470588C9.85139 0.210824 9.64057 0 9.38081 0H5.36512C5.10535 0 4.89453 0.210824 4.89453 0.470588V1.06667H9.85139V0.470588Z" fill="currentColor"></path>
    <path d="M12.7685 6.27451C10.9868 6.27451 9.53711 7.72424 9.53711 9.50588C9.53711 10.9327 11.4653 12.9788 12.4532 13.8711C12.6326 14.0323 12.904 14.0326 13.0838 13.8711C14.0946 12.9581 15.9999 10.9246 15.9999 9.50588C15.9999 7.72424 14.5501 6.27451 12.7685 6.27451ZM13.5214 9.97647H12.0155C11.7558 9.97647 11.545 9.76565 11.545 9.50588C11.545 9.24612 11.7558 9.0353 12.0155 9.0353H13.5214C13.7812 9.0353 13.992 9.24612 13.992 9.50588C13.992 9.76565 13.7812 9.97647 13.5214 9.97647Z" fill="currentColor"></path>
    <path d="M15.5294 15.0588H11.7333V14.4875C10.454 13.2931 8.59603 11.251 8.59603 9.50588C8.59603 7.56235 9.93156 5.92502 11.7333 5.46353V2.47843C11.7333 2.21867 11.5225 2.00784 11.2627 2.00784H3.48231C3.22254 2.00784 3.01172 2.21867 3.01172 2.47843V16H15.5294C15.7893 16 16 15.7893 16 15.5294C16 15.2695 15.7893 15.0588 15.5294 15.0588ZM8.50191 3.01176H9.25486C9.51462 3.01176 9.72544 3.22259 9.72544 3.48235C9.72544 3.74212 9.51462 3.95294 9.25486 3.95294H8.50191C8.24215 3.95294 8.03133 3.74212 8.03133 3.48235C8.03133 3.22259 8.24215 3.01176 8.50191 3.01176ZM6.24309 11.9843H5.49015C5.23039 11.9843 5.01956 11.7735 5.01956 11.5137C5.01956 11.254 5.23039 11.0431 5.49015 11.0431H6.24309C6.50286 11.0431 6.71368 11.254 6.71368 11.5137C6.71368 11.7735 6.50286 11.9843 6.24309 11.9843ZM6.24309 9.97647H5.49015C5.23039 9.97647 5.01956 9.76565 5.01956 9.50588C5.01956 9.24612 5.23039 9.03529 5.49015 9.03529H6.24309C6.50286 9.03529 6.71368 9.24612 6.71368 9.50588C6.71368 9.76565 6.50286 9.97647 6.24309 9.97647ZM6.24309 7.96863H5.49015C5.23039 7.96863 5.01956 7.7578 5.01956 7.49804C5.01956 7.23827 5.23039 7.02745 5.49015 7.02745H6.24309C6.50286 7.02745 6.71368 7.23827 6.71368 7.49804C6.71368 7.7578 6.50286 7.96863 6.24309 7.96863ZM6.24309 5.96078H5.49015C5.23039 5.96078 5.01956 5.74996 5.01956 5.4902C5.01956 5.23043 5.23039 5.01961 5.49015 5.01961H6.24309C6.50286 5.01961 6.71368 5.23043 6.71368 5.4902C6.71368 5.74996 6.50286 5.96078 6.24309 5.96078ZM6.24309 3.95294H5.49015C5.23039 3.95294 5.01956 3.74212 5.01956 3.48235C5.01956 3.22259 5.23039 3.01176 5.49015 3.01176H6.24309C6.50286 3.01176 6.71368 3.22259 6.71368 3.48235C6.71368 3.74212 6.50286 3.95294 6.24309 3.95294ZM8.03133 5.4902C8.03133 5.23043 8.24215 5.01961 8.50191 5.01961H9.25486C9.51462 5.01961 9.72544 5.23043 9.72544 5.4902C9.72544 5.74996 9.51462 5.96078 9.25486 5.96078H8.50191C8.24215 5.96078 8.03133 5.74996 8.03133 5.4902Z" fill="currentColor"></path>
  </symbol>
  <symbol fill="none" xmlns="http://www.w3.org/2000/svg" viewBox="0 0 32 32" id="ic_payment_bank">
    <path d="M20.8878 6.1369V8.09939C20.8878 9.65023 19.6261 10.912 18.0753 10.912H8.03334C6.48249 10.912 5.22078 9.65023 5.22078 8.09939V6.13696C3.98625 6.48791 3.0791 7.62487 3.0791 8.97041V29.0542C3.0791 30.6785 4.40063 32.0001 6.02498 32.0001H20.0837C21.708 32.0001 23.0296 30.6785 23.0296 29.0542V8.97034C23.0296 7.62481 22.1224 6.48785 20.8878 6.1369ZM9.03755 26.9791C8.52004 26.9791 8.10003 26.5591 8.10003 26.0416C8.10003 25.524 8.52004 25.104 9.03755 25.104C9.55507 25.104 9.97508 25.524 9.97508 26.0416C9.97508 26.5591 9.55507 26.9791 9.03755 26.9791ZM9.03755 22.9623C8.52004 22.9623 8.10003 22.5423 8.10003 22.0248C8.10003 21.5073 8.52004 21.0873 9.03755 21.0873C9.55507 21.0873 9.97508 21.5073 9.97508 22.0248C9.97508 22.5423 9.55507 22.9623 9.03755 22.9623ZM13.0543 26.9791C12.5368 26.9791 12.1168 26.5591 12.1168 26.0416C12.1168 25.524 12.5368 25.104 13.0543 25.104C13.5718 25.104 13.9919 25.524 13.9919 26.0416C13.9919 26.5591 13.5718 26.9791 13.0543 26.9791ZM13.0543 22.9623C12.5368 22.9623 12.1168 22.5423 12.1168 22.0248C12.1168 21.5073 12.5368 21.0873 13.0543 21.0873C13.5718 21.0873 13.9919 21.5073 13.9919 22.0248C13.9919 22.5423 13.5718 22.9623 13.0543 22.9623ZM17.0711 26.9791C16.5535 26.9791 16.1335 26.5591 16.1335 26.0416C16.1335 25.524 16.5535 25.104 17.0711 25.104C17.5886 25.104 18.0086 25.524 18.0086 26.0416C18.0086 26.5591 17.5886 26.9791 17.0711 26.9791ZM17.0711 22.9623C16.5535 22.9623 16.1335 22.5423 16.1335 22.0248C16.1335 21.5073 16.5535 21.0873 17.0711 21.0873C17.5886 21.0873 18.0086 21.5073 18.0086 22.0248C18.0086 22.5423 17.5886 22.9623 17.0711 22.9623ZM19.0128 18.0081C19.0128 18.5258 18.593 18.9456 18.0753 18.9456H8.03334C7.51558 18.9456 7.09582 18.5258 7.09582 18.0081V13.9912C7.09582 13.4734 7.51558 13.0537 8.03334 13.0537H18.0753C18.593 13.0537 19.0128 13.4734 19.0128 13.9912V18.0081Z" fill="currentColor"></path>
    <path d="M8.9707 14.9287H17.1376V17.0705H8.9707V14.9287Z" fill="currentColor"></path>
    <path d="M24.9041 1.87427C23.2564 1.87427 21.8411 2.86685 21.2217 4.28639C23.3322 4.79946 24.9041 6.70426 24.9041 8.97037V17.5832L25.975 17.0478L27.5641 17.8424C27.9241 18.0222 28.3677 17.9555 28.6606 17.6527C28.8324 17.4751 28.9209 17.2329 28.9209 16.9859V5.89099C28.9209 3.67262 27.1225 1.87427 24.9041 1.87427Z" fill="currentColor"></path>
    <path d="M8.03322 9.03696H18.0751C18.5929 9.03696 19.0127 8.6172 19.0127 8.09944V5.89101C19.0127 2.80707 21.3945 0.269319 24.4151 0.0197505L12.4913 0C9.47395 0.252881 7.0957 2.78894 7.0957 5.87051V8.07894V8.09944C7.0957 8.6172 7.51546 9.03696 8.03322 9.03696Z" fill="currentColor"></path>
  </symbol>
  <symbol fill="none" xmlns="http://www.w3.org/2000/svg" viewBox="0 0 32 32" id="ic_payment_card">
    <path d="M4.9375 17.9137H7.78956V20.0189H4.9375V17.9137Z" fill="currentColor"></path>
    <path d="M30.104 12.3373H1.8966C0.862602 12.3373 0.0244141 13.1755 0.0244141 14.2095V30.1279C0.0244141 31.1618 0.862602 32 1.8966 32H30.104C31.138 32 31.9762 31.1618 31.9762 30.1278V14.2095C31.9762 13.1755 31.138 12.3373 30.104 12.3373ZM7.57504 27.9376H2.94116V26.0654H7.57504V27.9376ZM9.66216 20.331C9.66216 21.1912 8.96229 21.8911 8.10204 21.8911H4.62585C3.7656 21.8911 3.06573 21.1912 3.06573 20.331V17.6017C3.06573 16.7415 3.7656 16.0416 4.62585 16.0416H8.10198C8.96223 16.0416 9.6621 16.7415 9.6621 17.6017L9.66216 20.331ZM14.7365 27.9376H10.1026V26.0654H14.7365V27.9376ZM21.898 27.9376H17.2641V26.0654H21.898V27.9376ZM29.0594 27.9376H24.4255V26.0654H29.0594V27.9376Z" fill="currentColor"></path>
    <path d="M25.1567 4.5479L21.1572 0.548405C20.4261 -0.18272 19.2407 -0.18272 18.5095 0.548405L8.59277 10.4652H19.5775L25.1567 4.5479Z" fill="currentColor"></path>
    <path d="M25.0424 10.4651L27.9699 7.36031L26.4819 5.87231L22.1514 10.4651H25.0424Z" fill="currentColor"></path>
    <path d="M30.1039 10.4651C30.506 10.4651 30.8933 10.5296 31.2567 10.6475L29.2939 8.68475L27.6152 10.4652L30.1039 10.4651Z" fill="currentColor"></path>
  </symbol>
  <symbol fill="none" xmlns="http://www.w3.org/2000/svg" viewBox="0 0 32 32" id="ic_payment_money">
    <path d="M10.666 10.6666C16.7707 10.6666 21.3321 8.25329 21.3321 6.09544C21.3321 3.93779 16.7706 1.52441 10.666 1.52441C4.56147 1.52441 0 3.93779 0 6.09544C0 8.25329 4.56137 10.6666 10.666 10.6666Z" fill="currentColor"></path>
    <path d="M10.666 28.9517C11.557 28.9517 12.4146 28.8999 13.2304 28.8055C12.5428 27.9218 11.9741 26.9411 11.5481 25.888C11.2554 25.8978 10.9617 25.9046 10.6659 25.9046C7.17774 25.9046 3.87436 25.2134 1.36457 23.9585C0.870395 23.7114 0.41564 23.4459 0 23.1649V24.3806C0 26.5383 4.56137 28.9517 10.666 28.9517Z" fill="currentColor"></path>
    <path d="M10.6661 22.8566C10.6974 22.8566 10.7282 22.8561 10.7594 22.856C10.6969 22.3566 10.6643 21.8479 10.6643 21.3317C10.6643 20.8158 10.6968 20.3074 10.7594 19.8084C10.7282 19.8084 10.6973 19.8095 10.6661 19.8095C7.17794 19.8095 3.87467 19.1183 1.36477 17.8634C0.870497 17.6163 0.41564 17.3508 0 17.0699V18.2855C0.000101599 20.4433 4.56147 22.8566 10.6661 22.8566Z" fill="currentColor"></path>
    <path d="M10.6661 16.7614C10.9685 16.7614 11.2668 16.7553 11.5613 16.7438C12.0344 15.5832 12.6808 14.5112 13.469 13.5606C12.5565 13.6612 11.6186 13.7145 10.6661 13.7145C7.17794 13.7145 3.87467 13.0233 1.36477 11.7684C0.870497 11.5212 0.41564 11.2558 0 10.9748V12.1905C0.000101599 14.3483 4.56147 16.7614 10.6661 16.7614Z" fill="currentColor"></path>
    <path d="M15.2376 16.2806C14.5782 17.2719 14.1071 18.3985 13.8754 19.6092C13.7684 20.1673 13.7119 20.743 13.7119 21.3318C13.7119 21.7745 13.7442 22.2097 13.8053 22.6357C13.9553 23.6823 14.2832 24.6719 14.7573 25.5733C15.2547 26.5193 15.9127 27.3682 16.6954 28.0829C18.3217 29.5684 20.4848 30.4757 22.8558 30.4757C27.8977 30.4757 31.9997 26.3737 31.9997 21.3318C31.9997 16.2898 27.8977 12.1879 22.8558 12.1879C22.3347 12.1879 21.8237 12.2324 21.3261 12.3166C18.7914 12.7452 16.6083 14.2203 15.2376 16.2806Z" fill="currentColor"></path>
  </symbol>
  <symbol fill="none" xmlns="http://www.w3.org/2000/svg" viewBox="0 0 31 31" id="ic_plus">
    <path d="M12.4908 30.0872V0H17.5965V30.0872H12.4908ZM0 17.5965V12.4908H30.0872V17.5965H0Z" fill="currentColor"></path>
  </symbol>
  <symbol fill="none" xmlns="http://www.w3.org/2000/svg" viewBox="0 0 32 32" id="ic_rating">
    <path d="M16 8.98438L19.5173 10.8337L18.8455 6.91699L21.6929 4.14209L17.7588 3.5708L16 0L14.2412 3.5708L10.3071 4.14209L13.1545 6.91699L12.4827 10.8337L16 8.98438Z" fill="currentColor"></path>
    <path d="M27.8835 9.94556L26.1248 6.38159L24.366 9.94556L20.4338 10.5168L23.2793 13.291L22.6074 17.2085L26.1248 15.3591L29.644 17.2085L28.9702 13.291L32 10.5168L27.8835 9.94556Z" fill="currentColor"></path>
    <path d="M3.02979 13.291L2.35596 17.2085L5.87524 15.3591L9.39258 17.2085L8.7207 13.291L11.5662 10.5168L7.63403 9.94556L5.87524 6.38159L4.11646 9.94556L0 10.5168L3.02979 13.291Z" fill="currentColor"></path>
    <path d="M20.6875 17.875C20.6875 15.2905 18.5845 13.1875 16 13.1875C13.4155 13.1875 11.3125 15.2905 11.3125 17.875C11.3125 20.4595 13.4155 22.5625 16 22.5625C18.5845 22.5625 20.6875 20.4595 20.6875 17.875Z" fill="currentColor"></path>
    <path d="M9.4375 29.125V32H22.5625V29.125C22.5625 25.5068 19.6182 22.5625 16 22.5625C12.3818 22.5625 9.4375 25.5068 9.4375 29.125Z" fill="currentColor"></path>
    <path d="M30.0625 31C30.0625 28.4155 27.9595 26.3125 25.375 26.3125C24.8901 26.3125 24.4316 26.4077 23.9915 26.5449C24.2568 27.3633 24.4375 28.2195 24.4375 29.125V32H30.0625V31Z" fill="currentColor"></path>
    <path d="M29.125 22.5625C29.125 20.4944 27.4431 18.8125 25.375 18.8125C23.3069 18.8125 21.625 20.4944 21.625 22.5625C21.625 22.6819 21.6492 22.7947 21.6602 22.9111C22.5847 23.7539 23.3303 24.7825 23.8093 25.959C24.2874 26.1804 24.8145 26.3125 25.375 26.3125C27.4431 26.3125 29.125 24.6306 29.125 22.5625Z" fill="currentColor"></path>
    <path d="M10.3398 22.9111C10.3508 22.7947 10.375 22.6819 10.375 22.5625C10.375 20.4944 8.69312 18.8125 6.625 18.8125C4.55688 18.8125 2.875 20.4944 2.875 22.5625C2.875 24.6306 4.55688 26.3125 6.625 26.3125C7.18555 26.3125 7.71265 26.1804 8.19067 25.9592C8.66968 24.7825 9.41528 23.7539 10.3398 22.9111Z" fill="currentColor"></path>
    <path d="M1.9375 31V32H7.5625V29.125C7.5625 28.2195 7.74316 27.3633 8.00854 26.5449C7.56836 26.4077 7.10986 26.3125 6.625 26.3125C4.04053 26.3125 1.9375 28.4155 1.9375 31Z" fill="currentColor"></path>
  </symbol>
  <symbol fill="none" xmlns="http://www.w3.org/2000/svg" viewBox="0 0 32 32" id="ic_requests1">
    <path d="M31.9995 15.6743L15.6113 32H31.9995V15.6743ZM28.187 28.25H24.665L28.187 24.7279V28.25Z" fill="currentColor"></path>
    <path d="M22.5625 22.3979L24.6556 20.3048L22.5625 19.956V22.3979Z" fill="currentColor"></path>
    <path d="M16.9375 18.2461C19.2052 17.1749 20.6875 14.8687 20.6875 12.3125V11.375H7.5625V11.9939C7.5625 14.6636 9.03375 17.0751 11.2869 18.2021V20.0469C11.4022 21.4165 12.6711 22.625 14.125 22.625C15.5789 22.625 16.8194 21.4925 16.9375 20.0469V18.2461Z" fill="currentColor"></path>
    <path d="M7.5625 26.375H18.5854L20.6875 24.2729V19.6435L18.7997 19.3289V20.1228C18.5992 22.6112 16.5475 24.5 14.125 24.5C11.7025 24.5 9.65081 22.6112 9.45306 20.1989L9.45181 19.3301L7.5625 19.6444V26.375Z" fill="currentColor"></path>
    <path d="M3.8125 29.1875C3.8125 27.9669 4.59863 26.936 5.6875 26.5477V19.9562L2.36112 20.4992C0.993375 20.7234 0 21.8935 0 23.2814V32H3.8125V29.1875Z" fill="currentColor"></path>
    <path d="M5.6875 29.1875V32H12.9604L16.7104 28.25H6.625C6.10775 28.25 5.6875 28.6702 5.6875 29.1875Z" fill="currentColor"></path>
    <path d="M22.5625 9.5V7.625H20.6875V6.5625C20.6875 3.97794 18.5846 1.875 16 1.875H15.0625V0H13.1875V1.875H12.25C9.66544 1.875 7.5625 3.97794 7.5625 6.5625V7.625H5.6875V9.5C6.18738 9.5 22.752 9.5 22.5625 9.5Z" fill="currentColor"></path>
  </symbol>
  <symbol fill="none" xmlns="http://www.w3.org/2000/svg" viewBox="0 0 32 32" id="ic_requests2">
    <path d="M31.0625 0H27.25C26.7318 0 26.3125 0.419312 26.3125 0.9375V1.875H18.6398C18.2515 0.786125 17.2206 0 16 0C14.7794 0 13.7485 0.786125 13.3602 1.875H5.6875V0.9375C5.6875 0.419312 5.26819 0 4.75 0H0.9375C0.419312 0 0 0.419312 0 0.9375V4.6875C0 5.20569 0.419312 5.625 0.9375 5.625H4.75C5.26819 5.625 5.6875 5.20569 5.6875 4.6875V3.7375H9.53775C6.28419 5.77006 4.13888 9.34 3.88244 13.3384C2.75756 13.7066 1.9375 14.7537 1.9375 16C1.9375 17.5509 3.19913 18.8125 4.75 18.8125C6.30087 18.8125 7.5625 17.5509 7.5625 16C7.5625 14.8038 6.80869 13.7867 5.75375 13.3808C6.07362 8.923 9.18413 5.16575 13.5108 4.09375C13.9788 4.99856 14.9129 5.625 16 5.625C17.0871 5.625 18.0212 4.99856 18.4892 4.09375C22.8159 5.16569 25.9264 8.92294 26.2463 13.3807C25.1913 13.7867 24.4375 14.8038 24.4375 16C24.4375 17.5509 25.6991 18.8125 27.25 18.8125C28.8009 18.8125 30.0625 17.5509 30.0625 16C30.0625 14.7537 29.2424 13.7066 28.1176 13.3384C27.8611 9.34 25.7158 5.78256 22.4622 3.75H26.3125V4.6875C26.3125 5.20569 26.7318 5.625 27.25 5.625H31.0625C31.5807 5.625 32 5.20569 32 4.6875V0.9375C32 0.419312 31.5807 0 31.0625 0Z" fill="currentColor"></path>
    <path d="M22.3783 30.8372C21.8879 29.3366 20.4752 28.1875 18.8127 28.1875H13.1877C11.5252 28.1875 10.1124 29.3366 9.62206 30.8372C9.433 31.4157 9.92519 32 10.5339 32H21.4664C22.0751 32 22.5674 31.4157 22.3783 30.8372Z" fill="currentColor"></path>
    <path d="M24.28 19.23L16.9375 8.21619V17.1102C18.0264 17.4985 18.8125 18.5294 18.8125 19.75C18.8125 21.3009 17.5509 22.5625 16 22.5625C14.4491 22.5625 13.1875 21.3009 13.1875 19.75C13.1875 18.5294 13.9736 17.4985 15.0625 17.1102V8.21619L7.72001 19.23C7.47188 19.6017 7.52132 20.097 7.8372 20.4129C9.55826 22.1339 10.6584 24.3511 11.0829 26.7294C11.7342 26.4652 12.4425 26.3125 13.1875 26.3125H18.8125C19.5575 26.3125 20.2658 26.4652 20.9171 26.7293C21.3416 24.3509 22.4418 22.1339 24.1628 20.4129C24.4787 20.097 24.5281 19.6017 24.28 19.23Z" fill="currentColor"></path>
    <path d="M16 18.8125C15.4827 18.8125 15.0625 19.2327 15.0625 19.75C15.0625 20.2673 15.4827 20.6875 16 20.6875C16.5173 20.6875 16.9375 20.2673 16.9375 19.75C16.9375 19.2327 16.5173 18.8125 16 18.8125Z" fill="currentColor"></path>
  </symbol>
  <symbol fill="none" xmlns="http://www.w3.org/2000/svg" viewBox="0 0 32 32" id="ic_requests3">
    <path d="M18.0967 24.2284H7.4383C7.01821 24.2284 6.67773 24.5689 6.67773 24.989V30.3181C6.67773 30.7382 7.01821 31.0787 7.4383 31.0787H18.0967C18.5168 31.0787 18.8572 30.7382 18.8572 30.3181V24.9891C18.8572 24.569 18.5168 24.2284 18.0967 24.2284Z" fill="currentColor"></path>
    <path d="M31.2394 24.2284H20.5809C20.1608 24.2284 19.8203 24.5689 19.8203 24.989V30.3181C19.8203 30.7382 20.1608 31.0787 20.5809 31.0787H31.2394C31.6595 31.0787 31.9999 30.7382 31.9999 30.3181V24.9891C31.9999 24.569 31.6595 24.2284 31.2394 24.2284Z" fill="currentColor"></path>
    <path d="M7.4383 15.5406H18.0967C18.5168 15.5406 18.8572 15.2001 18.8572 14.78V9.451C18.8572 9.0309 18.5168 8.69043 18.0967 8.69043H7.4383C7.01821 8.69043 6.67773 9.0309 6.67773 9.451V14.78C6.67773 15.2 7.01821 15.5406 7.4383 15.5406Z" fill="currentColor"></path>
    <path d="M31.2394 8.69019H20.5809C20.1608 8.69019 19.8203 9.03066 19.8203 9.45075V14.7798C19.8203 15.1999 20.1608 15.5403 20.5809 15.5403H31.2394C31.6595 15.5403 31.9999 15.1999 31.9999 14.7798V9.45075C31.9999 9.03076 31.6595 8.69019 31.2394 8.69019Z" fill="currentColor"></path>
    <path d="M13.8455 7.77148H24.504C24.9241 7.77148 25.2646 7.43101 25.2646 7.01092V1.68189C25.2646 1.2618 24.9241 0.921326 24.504 0.921326H13.8455C13.4254 0.921326 13.085 1.2618 13.085 1.68189V7.01092C13.085 7.4309 13.4254 7.77148 13.8455 7.77148Z" fill="currentColor"></path>
    <path d="M13.3057 17.2199V22.5491C13.3057 22.9692 13.6461 23.3097 14.0662 23.3097H24.7246C25.1447 23.3097 25.4852 22.9692 25.4852 22.5491V17.2199C25.4852 16.7998 25.1447 16.4593 24.7246 16.4593H14.0662C13.6461 16.4592 13.3057 16.7998 13.3057 17.2199Z" fill="currentColor"></path>
    <path d="M12.1796 22.5491V17.2199C12.1796 16.7998 11.8391 16.4593 11.419 16.4593H0.760566C0.340471 16.4593 0 16.7998 0 17.2199V22.5491C0 22.9692 0.340471 23.3097 0.760566 23.3097H11.419C11.8391 23.3098 12.1796 22.9692 12.1796 22.5491Z" fill="currentColor"></path>
  </symbol>
  <symbol fill="none" xmlns="http://www.w3.org/2000/svg" viewBox="0 0 32 32" id="ic_requests4">
    <path d="M11.458 4.66538V1.875H20.5415V4.66538H22.4165V0.9375C22.4165 0.41975 21.9968 0 21.479 0H10.5205C10.0028 0 9.58301 0.41975 9.58301 0.9375V4.66538H11.458Z" fill="currentColor"></path>
    <path d="M30.52 16.0939C30.002 16.917 29.1121 17.4084 28.1396 17.4084H23.195C22.9795 17.9945 22.6145 18.44 22.3626 18.7473C22.3029 18.8201 22.2191 18.9222 22.1713 18.9877C22.1565 19.0732 22.1412 19.2186 22.1304 19.3214C22.0778 19.8218 22.0032 20.5279 21.585 21.1764V27.8438H31.0624C31.5801 27.8438 31.9999 27.4241 31.9999 26.9063V13.7424L30.52 16.0939Z" fill="currentColor"></path>
    <path d="M10.4149 21.1764C9.99663 20.5278 9.92206 19.8217 9.86944 19.3213C9.85862 19.2184 9.84331 19.0731 9.82862 18.9876C9.78075 18.9222 9.697 18.82 9.63731 18.7473C9.38538 18.44 9.02044 17.9945 8.80488 17.4084H3.83912C2.86306 17.4084 1.9715 16.9143 1.45419 16.0866L0 13.7599V26.9064C0 27.4241 0.41975 27.8439 0.9375 27.8439H10.4149V21.1764Z" fill="currentColor"></path>
    <path d="M31.0625 6.54041H0.9375C0.41975 6.54041 0 6.96016 0 7.47791V10.2222L3.04413 15.0928C3.21544 15.3669 3.51587 15.5334 3.83912 15.5334H8.77094C8.98019 14.8989 9.37162 14.4211 9.63744 14.0969C9.69706 14.0242 9.78088 13.922 9.82869 13.8565C9.84344 13.7711 9.85881 13.6257 9.86956 13.5228C9.935 12.9007 10.0339 11.9603 10.7859 11.2082C11.5382 10.456 12.4786 10.357 13.1008 10.2917C13.2036 10.2808 13.3491 10.2655 13.4345 10.2508C13.5 10.203 13.6022 10.1192 13.6749 10.0595C14.1361 9.6814 14.9079 9.04847 16.0001 9.04847C17.0922 9.04847 17.8641 9.68134 18.3252 10.0595C18.3979 10.1192 18.5002 10.203 18.5656 10.2508C18.6511 10.2655 18.7965 10.2808 18.8994 10.2917C19.5216 10.3571 20.4619 10.456 21.2141 11.2082C21.9663 11.9604 22.0652 12.9008 22.1306 13.5231C22.1414 13.6259 22.1568 13.7713 22.1714 13.8567C22.2193 13.9222 22.3031 14.0243 22.3627 14.097C22.6285 14.4212 23.0199 14.899 23.2292 15.5335H28.1399C28.4621 15.5335 28.7617 15.368 28.9333 15.0953L32 10.2222V7.47784C32 6.96009 31.5802 6.54041 31.0625 6.54041Z" fill="currentColor"></path>
    <path d="M18.8983 22.5526C18.7954 22.5635 18.65 22.5788 18.5646 22.5935C18.4991 22.6413 18.3969 22.7251 18.3242 22.7848C18.0084 23.0437 17.5468 23.4221 16.9365 23.6349V31.17L18.5806 31.9263C19.1079 32.1688 19.7091 31.7836 19.7091 31.2032V22.4314C19.4118 22.4986 19.1325 22.528 18.8983 22.5526Z" fill="currentColor"></path>
    <path d="M15.0617 23.6349C14.4514 23.4221 13.9898 23.0437 13.6741 22.7848C13.6013 22.7251 13.4991 22.6413 13.4336 22.5935C13.3482 22.5787 13.2027 22.5635 13.0999 22.5526C12.8657 22.528 12.5864 22.4985 12.2891 22.4314V31.2031C12.2891 31.7835 12.8903 32.1688 13.4176 31.9262L15.0617 31.1699V23.6349Z" fill="currentColor"></path>
    <path d="M21.4983 16.4221C21.4983 17.1203 20.6869 17.6521 20.4352 18.2592C20.1742 18.8886 20.362 19.836 19.8878 20.3103C19.4135 20.7846 18.466 20.5967 17.8367 20.8576C17.2296 21.1094 16.6978 21.9208 15.9997 21.9208C15.3015 21.9208 14.7697 21.1094 14.1626 20.8576C13.5332 20.5966 12.5858 20.7845 12.1115 20.3103C11.6372 19.836 11.8251 18.8885 11.5641 18.2592C11.3124 17.6521 10.501 17.1203 10.501 16.4221C10.501 15.724 11.3124 15.1921 11.5641 14.5851C11.8251 13.9557 11.6372 13.0083 12.1115 12.534C12.5858 12.0596 13.5332 12.2475 14.1625 11.9866C14.7697 11.7348 15.3015 10.9235 15.9996 10.9235C16.6977 10.9235 17.2296 11.7348 17.8367 11.9866C18.466 12.2476 19.4135 12.0597 19.8878 12.534C20.362 13.0083 20.1742 13.9557 20.4352 14.585C20.6869 15.1921 21.4983 15.724 21.4983 16.4221Z" fill="currentColor"></path>
  </symbol>
  <symbol fill="none" xmlns="http://www.w3.org/2000/svg" viewBox="0 0 32 32" id="ic_shield">
    <path d="M15.9995 9.90332C12.6374 9.90332 9.90234 12.6384 9.90234 16.0002C9.90234 19.3623 12.6374 22.0974 15.9995 22.0974C19.3613 22.0974 22.0964 19.3623 22.0964 16.0002C22.0964 12.6384 19.3613 9.90332 15.9995 9.90332ZM19.6194 14.852L15.2515 19.2199C15.0681 19.4033 14.8276 19.4951 14.5874 19.4951C14.3472 19.4951 14.1069 19.4035 13.9236 19.2199L12.2544 17.5508C11.8877 17.1843 11.8877 16.5898 12.2544 16.2231C12.6208 15.8564 13.2153 15.8564 13.582 16.2231L14.5874 17.2285L18.2917 13.5244C18.6582 13.1577 19.2527 13.1577 19.6194 13.5244C19.9861 13.8909 19.9861 14.4853 19.6194 14.852Z" fill="currentColor"></path>
    <path d="M29.5929 8.68241L29.592 8.65751C29.578 8.35013 29.5688 8.02494 29.5631 7.66313C29.537 5.89873 28.1344 4.43926 26.3698 4.34062C22.6906 4.1353 19.8444 2.9356 17.4125 0.565245L17.3918 0.54547C16.5986 -0.181823 15.4021 -0.181823 14.6086 0.54547L14.5878 0.565245C12.156 2.9356 9.30978 4.1353 5.63059 4.34087C3.8662 4.43926 2.46337 5.89873 2.43724 7.66337C2.43187 8.02274 2.42235 8.34794 2.40844 8.65751L2.40697 8.71537C2.33544 12.4671 2.24657 17.1362 3.80858 21.3743C4.66746 23.7048 5.96824 25.7307 7.67453 27.396C9.61789 29.2925 12.1633 30.7981 15.2399 31.8708C15.34 31.9057 15.444 31.9341 15.55 31.9553C15.6994 31.9851 15.8498 32 16.0002 32C16.1506 32 16.3012 31.9851 16.4504 31.9553C16.5563 31.9341 16.6611 31.9055 16.7617 31.8703C19.8347 30.7956 22.3774 29.2893 24.319 27.3931C26.0246 25.7273 27.3254 23.7009 28.185 21.3699C29.7528 17.1192 29.6642 12.4412 29.5929 8.68241ZM15.9997 23.9753C11.6023 23.9753 8.02488 20.398 8.02488 16.0005C8.02488 11.6031 11.6023 8.02567 15.9997 8.02567C20.3969 8.02567 23.9745 11.6031 23.9745 16.0005C23.9745 20.398 20.3969 23.9753 15.9997 23.9753Z" fill="currentColor"></path>
  </symbol>
  <symbol fill="none" xmlns="http://www.w3.org/2000/svg" viewBox="0 0 28 28" id="ic_sight">
    <path d="M9.12854 14.8237H3.32617C3.72729 20.0719 7.92904 24.2736 13.1772 24.6747V18.8724C11.1112 18.5242 9.47667 16.8897 9.12854 14.8237Z" fill="currentColor"></path>
    <path d="M18.8729 13.1767H24.6752C24.2741 7.92855 20.0724 3.7268 14.8242 3.32568V9.12805C16.8902 9.47619 18.5247 11.1107 18.8729 13.1767Z" fill="currentColor"></path>
    <path d="M14.8242 18.8724V24.6747C20.0724 24.2736 24.2741 20.0719 24.6752 14.8237H18.8729C18.5247 16.8897 16.8902 18.5242 14.8242 18.8724Z" fill="currentColor"></path>
    <path d="M13.1772 9.12805V3.32568C7.92904 3.7268 3.72729 7.92855 3.32617 13.1767H9.12854C9.47667 11.1107 11.1112 9.47619 13.1772 9.12805Z" fill="currentColor"></path>
    <path d="M13.9992 10.7061C12.1828 10.7061 10.7051 12.1838 10.7051 14.0002C10.7051 15.8165 12.1828 17.2943 13.9992 17.2943C15.8156 17.2943 17.2933 15.8165 17.2933 14.0002C17.2933 12.1838 15.8156 10.7061 13.9992 10.7061ZM14.8227 14.8237H13.1757V13.1766H14.8227V14.8237Z" fill="currentColor"></path>
    <path d="M24.6738 13.1763C24.7157 13.7235 24.7157 14.276 24.6738 14.8233H27.9993V13.1763H24.6738Z" fill="currentColor"></path>
    <path d="M14.8228 3.32547V0H13.1758V3.32547C13.723 3.28369 14.2755 3.28369 14.8228 3.32547Z" fill="currentColor"></path>
    <path d="M3.32547 13.1763H0V14.8233H3.32547C3.28369 14.2761 3.28369 13.7236 3.32547 13.1763Z" fill="currentColor"></path>
    <path d="M13.1758 24.6743V27.9998H14.8228V24.6743C14.2756 24.7161 13.7232 24.7161 13.1758 24.6743Z" fill="currentColor"></path>
  </symbol>
  <symbol fill="none" xmlns="http://www.w3.org/2000/svg" viewBox="0 0 24 24" id="ic_slider_arrow">
    <path d="M18.5 12H6M6 12L12 6M6 12L12 18" stroke="currentColor" stroke-width="1.5" stroke-linecap="round" stroke-linejoin="round"></path>
  </symbol>
  <symbol fill="none" xmlns="http://www.w3.org/2000/svg" viewBox="0 0 16 16" id="ic_star">
    <path d="M8 0L10.1607 5.83927L16 8L10.1607 10.1607L8 16L5.83927 10.1607L0 8L5.83927 5.83927L8 0Z" fill="currentColor"></path>
  </symbol>
  <symbol fill="none" xmlns="http://www.w3.org/2000/svg" viewBox="0 0 24 24" id="ic_tg">
    <path d="M5.61081 12.2246L8.36967 13.2534L9.44515 16.7136C9.49191 16.9474 9.77247 16.9942 9.95951 16.8539L11.5026 15.5914C11.6429 15.4511 11.8767 15.4511 12.0637 15.5914L14.8226 17.6021C15.0096 17.7423 15.2902 17.6488 15.3369 17.415L17.3944 7.59539C17.4411 7.36159 17.2073 7.12779 16.9735 7.22131L5.61081 11.6168C5.33025 11.7103 5.33025 12.1311 5.61081 12.2246ZM9.30487 12.739L14.729 9.41903C14.8226 9.37227 14.9161 9.51256 14.8226 9.55932L10.3804 13.721C10.2401 13.8612 10.0998 14.0483 10.0998 14.2821L9.95951 15.4043C9.95951 15.5446 9.72571 15.5914 9.67895 15.4043L9.11782 13.3469C8.97754 13.1131 9.07107 12.8325 9.30487 12.739Z" fill="currentColor"></path>
  </symbol>
  <symbol fill="none" xmlns="http://www.w3.org/2000/svg" viewBox="0 0 32 32" id="ic_wallet">
    <path d="M13.0625 4.85906C13.0625 3.13594 14.4644 1.73406 16.1875 1.73406H17.269L16.9428 0.827187C16.7593 0.317187 16.2787 0 15.7665 0C15.6245 0 15.4802 0.024375 15.339 0.07575L4.41072 4.05331C3.76104 4.28981 3.42666 5.00875 3.66454 5.65794L4.24197 7.23406H13.0625V4.85906Z" fill="currentColor"></path>
    <path d="M16.1875 3.60907C15.4971 3.60907 14.9375 4.1687 14.9375 4.85907V7.23407H25.875V4.85907C25.875 4.1687 25.3154 3.60907 24.625 3.60907H16.1875Z" fill="currentColor"></path>
    <path d="M29.1875 25.2653H24.8125C22.2278 25.2653 20.125 23.1625 20.125 20.5778C20.125 17.9931 22.2278 15.8903 24.8125 15.8903H29.1875V11.6091C29.1875 10.2284 28.0682 9.10907 26.6875 9.10907H2.5C1.11931 9.10907 0 10.2284 0 11.6091V29.5C0 30.8807 1.11931 32 2.5 32H26.6875C28.0682 32 29.1875 30.8807 29.1875 29.5V25.2653Z" fill="currentColor"></path>
    <path d="M31.0625 17.7653H24.8125C23.2617 17.7653 22 19.027 22 20.5778C22 22.1286 23.2617 23.3903 24.8125 23.3903H31.0625C31.5794 23.3903 32 22.9698 32 22.4528V18.7028C32 18.1859 31.5794 17.7653 31.0625 17.7653ZM24.8125 21.5153C24.2947 21.5153 23.875 21.0956 23.875 20.5778C23.875 20.0601 24.2947 19.6403 24.8125 19.6403C25.3303 19.6403 25.75 20.0601 25.75 20.5778C25.75 21.0956 25.3303 21.5153 24.8125 21.5153Z" fill="currentColor"></path>
  </symbol>
  <symbol fill="none" xmlns="http://www.w3.org/2000/svg" viewBox="0 0 24 24" id="ic_whatsapp">
    <path d="M16.7561 7.23789C15.5707 6.05664 13.9902 5.40039 12.322 5.40039C8.85366 5.40039 6.0439 8.20039 6.0439 11.6566C6.0439 12.7504 6.35122 13.8441 6.87805 14.7629L6 18.0004L9.33659 17.1254C10.2585 17.6066 11.2683 17.8691 12.322 17.8691C15.7902 17.8691 18.6 15.0691 18.6 11.6129C18.5561 9.99414 17.9415 8.41914 16.7561 7.23789ZM15.3512 13.8879C15.2195 14.2379 14.6049 14.5879 14.2976 14.6316C14.0341 14.6754 13.6829 14.6754 13.3317 14.5879C13.1122 14.5004 12.8049 14.4129 12.4537 14.2379C10.8732 13.5816 9.86342 12.0066 9.77561 11.8754C9.68781 11.7879 9.11707 11.0441 9.11707 10.2566C9.11707 9.46914 9.5122 9.11914 9.6439 8.94414C9.77561 8.76914 9.95122 8.76914 10.0829 8.76914C10.1707 8.76914 10.3024 8.76914 10.3902 8.76914C10.478 8.76914 10.6098 8.72539 10.7415 9.03164C10.8732 9.33789 11.1805 10.1254 11.2244 10.1691C11.2683 10.2566 11.2683 10.3441 11.2244 10.4316C11.1805 10.5191 11.1366 10.6066 11.0488 10.6941C10.961 10.7816 10.8732 10.9129 10.8293 10.9566C10.7415 11.0441 10.6537 11.1316 10.7415 11.2629C10.8293 11.4379 11.1366 11.9191 11.6195 12.3566C12.2341 12.8816 12.7171 13.0566 12.8927 13.1441C13.0683 13.2316 13.1561 13.1879 13.2439 13.1004C13.3317 13.0129 13.639 12.6629 13.7268 12.4879C13.8146 12.3129 13.9463 12.3566 14.078 12.4004C14.2098 12.4441 15 12.8379 15.1317 12.9254C15.3073 13.0129 15.3951 13.0566 15.439 13.1004C15.4829 13.2316 15.4829 13.5379 15.3512 13.8879Z" fill="currentColor"></path>
  </symbol>
</svg>